<svg id="Calque_1" data-name="Calque 1" xmlns="http://www.w3.org/2000/svg" viewBox="0 0 113.42 113.39"><defs><style>.cls-1{fill:#fe3751;}.cls-2{fill:#6cbf1d;}.cls-3{fill:#a443c1;}.cls-4{fill:#40ade7;}.cls-5{fill:#fd8d18;}</style></defs><title>Plan de travail 1</title><path class="cls-1" d="M87.78,14.31A52.52,52.52,0,0,0,26,14.09c10.24,14.08,20,28.53,31,42C68,42.8,77.71,28.41,87.78,14.31Z"/><path class="cls-2" d="M56.94,103.64c0,1.89.23,3.84-.53,5.6h.31a52.57,52.57,0,0,0,49.89-36l-49.36-16Q57.09,80.43,56.94,103.64Z"/><path class="cls-3" d="M56.94,56.14c-11-13.52-20.75-28-31-42A52.54,52.54,0,0,0,6.76,73l50-16.19A1.08,1.08,0,0,0,56.94,56.14Z"/><path class="cls-3" d="M56.94,56.13c-11-13.52-20.75-28-31-42h0c10.24,14.08,20,28.52,31,42Z"/><path class="cls-4" d="M56.94,103.64q.16-23.21.3-46.43-.25-.2-.52-.39L6.76,73A52.57,52.57,0,0,0,56.4,109.24C57.16,107.48,56.92,105.53,56.94,103.64Z"/><path class="cls-5" d="M56.94,56.14a1.08,1.08,0,0,1-.23.69q.27.18.52.39l49.36,16A52.54,52.54,0,0,0,87.78,14.31C77.71,28.41,68,42.8,56.94,56.14Z"/><path class="cls-5" d="M56.94,56.13h0C68,42.8,77.71,28.41,87.78,14.31h0C77.71,28.41,68,42.8,56.94,56.13Z"/></svg>