<?xml version="1.0" encoding="utf-8"?>
<!-- Generator: Adobe Illustrator 19.1.0, SVG Export Plug-In . SVG Version: 6.00 Build 0)  -->
<svg version="1.1" id="Calque_1" xmlns="http://www.w3.org/2000/svg" xmlns:xlink="http://www.w3.org/1999/xlink" x="0px" y="0px"
	 width="225px" height="150px" viewBox="0 0 225 150" style="enable-background:new 0 0 225 150;" xml:space="preserve">
<style type="text/css">
	.st0{fill:#EC2939;}
	.st1{fill:#FEFEFE;}
	.st2{fill:#002394;}
</style>
<g id="france">
	<g>
		<path class="st0" d="M146.2,0.1c25.1,0,50.2,0,75.2-0.1c2.5,0,3.6,0.1,3.5,3.4c-0.2,47.7-0.2,95.5,0,143.2c0,3.4-1.1,3.4-3.5,3.4
			c-25.1-0.1-50.2-0.1-75.2-0.1c-0.1-22.7-0.2-45.5-0.1-68.2C146.1,54.5,146.2,27.3,146.2,0.1z"/>
		<path class="st1" d="M146.2,0.1c-0.1,27.2-0.2,54.5-0.2,81.7c0,22.7,0.1,45.5,0.2,68.2c-25.4,0-50.8,0-76.2,0
			c-0.2-1.5-0.5-2.9-0.5-4.4c0-47.1,0-94.1,0-141.2c0-1.5,0.3-2.9,0.5-4.4C95.4,0.1,120.8,0.1,146.2,0.1z"/>
		<path class="st2" d="M70,0.1c-0.2,1.5-0.5,2.9-0.5,4.4c0,47.1,0,94.1,0,141.2c0,1.5,0.3,2.9,0.5,4.4c-23.3,0-46.7,0-70,0
			c0-50,0-100,0-150C23.3,0.1,46.7,0.1,70,0.1z"/>
	</g>
</g>
</svg>
