<svg xmlns="http://www.w3.org/2000/svg" viewBox="0 0 521.57 247.82"><defs><style>.cls-1{fill:#414355;}.cls-2{fill:#dcdde0;}.cls-3{fill:#ffa348;}</style></defs><title>Fichier 1</title><g id="Calque_2" data-name="Calque 2"><g id="Layer_4" data-name="Layer 4"><path class="cls-1" d="M81.91,24.54a8.77,8.77,0,0,0-1.38-.08c-1.58.07-2.08,2.22-2.53,3.9-.4,1.46-.69,4.14-2.71,2.91s-3-3.47-5.57-3.93c-1.9-.35-4.07,1.88-5.16,3.21a16.26,16.26,0,0,0-2.76,5.8c-1.18,4.1-1.81,10.07,1,13.68a4.57,4.57,0,0,0,1.48,1.27c0,2.32.19,4.63.37,7,.23,3-.77,5.8-.74,8.78,0,.55.91.71,1,.13a59.25,59.25,0,0,0,.91-13.25c.83,1.5,1.75,2.95,2.6,4.44,1.62,2.82,3.18,6,6,7.74a.94.94,0,0,0,1.28-1.28c-1.43-2.73-3.27-5.24-4.78-7.93a54.46,54.46,0,0,0-3.55-5.22,19.45,19.45,0,0,0,5.88-2.59c.77-.45,1.52-.94,2.26-1.45.24.31.48.61.73.91-.12,1.15-.11,2.34-.17,3.39-.18,3.41.07,7.55,2,10.42A.62.62,0,0,0,79.23,62c.19-3.48-.11-7-.26-10.49,2.29,2.53,3.73,5.65,5.79,8.35A.71.71,0,0,0,86,59.35C85,54.85,82,51.52,78.89,48.25c0-1.22.06-2.43.18-3.64.2-.21.41-.4.61-.62a10.12,10.12,0,0,0,2.39-7,36.48,36.48,0,0,1,.26-5c.3-1.9.93-2.33,2.59-2.59.74-.11,2.44-.82,2.52-1.76C87.63,25.31,83,24.79,81.91,24.54Z"/><path class="cls-1" d="M129.6,17.84a.37.37,0,0,0-.1-.44c-5.74-5.39-7.58,12.46-13.67,4.23-1.86-2.51-1.93-5.55-2.64-8.45A32.53,32.53,0,0,0,111.63,9c-1-2.33,1-2.87,2.22-4.33,1.64-2,.23-5.59-3.18-4.48-1.59.51-2.73,2.35-3.32,3.79s-1,3.1-1.75,4.61a21,21,0,0,0-2,4.45c-.33,1.57-.21,3.13-.94,4.61-.62,1.22-1.85,2.18-2.68,3.27a12.71,12.71,0,0,0-2.34,6.3,1.57,1.57,0,0,0-.12.26c-1.44,5.63.92,9.17,2.62,14.47,1.88,5.9,1.65,12.5,4.16,18.13.25.56,1.16.27,1.13-.31a121.28,121.28,0,0,0-3.11-22.1,67.53,67.53,0,0,1,4.4,6.42c2.53,4.7,5,10.57,8.49,14.54.62.7,1.6,0,1.45-.84a21.07,21.07,0,0,0-.88-3.09.75.75,0,0,0,.2-.43c.4-4,.85-8,1.13-12.06.15-2.2.46-4.37.63-6.56a11.93,11.93,0,0,0,1.14-.41c.37,2.49.88,5,1.3,7.39.45,2.58,1.89,5,2.6,7.44A19.58,19.58,0,0,0,125,55.67a.75.75,0,0,0,1.37-.58c-.82-4-1.36-7.76-2.49-11.64-.63-2.15-1.29-4.24-1.79-6.42A14.42,14.42,0,0,0,121,34.19a13.29,13.29,0,0,0,5.62-7,23.13,23.13,0,0,0,.41-3.81c.31-2,1.53-.09,2.12.68,1.07,1.39,2.32,2.43,4.06,1.6a.67.67,0,0,0,.34-.59A11,11,0,0,0,129.6,17.84Zm-14.93,34c-1.27-2.81-2.82-5.58-4-8.17-1.42-3-3.69-5.22-6.06-7.38A34,34,0,0,0,116.43,36C115.75,41.29,114.73,46.53,114.67,51.85Z"/><path class="cls-1" d="M159,12.65c-2.75.56-3.63,4.22-4.17,6.9-1.18-2.11-2.81-4.19-4.94-5-3.06-1.13-5.26.95-6.82,3.44a13.25,13.25,0,0,0-1.38,5.18,29.76,29.76,0,0,1-2,6.25c-.71,1.91.17,4.25,1.61,5.76-.12.6-.28,1.2-.42,1.81a13.37,13.37,0,0,0,0,3.46c.06,3.3-1.07,6.49-.83,9.82,0,.44.69.73.92.25a18.79,18.79,0,0,0,1.39-4.95c.44-2.51,1.49-4.24,2.4-6.55a8.94,8.94,0,0,0,.55-2.18c2.59-.07,5.54-1.58,8.06-3.22a28.6,28.6,0,0,0,1.8,3.75c-.09.27-.18.52-.25.75-1.12,3.76-2.05,8-1.6,11.9.08.74,1.28,1.07,1.42.19.58-3.46,1.16-6.83,1.92-10.18a30,30,0,0,1,2.67,6.31c.57,2.11.43,3.79,1.74,5.61a.85.85,0,0,0,1.54-.65c-.82-3.36-1.31-6.61-2.73-9.78-.71-1.59-1.6-3.11-2.46-4.64.16-.6.32-1.2.5-1.8a11.2,11.2,0,0,0,.59-5.36c1.7-2,1.74-4.76,1.34-7.38-.22-1.38-.46-2.76-.59-4.16-.06-.65,2.46.76,2.75.93a3.93,3.93,0,0,0,3.62.53.66.66,0,0,0,.48-.62C166.26,15.36,162.74,11.88,159,12.65Zm-3.48,19.54c.57-.41,1.09-.8,1.56-1.15a16.84,16.84,0,0,1-.81,3.41A19.94,19.94,0,0,1,155.54,32.19Z"/><path class="cls-1" d="M189.12,26.29c-1,.7-1.26,2.3-2.44,2.77s-2.29-4.53-2.78-5.43c-2.07-3.8-5.84-4.66-9.14-1.91a17.22,17.22,0,0,0-4.7,8.21,1.3,1.3,0,0,0-.35.54c-1.06,3.3-.05,6.25,1,9.44.67,2.12,1.56,4.12,1.7,6.36a8.36,8.36,0,0,0,1,3.45.85.85,0,0,0,1.57-.43,24.62,24.62,0,0,0-.59-7.8,53.87,53.87,0,0,1-1.08-5.55,6.91,6.91,0,0,0,2.49-.14c1.12-.3,2.15-.82,3.26-1.11,1.57-.4,1.94-.12,3.17.8a4.12,4.12,0,0,0,.71.42c-.41,1.89-1.52,3.67-2,5.56a28,28,0,0,0-.76,6.82.72.72,0,0,0,1.33.36c1.49-2.45,1-5.74,1.86-8.44a38.58,38.58,0,0,0,1.3-4,4.13,4.13,0,0,0,.69-.11c1.22,3.79,1.06,8.09,3.08,11.55.38.66,1.64.44,1.52-.41-.5-3.77-1.13-8.29-3-11.85a9.17,9.17,0,0,0,3-3.49c2.35.37,6.15,1.52,5.41-2.19C194.85,27.46,191.35,24.72,189.12,26.29Z"/><path class="cls-1" d="M218.63,35.88c-.76.34-1.3,1.24-2.25,1.11s-2.06-1.76-2.73-2.5a4.94,4.94,0,0,0-4.87-1.58c-2.48.52-3.92,1.82-4.92,4.57-.31,1.19-1.37,2.19-1.5,3.75-.37,4.67,4.84,4.66,8.81,4.84,1.89.09,5.2-.28,6.49-1.9a10.07,10.07,0,0,0,1.15-2.38c.27-.65.93-.63,1.43-.54,1.08.19,4.75,3.58,5,1C225.63,39.23,222.14,34.31,218.63,35.88Z"/><path class="cls-2" d="M520.75,123.52c-6.93-4.59-14.67-8.07-21.84-12.3q-11.1-6.54-22-13.34c-7.08-4.42-13.93-9.17-21-13.66s-14.43-10.37-22.38-13a1.25,1.25,0,0,0-1.21,2.07C438,78.83,445.14,83.42,452,87.46c7.67,4.52,14.85,10,22.38,14.73,7.25,4.59,14.66,8.94,22,13.32s14.8,9.11,23,11.23A1.77,1.77,0,0,0,520.75,123.52Z"/><path class="cls-3" d="M481.07,141.29c-6.34-20.72-31.7-28.3-47.82-39.27-5.47-3.72-10.86-9.43-9.17-16.55,1.28-5.38,6.85-9.48,10.86-12.85a.83.83,0,0,0-.36-1.37c-19.07-7.08-41.72.85-60.15,6.46-12.08,3.68-23.91,8.18-35.94,12.05-5.88,1.89-11.75,3.82-17.63,5.7-2.89.93-14.1,4.52-14.36,5.34-.5.06,0,2,1,1.67,23.76,18.92,50.4,33.23,76.45,48.64,13.74,8.13,27.56,16.12,41.76,23.43,10.29,5.3,21.11,19.73,33.13,19.17,9.71-.46,17-14.6,20.67-22.67C483.47,162.38,483.88,150.47,481.07,141.29Z"/><path class="cls-2" d="M219.7,46C256,60.21,288.31,76.79,323.86,96.54c41.79,23.22,61.2,32.93,102,57.83,12.78,7.8,35.34,17,50.67,23.34-4.83,10.83-15,23.8-28.41,32.4-16.26,10.43-32.68,15.35-49.54,18.63C359.75,236.3,312.89,217,279,200.5c-34.18-16.69-91.32-50.95-81.28-97.32,4.39-20.3,23.43-31.88,18.77-53.81Z"/><path class="cls-3" d="M386.38,204.06c-8.14-4.91-17-8.32-24.76-13.86-10.88-7.73-15.05-18.25-15.1-31.3,0-9.62.92-20.17-5.17-28.33-6.85-9.19-20.87-10.66-31.39-10.89-13.93-.32-27.76.7-41.67,1.23-9.25.35-19,.51-27.77-2.76-12.39-4.6-11.3-18.72-8.68-29.42,2.22-9.06,6.16-17.49,3.41-26.92-5-17.12-25-19.74-40.17-20.11a292,292,0,0,0-58.24,4.07c-21.11,3.78-42.1,9.89-62.6,16.12C55.52,67.58,38.51,77.4,19.53,82.21a4.55,4.55,0,0,0-.67.25c-1.27.47-1.74.94-.52,1.47,5.61,2.45,11.6,3.85,17.16,6.39a68.58,68.58,0,0,1,16.72,11.46c9.89,8.87,17.11,22,13.09,35.46-3.43,11.53-14.54,20-24,26.52-5.16,3.6-10.52,6.91-15.89,10.18-5.92,3.6-12.74,7.07-17.67,12-7.89,7.89-11.13,16.36-3.33,25.64s22,14.6,33.17,18.69c12.88,4.73,26.91,6.94,40.57,4.9,14.37-2.15,27-8.84,40.07-14.69,14.39-6.41,29.26-11.77,45.08-13,15.67-1.21,31.21,1.72,46.14,6.26,29.18,8.87,56.21,23.27,86.1,30.11,28.27,6.48,57.94,5.27,85.11-5.19,7.91-3.05,18.09-8.71,19-18.15C400.42,213,391.85,207.36,386.38,204.06Z"/></g></g></svg>