<?xml version="1.0" encoding="utf-8"?>
<!-- Generator: Adobe Illustrator 21.0.2, SVG Export Plug-In . SVG Version: 6.00 Build 0)  -->
<svg version="1.1" id="Calque_1" xmlns="http://www.w3.org/2000/svg" xmlns:xlink="http://www.w3.org/1999/xlink" x="0px" y="0px"
	 viewBox="0 0 95.3 95.5" style="enable-background:new 0 0 95.3 95.5;" xml:space="preserve">
<style type="text/css">
	.st0{fill:#4BAED4;}
	.st1{fill:#FDFEFE;}
</style>
<path class="st0" d="M47.7,95.5c-15.3,0-47.7,0-47.7,0C0.1,65,0.1,30.5,0,0c0,0,64.8,0.1,95.3,0v95.5C80,95.5,63,95.5,47.7,95.5z
	 M47.4,80.2c11.6,0,23.1-0.1,34.7,0c2.4,0,3.3-0.4,3.3-3.1c-0.2-18.9-0.2-37.8-0.1-56.8c0-2.7-0.9-3.1-3.3-3.1
	c-23.1,0.1-46.2,0.1-69.3,0c-2.4,0-3.3,0.4-3.3,3.1c0.1,19,0.1,37.9,0,56.9c0,2.7,0.9,3.1,3.3,3.1C24.3,80.2,35.8,80.2,47.4,80.2z"
	/>
<path class="st1" d="M47.4,80.2c-11.6,0-23.1-0.1-34.7,0c-2.4,0-3.3-0.4-3.3-3.1c0.1-19,0.1-37.9,0-56.9c0-2.6,0.9-3.1,3.3-3.1
	c23.1,0.1,46.2,0.1,69.3,0c2.4,0,3.3,0.4,3.3,3.1c-0.1,19-0.1,37.9,0,56.9c0,2.6-0.9,3.1-3.3,3.1C70.5,80.2,58.9,80.2,47.4,80.2z
	 M50.2,66.3c0.1,0.1,0.4,0.4,0.4,0.4c0.4-0.2,0.2-0.5,0-0.8c-1.8-3.2-3.7-6.5-6-9.3c-1.1-1.3-0.9-2,0.1-3.1c3.1-3.1,6.3-6,9.7-8.6
	c8.1-6.1,9.2-6.1,16.4,1.1c3,3,5.9,6.3,9.2,9.9c0-11,0-21.5,0-31.9c0-2.2-1.7-1.5-2.8-1.5c-19.9,0-39.8,0-59.8-0.1
	c-2.3,0-3.1,0.6-3,3c0.1,14.9,0.1,29.9,0.1,44.8c0,0.8-0.4,1.7,0.5,2.3c1.5-0.3,2.7-1.3,3.9-2.1c4.6-3.1,9.4-6.2,13.8-9.6
	c2.5-1.9,4.7-1.9,7.3-0.6C43.7,61.9,46.8,64.4,50.2,66.3z"/>
<path class="st0" d="M50.2,66.3c-3.4-1.9-6.4-4.4-10-6.1c-2.6-1.3-4.9-1.3-7.3,0.6c-4.5,3.4-9.2,6.4-13.8,9.6
	c-1.2,0.8-2.4,1.8-3.9,2.1c-0.9-0.7-0.5-1.6-0.5-2.3c0-14.9,0-29.9-0.1-44.8c0-2.4,0.7-3,3-3c19.9,0.1,39.8,0,59.8,0.1
	c1.1,0,2.8-0.7,2.8,1.5c0,10.4,0,20.9,0,31.9C76.8,52.3,74,49.1,71,46c-7.2-7.2-8.3-7.2-16.4-1.1c-3.5,2.6-6.7,5.6-9.7,8.6
	c-1.1,1.1-1.2,1.8-0.1,3.1c2.4,2.8,4.2,6.1,6,9.3C50.5,66.1,50.3,66.2,50.2,66.3z M34.3,35.9c0.1-3.1-2.4-5.7-5.5-5.9
	c-3.2-0.1-5.9,2.5-6,5.7c0,3.1,2.6,5.7,5.6,5.7C31.6,41.5,34.2,38.9,34.3,35.9z"/>
<path class="st0" d="M50.6,65.9c0.2,0.3,0.3,0.6,0,0.8c-0.1,0-0.3-0.2-0.4-0.4C50.3,66.2,50.5,66.1,50.6,65.9z"/>
<path class="st1" d="M34.3,35.9c-0.1,3.1-2.7,5.6-5.8,5.5c-3.1,0-5.6-2.7-5.6-5.7c0-3.2,2.8-5.9,6-5.7
	C31.9,30.1,34.4,32.8,34.3,35.9z"/>
</svg>
