<?xml version="1.0" encoding="UTF-8" standalone="no"?>
<!-- Created with Inkscape (http://www.inkscape.org/) -->

<svg
   xmlns:dc="http://purl.org/dc/elements/1.1/"
   xmlns:cc="http://creativecommons.org/ns#"
   xmlns:rdf="http://www.w3.org/1999/02/22-rdf-syntax-ns#"
   xmlns:svg="http://www.w3.org/2000/svg"
   xmlns="http://www.w3.org/2000/svg"
   xmlns:sodipodi="http://sodipodi.sourceforge.net/DTD/sodipodi-0.dtd"
   xmlns:inkscape="http://www.inkscape.org/namespaces/inkscape"
   width="24"
   height="24"
   viewBox="0 0 6.3499999 6.3500002"
   version="1.1"
   id="svg15"
   inkscape:version="0.92.4 (5da689c313, 2019-01-14)"
   sodipodi:docname="news-default.svg"
   inkscape:export-filename="/home/jmuller/actu.png"
   inkscape:export-xdpi="199.99998"
   inkscape:export-ydpi="199.99998">
  <defs
     id="defs9" />
  <sodipodi:namedview
     id="base"
     pagecolor="#ffffff"
     bordercolor="#666666"
     borderopacity="1.0"
     inkscape:pageopacity="0.0"
     inkscape:pageshadow="2"
     inkscape:zoom="22.627417"
     inkscape:cx="-5.7911228"
     inkscape:cy="15.310524"
     inkscape:document-units="px"
     inkscape:current-layer="layer1"
     showgrid="false"
     inkscape:showpageshadow="false"
     borderlayer="true"
     units="px"
     inkscape:window-width="2560"
     inkscape:window-height="995"
     inkscape:window-x="0"
     inkscape:window-y="0"
     inkscape:window-maximized="1"
     showguides="true"
     inkscape:guide-bbox="true">
    <sodipodi:guide
       position="0,0"
       orientation="0,24"
       id="guide17"
       inkscape:locked="false" />
    <sodipodi:guide
       position="6.3500001,0"
       orientation="-24,0"
       id="guide19"
       inkscape:locked="false" />
    <sodipodi:guide
       position="6.3500001,6.3500001"
       orientation="0,-24"
       id="guide21"
       inkscape:locked="false" />
    <sodipodi:guide
       position="0,6.3500001"
       orientation="24,0"
       id="guide23"
       inkscape:locked="false" />
    <sodipodi:guide
       position="-0.66817381,3.1738257"
       orientation="0,1"
       id="guide66"
       inkscape:locked="false" />
    <sodipodi:guide
       position="3.1738257,3.1738257"
       orientation="1,0"
       id="guide68"
       inkscape:locked="false" />
  </sodipodi:namedview>
  <metadata
     id="metadata12">
    <rdf:RDF>
      <cc:Work
         rdf:about="">
        <dc:format>image/svg+xml</dc:format>
        <dc:type
           rdf:resource="http://purl.org/dc/dcmitype/StillImage" />
        <dc:title />
      </cc:Work>
    </rdf:RDF>
  </metadata>
  <g
     inkscape:label="Calque 1"
     inkscape:groupmode="layer"
     id="layer1"
     transform="translate(0,-290.64999)">
    <rect
       style="opacity:1;fill:#2a9cc8;fill-opacity:1;stroke:none;stroke-width:0.79375005;stroke-linecap:round;stroke-linejoin:round;stroke-miterlimit:4;stroke-dasharray:none;stroke-dashoffset:0;stroke-opacity:1"
       id="rect14"
       width="6.3500004"
       height="6.3500099"
       x="0"
       y="290.64999"
       ry="0" />
    <path
       inkscape:connector-curvature="0"
       d="M 3.1738257,293.17989 H 2.3991352 v 0.77467 h 0.7746905 v -0.77468 z m 0.260643,1.29234 v 0.25703 h -1.292356 v -0.25703 z m 0,-1.55299 v 1.29235 h -1.292356 v -1.29235 z m 1.2923555,1.55299 v 0.25703 H 3.6914951 v -0.25703 z m 0,-0.51767 v 0.25703 H 3.6914951 v -0.25703 z m 0,-0.51765 v 0.26064 H 3.6914951 v -0.26064 z m 0,-0.51767 v 0.26065 H 3.6914951 v -0.26065 z m -3.1023809,1.94034 v -1.94034 H 1.3638012 v 1.94034 q 0,0.0507 0.039819,0.0905 0.039819,0.0398 0.090503,0.0398 0.050683,0 0.090501,-0.0398 0.039819,-0.0398 0.039819,-0.0905 z m 3.3594026,0 v -2.19736 H 1.8814658 v 2.19736 q 0,0.0652 -0.021723,0.13033 h 2.9973977 q 0.050679,0 0.090502,-0.0398 0.039824,-0.0398 0.036203,-0.0905 z m 0.2606429,-2.45801 v 2.45801 q 0,0.16291 -0.11222,0.27512 -0.1122201,0.11223 -0.2751232,0.11223 H 1.4941264 q -0.159281,0 -0.2751231,-0.11223 -0.1158409,-0.11221 -0.11222,-0.27512 v -2.19736 h 0.5176648 v -0.26065 h 3.6200455 z"
       id="path5"
       style="fill:#ffffff;stroke-width:0.00470899" />
  </g>
</svg>
