<?xml version="1.0" encoding="UTF-8" standalone="no"?>
<!-- Created with Inkscape (http://www.inkscape.org/) -->

<svg
   xmlns:dc="http://purl.org/dc/elements/1.1/"
   xmlns:cc="http://creativecommons.org/ns#"
   xmlns:rdf="http://www.w3.org/1999/02/22-rdf-syntax-ns#"
   xmlns:svg="http://www.w3.org/2000/svg"
   xmlns="http://www.w3.org/2000/svg"
   xmlns:sodipodi="http://sodipodi.sourceforge.net/DTD/sodipodi-0.dtd"
   xmlns:inkscape="http://www.inkscape.org/namespaces/inkscape"
   version="1.1"
   id="svg2"
   xml:space="preserve"
   width="164.16277"
   height="199.41606"
   viewBox="0 0 164.16276 199.41606"
   sodipodi:docname="recorder-audio.svg"
   inkscape:version="0.92.4 (5da689c313, 2019-01-14)"><metadata
     id="metadata8"><rdf:RDF><cc:Work
         rdf:about=""><dc:format>image/svg+xml</dc:format><dc:type
           rdf:resource="http://purl.org/dc/dcmitype/StillImage" /><dc:title /></cc:Work></rdf:RDF></metadata><defs
     id="defs6"><clipPath
       id="clipPath680-7-6-3"
       clipPathUnits="userSpaceOnUse"><path
         inkscape:connector-curvature="0"
         id="path678-8-7-3-1"
         d="m 116.567,338.343 h 28.473 v -54.48 h -28.473 z" /></clipPath><clipPath
       id="clipPath696-4-9-1"
       clipPathUnits="userSpaceOnUse"><path
         inkscape:connector-curvature="0"
         id="path694-0-4-1"
         d="M 48.5075,380.396 H 102.988 V 351.923 H 48.5075 Z" /></clipPath><clipPath
       id="clipPath716-6-8-9"
       clipPathUnits="userSpaceOnUse"><path
         inkscape:connector-curvature="0"
         id="path714-4-1-0"
         d="M 76.4762,422.314 H 203.855 V 311.832 H 76.4762 Z" /></clipPath><clipPath
       id="clipPath736-7-2-0"
       clipPathUnits="userSpaceOnUse"><path
         inkscape:connector-curvature="0"
         id="path734-4-9-02"
         d="M 85.2378,322.148 H 107.344 V 311.072 H 85.2378 Z" /></clipPath><clipPath
       id="clipPath752-8-8-3-5"
       clipPathUnits="userSpaceOnUse"><path
         inkscape:connector-curvature="0"
         id="path750-8-5-9-7"
         d="M 75.7166,342.7 H 86.7923 V 320.594 H 75.7166 Z" /></clipPath><clipPath
       id="clipPath772-8-0-6"
       clipPathUnits="userSpaceOnUse"><path
         inkscape:connector-curvature="0"
         id="path770-2-2-8-91"
         d="M 82.2232,357.606 H 122.25 V 317.579 H 82.2232 Z" /></clipPath><clipPath
       id="clipPath872-6-8-3"
       clipPathUnits="userSpaceOnUse"><path
         inkscape:connector-curvature="0"
         id="path870-8-6-5-4"
         d="m 141.857,390.362 h 30.912 v -6.528 h -30.912 z" /></clipPath><clipPath
       id="clipPath856-6-0-7"
       clipPathUnits="userSpaceOnUse"><path
         inkscape:connector-curvature="0"
         id="path854-9-0-9-4"
         d="m 141.289,403.26 h 31.226 v -9.667 h -31.226 z" /></clipPath><clipPath
       clipPathUnits="userSpaceOnUse"
       id="clipPath796-8-22"><path
         d="m 398.534,282.221 h 21.68 v -18.2 h -21.68 z"
         id="path794-3-89"
         inkscape:connector-curvature="0" /></clipPath><clipPath
       clipPathUnits="userSpaceOnUse"
       id="clipPath812-8-7"><path
         d="m 418.833,257.962 h 8.083 v -8.083 h -8.083 z"
         id="path810-5-3"
         inkscape:connector-curvature="0" /></clipPath><clipPath
       clipPathUnits="userSpaceOnUse"
       id="clipPath796-8-22-5"><path
         d="m 398.534,282.221 h 21.68 v -18.2 h -21.68 z"
         id="path794-3-89-4"
         inkscape:connector-curvature="0" /></clipPath><clipPath
       clipPathUnits="userSpaceOnUse"
       id="clipPath812-8-7-7"><path
         d="m 418.833,257.962 h 8.083 v -8.083 h -8.083 z"
         id="path810-5-3-6"
         inkscape:connector-curvature="0" /></clipPath><clipPath
       clipPathUnits="userSpaceOnUse"
       id="clipPath442-0-2"><path
         d="m 60.73,273.36 h 89.735 V 201.584 H 60.73 Z"
         id="path440-2-0"
         inkscape:connector-curvature="0" /></clipPath><clipPath
       clipPathUnits="userSpaceOnUse"
       id="clipPath446-9-6"><path
         d="m 101.775,217.59 c -24.402,6.254 -39.114,31.106 -32.859,55.509 0.022,0.088 0.051,0.173 0.074,0.261 -5.199,-7.408 -8.26,-16.425 -8.26,-26.163 0,-25.191 20.421,-45.613 45.613,-45.613 21.185,0 38.993,14.445 44.122,34.022 -10.583,-15.105 -29.768,-22.867 -48.69,-18.016"
         id="path444-0-1"
         inkscape:connector-curvature="0" /></clipPath><mask
       maskUnits="userSpaceOnUse"
       x="0"
       y="0"
       width="1"
       height="1"
       id="mask458-9-5"><g
         id="g468-6-9-5"><g
           clip-path="url(#clipPath450-3-9)"
           id="g466-4-4"><g
             id="g464-5-7"><g
               id="g462-1-65"><path
                 d="M -32768,32767 H 32767 V -32768 H -32768 Z"
                 style="fill:url(#linearGradient456);stroke:none"
                 id="path460-0-6"
                 inkscape:connector-curvature="0" /></g></g></g></g></mask><clipPath
       clipPathUnits="userSpaceOnUse"
       id="clipPath450-3-9"><path
         d="M -32768,32767 H 32767 V -32768 H -32768 Z"
         id="path448-7-3"
         inkscape:connector-curvature="0" /></clipPath><linearGradient
       x1="0"
       y1="0"
       x2="1"
       y2="0"
       gradientUnits="userSpaceOnUse"
       gradientTransform="matrix(-47.302055,-76.021133,-76.021133,47.302055,125.65577,278.22803)"
       spreadMethod="pad"
       id="linearGradient456"><stop
         style="stop-opacity:0;stop-color:#ffffff"
         offset="0"
         id="stop452" /><stop
         style="stop-opacity:1;stop-color:#ffffff"
         offset="1"
         id="stop454" /></linearGradient><clipPath
       clipPathUnits="userSpaceOnUse"
       id="clipPath1222-4-6"><path
         d="m 204.39,139.398 h 89.077 V 63.9498 H 204.39 Z"
         id="path1220-6-1"
         inkscape:connector-curvature="0" /></clipPath><clipPath
       clipPathUnits="userSpaceOnUse"
       id="clipPath1226-2-2"><path
         d="m 292.248,94.351 c -8.301,-8.82 -20.071,-14.35 -33.131,-14.39 -9.289,-0.03 -17.94,2.729 -25.159,7.49 -1.15,0.76 -2.261,1.56 -3.331,2.419 -4.41,3.5 -8.16,7.801 -11.02,12.681 -0.18,0.3 -0.35,0.6 -0.52,0.9 v 0.01 c -0.96,1.74 -1.819,3.56 -2.56,5.43 -1.54,3.91 -2.549,8.08 -2.96,12.44 -0.12,1.35 -0.19,2.72 -0.19,4.109 0,1.68 0.081,3.341 0.25,4.97 0.331,3.102 0.978,6.105 1.895,8.987 -2.362,-2.727 -4.415,-5.73 -6.082,-8.967 -2.53,-4.89 -4.19,-10.3 -4.8,-16.031 -0.17,-1.629 -0.25,-3.289 -0.25,-4.969 0,-1.39 0.07,-2.76 0.19,-4.11 0.41,-4.36 1.42,-8.53 2.96,-12.44 0.74,-1.87 1.6,-3.691 2.56,-5.43 v -0.011 c 0.17,-0.299 0.34,-0.599 0.52,-0.899 2.86,-4.88 6.61,-9.18 11.02,-12.68 1.07,-0.86 2.18,-1.66 3.33,-2.421 7.22,-4.759 15.87,-7.519 25.16,-7.489 13.06,0.04 24.83,5.57 33.13,14.39 0.49,0.52 0.97,1.05 1.43,1.59 3.32,3.89 6,8.34 7.88,13.2 0.329,0.848 0.622,1.708 0.897,2.576 -0.397,-0.458 -0.801,-0.912 -1.219,-1.355"
         id="path1224-8-9"
         inkscape:connector-curvature="0" /></clipPath><mask
       maskUnits="userSpaceOnUse"
       x="0"
       y="0"
       width="1"
       height="1"
       id="mask1238-9-31"><g
         id="g1248-0-6-9"><g
           clip-path="url(#clipPath1230-0-5)"
           id="g1246-3-0-4"><g
             id="g1244-6-7-7"><g
               id="g1242-1-0-8"><path
                 d="M -32768,32767 H 32767 V -32768 H -32768 Z"
                 style="fill:url(#linearGradient1236);stroke:none"
                 id="path1240-1-4"
                 inkscape:connector-curvature="0" /></g></g></g></g></mask><clipPath
       clipPathUnits="userSpaceOnUse"
       id="clipPath1230-0-5"><path
         d="M -32768,32767 H 32767 V -32768 H -32768 Z"
         id="path1228-1-0"
         inkscape:connector-curvature="0" /></clipPath><linearGradient
       x1="0"
       y1="0"
       x2="1"
       y2="0"
       gradientUnits="userSpaceOnUse"
       gradientTransform="matrix(-70.953033,-155.42114,-155.42114,70.953033,272.18851,158.15144)"
       spreadMethod="pad"
       id="linearGradient1236"><stop
         style="stop-opacity:0;stop-color:#ffffff"
         offset="0"
         id="stop1232" /><stop
         style="stop-opacity:1;stop-color:#ffffff"
         offset="1"
         id="stop1234" /></linearGradient><clipPath
       clipPathUnits="userSpaceOnUse"
       id="clipPath1280-6-1"><path
         d="m 261.341,144.876 h 21.68 v -18.2 h -21.68 z"
         id="path1278-4-0"
         inkscape:connector-curvature="0" /></clipPath><clipPath
       clipPathUnits="userSpaceOnUse"
       id="clipPath1296-5-6"><path
         d="m 282.771,122.663 h 8.083 v -8.083 h -8.083 z"
         id="path1294-2-3"
         inkscape:connector-curvature="0" /></clipPath><clipPath
       clipPathUnits="userSpaceOnUse"
       id="clipPath1316-0-8-5"><path
         d="m 260.187,430.304 h 21.68 v -18.201 h -21.68 z"
         id="path1314-6-7-2"
         inkscape:connector-curvature="0" /></clipPath><clipPath
       clipPathUnits="userSpaceOnUse"
       id="clipPath1332-3-4-5"><path
         d="m 280.487,406.044 h 8.083 v -8.083 h -8.083 z"
         id="path1330-2-1-4"
         inkscape:connector-curvature="0" /></clipPath><clipPath
       clipPathUnits="userSpaceOnUse"
       id="clipPath1428-9-7"><path
         d="m 203.457,425.112 h 86.912 v -77.173 h -86.912 z"
         id="path1426-0-0-4"
         inkscape:connector-curvature="0" /></clipPath><clipPath
       clipPathUnits="userSpaceOnUse"
       id="clipPath1432-9-4"><path
         d="m 270.281,361.997 c -24.175,-7.079 -49.52,6.776 -56.599,30.951 -0.983,3.36 -1.565,6.732 -1.764,10.08 -0.351,5.754 0.399,11.412 2.126,16.722 0.592,1.834 1.305,3.623 2.12,5.362 -4.781,-4.997 -8.381,-11.009 -10.497,-17.569 -1.727,-5.31 -2.477,-10.969 -2.126,-16.722 0.199,-3.348 0.78,-6.721 1.764,-10.08 7.079,-24.175 32.424,-38.031 56.599,-30.952 13.062,3.825 23.102,12.983 28.465,24.404 -5.337,-5.572 -12.151,-9.872 -20.088,-12.196"
         id="path1430-8-3"
         inkscape:connector-curvature="0" /></clipPath><mask
       maskUnits="userSpaceOnUse"
       x="0"
       y="0"
       width="1"
       height="1"
       id="mask1444-8-0"><g
         id="g1454-5-7"><g
           clip-path="url(#clipPath1436-1-4)"
           id="g1452-8-8"><g
             id="g1450-4-6"><g
               id="g1448-3-8"><path
                 d="M -32768,32767 H 32767 V -32768 H -32768 Z"
                 style="fill:url(#linearGradient1442);stroke:none"
                 id="path1446-7-8"
                 inkscape:connector-curvature="0" /></g></g></g></g></mask><clipPath
       clipPathUnits="userSpaceOnUse"
       id="clipPath1436-1-4"><path
         d="M -32768,32767 H 32767 V -32768 H -32768 Z"
         id="path1434-3-3"
         inkscape:connector-curvature="0" /></clipPath><linearGradient
       x1="0"
       y1="0"
       x2="1"
       y2="0"
       gradientUnits="userSpaceOnUse"
       gradientTransform="matrix(-70.919228,-77.095512,-77.095512,70.919228,275.94394,422.74988)"
       spreadMethod="pad"
       id="linearGradient1442"><stop
         style="stop-opacity:0;stop-color:#ffffff"
         offset="0"
         id="stop1438" /><stop
         style="stop-opacity:1;stop-color:#ffffff"
         offset="1"
         id="stop1440" /></linearGradient><clipPath
       id="clipPath532-4-6-7"
       clipPathUnits="userSpaceOnUse"><path
         inkscape:connector-curvature="0"
         id="path530-1-6-6"
         d="m 204.389,253.876 h 91.234 V 201.59 h -91.234 z" /></clipPath><clipPath
       id="clipPath536-7-0"
       clipPathUnits="userSpaceOnUse"><path
         inkscape:connector-curvature="0"
         id="path534-6-2"
         d="m 295.11,253.877 c -0.102,-0.672 -0.209,-1.342 -0.34,-2.003 -0.8,-4.13 -2.16,-8.07 -4.01,-11.721 -2.17,-4.319 -5.01,-8.25 -8.39,-11.639 -8.01,-8.071 -19.02,-13.17 -31.27,-13.46 -13.04,-0.32 -24.94,4.88 -33.46,13.46 -3.38,3.389 -6.22,7.32 -8.39,11.639 -1.85,3.651 -3.21,7.581 -4.02,11.721 -0.126,0.653 -0.237,1.313 -0.336,1.979 -0.185,-1.249 -0.337,-2.508 -0.414,-3.79 -0.08,-1.309 -0.11,-2.629 -0.08,-3.959 0.06,-2.621 0.35,-5.19 0.83,-7.68 0.81,-4.14 2.17,-8.07 4.02,-11.721 2.17,-4.319 5.01,-8.25 8.39,-11.64 8.52,-8.58 20.42,-13.779 33.46,-13.459 12.25,0.29 23.26,5.39 31.27,13.459 3.38,3.39 6.22,7.321 8.39,11.64 1.85,3.651 3.21,7.591 4.01,11.721 0.63,3.18 0.92,6.479 0.84,9.86 -0.01,0.6 -0.04,1.19 -0.08,1.779 -0.081,1.291 -0.234,2.56 -0.42,3.814" /></clipPath><mask
       id="mask548-0-5"
       height="1"
       width="1"
       y="0"
       x="0"
       maskUnits="userSpaceOnUse"><g
         id="g558-9-8"><g
           id="g556-8-7-9"
           clip-path="url(#clipPath540-8-0)"><g
             id="g554-7-5-5-4"><g
               id="g552-9-9-0"><path
                 inkscape:connector-curvature="0"
                 id="path550-7-6"
                 style="fill:url(#linearGradient546);stroke:none"
                 d="M -32768,32767 H 32767 V -32768 H -32768 Z" /></g></g></g></g></mask><clipPath
       id="clipPath540-8-0"
       clipPathUnits="userSpaceOnUse"><path
         inkscape:connector-curvature="0"
         id="path538-5-8-9"
         d="M -32768,32767 H 32767 V -32768 H -32768 Z" /></clipPath><linearGradient
       id="linearGradient546"
       spreadMethod="pad"
       gradientTransform="matrix(0,-96.528519,-96.528519,0,250.00597,307.91217)"
       gradientUnits="userSpaceOnUse"
       y2="0"
       x2="1"
       y1="0"
       x1="0"><stop
         id="stop542"
         offset="0"
         style="stop-opacity:0;stop-color:#ffffff" /><stop
         id="stop544"
         offset="1"
         style="stop-opacity:1;stop-color:#ffffff" /></linearGradient><clipPath
       id="clipPath598-7-0"
       clipPathUnits="userSpaceOnUse"><path
         inkscape:connector-curvature="0"
         id="path596-9-5"
         d="m 257.752,285.738 h 21.68 v -18.201 h -21.68 z" /></clipPath><clipPath
       id="clipPath614-3-8"
       clipPathUnits="userSpaceOnUse"><path
         inkscape:connector-curvature="0"
         id="path612-2-7-5"
         d="m 278.051,261.478 h 8.083 v -8.083 h -8.083 z" /></clipPath><clipPath
       clipPathUnits="userSpaceOnUse"
       id="clipPath796-8-22-1"><path
         d="m 398.534,282.221 h 21.68 v -18.2 h -21.68 z"
         id="path794-3-89-0"
         inkscape:connector-curvature="0" /></clipPath><clipPath
       clipPathUnits="userSpaceOnUse"
       id="clipPath812-8-7-6"><path
         d="m 418.833,257.962 h 8.083 v -8.083 h -8.083 z"
         id="path810-5-3-1"
         inkscape:connector-curvature="0" /></clipPath><clipPath
       clipPathUnits="userSpaceOnUse"
       id="clipPath442-0-2-5"><path
         d="m 60.73,273.36 h 89.735 V 201.584 H 60.73 Z"
         id="path440-2-0-9"
         inkscape:connector-curvature="0" /></clipPath><clipPath
       clipPathUnits="userSpaceOnUse"
       id="clipPath446-9-6-4"><path
         d="m 101.775,217.59 c -24.402,6.254 -39.114,31.106 -32.859,55.509 0.022,0.088 0.051,0.173 0.074,0.261 -5.199,-7.408 -8.26,-16.425 -8.26,-26.163 0,-25.191 20.421,-45.613 45.613,-45.613 21.185,0 38.993,14.445 44.122,34.022 -10.583,-15.105 -29.768,-22.867 -48.69,-18.016"
         id="path444-0-1-9"
         inkscape:connector-curvature="0" /></clipPath><mask
       maskUnits="userSpaceOnUse"
       x="0"
       y="0"
       width="1"
       height="1"
       id="mask458-9-5-0"><g
         id="g468-6-9-5-9"><g
           clip-path="url(#clipPath450-3-9-1)"
           id="g466-4-4-1"><g
             id="g464-5-7-7"><g
               id="g462-1-65-7"><path
                 d="M -32768,32767 H 32767 V -32768 H -32768 Z"
                 style="fill:url(#linearGradient456);stroke:none"
                 id="path460-0-6-1"
                 inkscape:connector-curvature="0" /></g></g></g></g></mask><clipPath
       clipPathUnits="userSpaceOnUse"
       id="clipPath450-3-9-1"><path
         d="M -32768,32767 H 32767 V -32768 H -32768 Z"
         id="path448-7-3-5"
         inkscape:connector-curvature="0" /></clipPath><clipPath
       clipPathUnits="userSpaceOnUse"
       id="clipPath1222-4-6-7"><path
         d="m 204.39,139.398 h 89.077 V 63.9498 H 204.39 Z"
         id="path1220-6-1-6"
         inkscape:connector-curvature="0" /></clipPath><clipPath
       clipPathUnits="userSpaceOnUse"
       id="clipPath1226-2-2-7"><path
         d="m 292.248,94.351 c -8.301,-8.82 -20.071,-14.35 -33.131,-14.39 -9.289,-0.03 -17.94,2.729 -25.159,7.49 -1.15,0.76 -2.261,1.56 -3.331,2.419 -4.41,3.5 -8.16,7.801 -11.02,12.681 -0.18,0.3 -0.35,0.6 -0.52,0.9 v 0.01 c -0.96,1.74 -1.819,3.56 -2.56,5.43 -1.54,3.91 -2.549,8.08 -2.96,12.44 -0.12,1.35 -0.19,2.72 -0.19,4.109 0,1.68 0.081,3.341 0.25,4.97 0.331,3.102 0.978,6.105 1.895,8.987 -2.362,-2.727 -4.415,-5.73 -6.082,-8.967 -2.53,-4.89 -4.19,-10.3 -4.8,-16.031 -0.17,-1.629 -0.25,-3.289 -0.25,-4.969 0,-1.39 0.07,-2.76 0.19,-4.11 0.41,-4.36 1.42,-8.53 2.96,-12.44 0.74,-1.87 1.6,-3.691 2.56,-5.43 v -0.011 c 0.17,-0.299 0.34,-0.599 0.52,-0.899 2.86,-4.88 6.61,-9.18 11.02,-12.68 1.07,-0.86 2.18,-1.66 3.33,-2.421 7.22,-4.759 15.87,-7.519 25.16,-7.489 13.06,0.04 24.83,5.57 33.13,14.39 0.49,0.52 0.97,1.05 1.43,1.59 3.32,3.89 6,8.34 7.88,13.2 0.329,0.848 0.622,1.708 0.897,2.576 -0.397,-0.458 -0.801,-0.912 -1.219,-1.355"
         id="path1224-8-9-3"
         inkscape:connector-curvature="0" /></clipPath><mask
       maskUnits="userSpaceOnUse"
       x="0"
       y="0"
       width="1"
       height="1"
       id="mask1238-9-31-6"><g
         id="g1248-0-6-9-5"><g
           clip-path="url(#clipPath1230-0-5-8)"
           id="g1246-3-0-4-6"><g
             id="g1244-6-7-7-3"><g
               id="g1242-1-0-8-9"><path
                 d="M -32768,32767 H 32767 V -32768 H -32768 Z"
                 style="fill:url(#linearGradient1236);stroke:none"
                 id="path1240-1-4-4"
                 inkscape:connector-curvature="0" /></g></g></g></g></mask><clipPath
       clipPathUnits="userSpaceOnUse"
       id="clipPath1230-0-5-8"><path
         d="M -32768,32767 H 32767 V -32768 H -32768 Z"
         id="path1228-1-0-1"
         inkscape:connector-curvature="0" /></clipPath><clipPath
       clipPathUnits="userSpaceOnUse"
       id="clipPath1280-6-1-3"><path
         d="m 261.341,144.876 h 21.68 v -18.2 h -21.68 z"
         id="path1278-4-0-9"
         inkscape:connector-curvature="0" /></clipPath><clipPath
       clipPathUnits="userSpaceOnUse"
       id="clipPath1296-5-6-0"><path
         d="m 282.771,122.663 h 8.083 v -8.083 h -8.083 z"
         id="path1294-2-3-8"
         inkscape:connector-curvature="0" /></clipPath><clipPath
       clipPathUnits="userSpaceOnUse"
       id="clipPath1316-0-8-5-8"><path
         d="m 260.187,430.304 h 21.68 v -18.201 h -21.68 z"
         id="path1314-6-7-2-5"
         inkscape:connector-curvature="0" /></clipPath><clipPath
       clipPathUnits="userSpaceOnUse"
       id="clipPath1332-3-4-5-0"><path
         d="m 280.487,406.044 h 8.083 v -8.083 h -8.083 z"
         id="path1330-2-1-4-9"
         inkscape:connector-curvature="0" /></clipPath><clipPath
       clipPathUnits="userSpaceOnUse"
       id="clipPath1428-9-7-6"><path
         d="m 203.457,425.112 h 86.912 v -77.173 h -86.912 z"
         id="path1426-0-0-4-3"
         inkscape:connector-curvature="0" /></clipPath><clipPath
       clipPathUnits="userSpaceOnUse"
       id="clipPath1432-9-4-8"><path
         d="m 270.281,361.997 c -24.175,-7.079 -49.52,6.776 -56.599,30.951 -0.983,3.36 -1.565,6.732 -1.764,10.08 -0.351,5.754 0.399,11.412 2.126,16.722 0.592,1.834 1.305,3.623 2.12,5.362 -4.781,-4.997 -8.381,-11.009 -10.497,-17.569 -1.727,-5.31 -2.477,-10.969 -2.126,-16.722 0.199,-3.348 0.78,-6.721 1.764,-10.08 7.079,-24.175 32.424,-38.031 56.599,-30.952 13.062,3.825 23.102,12.983 28.465,24.404 -5.337,-5.572 -12.151,-9.872 -20.088,-12.196"
         id="path1430-8-3-5"
         inkscape:connector-curvature="0" /></clipPath><mask
       maskUnits="userSpaceOnUse"
       x="0"
       y="0"
       width="1"
       height="1"
       id="mask1444-8-0-6"><g
         id="g1454-5-7-1"><g
           clip-path="url(#clipPath1436-1-4-4)"
           id="g1452-8-8-1"><g
             id="g1450-4-6-5"><g
               id="g1448-3-8-9"><path
                 d="M -32768,32767 H 32767 V -32768 H -32768 Z"
                 style="fill:url(#linearGradient1442);stroke:none"
                 id="path1446-7-8-8"
                 inkscape:connector-curvature="0" /></g></g></g></g></mask><clipPath
       clipPathUnits="userSpaceOnUse"
       id="clipPath1436-1-4-4"><path
         d="M -32768,32767 H 32767 V -32768 H -32768 Z"
         id="path1434-3-3-8"
         inkscape:connector-curvature="0" /></clipPath><clipPath
       clipPathUnits="userSpaceOnUse"
       id="clipPath532-4-62"><path
         d="m 204.389,253.876 h 91.234 V 201.59 h -91.234 z"
         id="path530-1-6-9"
         inkscape:connector-curvature="0" /></clipPath><clipPath
       clipPathUnits="userSpaceOnUse"
       id="clipPath536-7-1"><path
         d="m 295.11,253.877 c -0.102,-0.672 -0.209,-1.342 -0.34,-2.003 -0.8,-4.13 -2.16,-8.07 -4.01,-11.721 -2.17,-4.319 -5.01,-8.25 -8.39,-11.639 -8.01,-8.071 -19.02,-13.17 -31.27,-13.46 -13.04,-0.32 -24.94,4.88 -33.46,13.46 -3.38,3.389 -6.22,7.32 -8.39,11.639 -1.85,3.651 -3.21,7.581 -4.02,11.721 -0.126,0.653 -0.237,1.313 -0.336,1.979 -0.185,-1.249 -0.337,-2.508 -0.414,-3.79 -0.08,-1.309 -0.11,-2.629 -0.08,-3.959 0.06,-2.621 0.35,-5.19 0.83,-7.68 0.81,-4.14 2.17,-8.07 4.02,-11.721 2.17,-4.319 5.01,-8.25 8.39,-11.64 8.52,-8.58 20.42,-13.779 33.46,-13.459 12.25,0.29 23.26,5.39 31.27,13.459 3.38,3.39 6.22,7.321 8.39,11.64 1.85,3.651 3.21,7.591 4.01,11.721 0.63,3.18 0.92,6.479 0.84,9.86 -0.01,0.6 -0.04,1.19 -0.08,1.779 -0.081,1.291 -0.234,2.56 -0.42,3.814"
         id="path534-6-27"
         inkscape:connector-curvature="0" /></clipPath><mask
       maskUnits="userSpaceOnUse"
       x="0"
       y="0"
       width="1"
       height="1"
       id="mask548-0-0"><g
         id="g558-9-9"><g
           clip-path="url(#clipPath540-8-6)"
           id="g556-8-7-3"><g
             id="g554-7-5-6"><g
               id="g552-9-9-06"><path
                 d="M -32768,32767 H 32767 V -32768 H -32768 Z"
                 style="fill:url(#linearGradient546);stroke:none"
                 id="path550-7-2"
                 inkscape:connector-curvature="0" /></g></g></g></g></mask><clipPath
       clipPathUnits="userSpaceOnUse"
       id="clipPath540-8-6"><path
         d="M -32768,32767 H 32767 V -32768 H -32768 Z"
         id="path538-5-1"
         inkscape:connector-curvature="0" /></clipPath><clipPath
       clipPathUnits="userSpaceOnUse"
       id="clipPath598-7-02"><path
         d="m 257.752,285.738 h 21.68 v -18.201 h -21.68 z"
         id="path596-9-3"
         inkscape:connector-curvature="0" /></clipPath><clipPath
       clipPathUnits="userSpaceOnUse"
       id="clipPath614-3-7"><path
         d="m 278.051,261.478 h 8.083 v -8.083 h -8.083 z"
         id="path612-2-7-59"
         inkscape:connector-curvature="0" /></clipPath><clipPath
       clipPathUnits="userSpaceOnUse"
       id="clipPath752-5-6"><path
         d="m 359.108,427.995 h 21.681 v -18.2 h -21.681 z"
         id="path750-5-8"
         inkscape:connector-curvature="0" /></clipPath><clipPath
       clipPathUnits="userSpaceOnUse"
       id="clipPath768-4-9"><path
         d="m 352.406,403.736 h 8.083 v -8.084 h -8.083 z"
         id="path766-9-2"
         inkscape:connector-curvature="0" /></clipPath></defs><sodipodi:namedview
     pagecolor="#ffffff"
     bordercolor="#666666"
     borderopacity="1"
     objecttolerance="10"
     gridtolerance="10"
     guidetolerance="10"
     inkscape:pageopacity="0"
     inkscape:pageshadow="2"
     inkscape:window-width="1920"
     inkscape:window-height="999"
     id="namedview4"
     showgrid="false"
     fit-margin-top="0"
     fit-margin-left="0"
     fit-margin-right="0"
     fit-margin-bottom="0"
     borderlayer="true"
     inkscape:showpageshadow="false"
     inkscape:zoom="6.715515"
     inkscape:cx="139.45823"
     inkscape:cy="111.10977"
     inkscape:window-x="0"
     inkscape:window-y="0"
     inkscape:window-maximized="1"
     inkscape:current-layer="g1082"
     showguides="true"
     inkscape:guide-bbox="true" /><g
     id="g10"
     inkscape:groupmode="layer"
     inkscape:label="ink_ext_XXXXXX"
     transform="matrix(1.3333333,0,0,-1.3333333,-135.73829,353.84933)"><g
       id="g12"
       transform="scale(0.1)"><g
         id="g2308"><path
           style="opacity:1;fill:#f7f7fa;fill-opacity:1;stroke-width:4.58681393"
           d="m 1045.4108,1903.7334 c -125.75274,-284.5815 202.3435,-724.6262 564.1493,-744.9915 311.0786,-17.5101 835.7725,435.9449 564.1492,744.9915 -244.7272,278.4451 -265.3714,807.9024 -564.1492,744.9917 -721.85534,-151.994 -474.159,-541.3414 -564.1493,-744.9917 z"
           id="path6217"
           inkscape:connector-curvature="0"
           sodipodi:nodetypes="sssss" /><path
           inkscape:connector-curvature="0"
           id="path298"
           style="fill:#414355;fill-opacity:1;fill-rule:nonzero;stroke:none"
           d="m 2065.87,2426.43 c -9.22,7.35 -22.64,5.87 -30.01,-3.35 l -28.38,-35.49 c -7.38,-9.23 -5.87,-22.66 3.36,-30.03 l 141.56,-113.13 c 9.22,-7.36 22.67,-5.84 30.04,3.36 l 28.34,35.5 c 7.38,9.21 5.86,22.69 -3.36,30.02 l -141.55,113.12" /><path
           inkscape:connector-curvature="0"
           id="path300"
           style="fill:#279bc7;fill-opacity:1;fill-rule:nonzero;stroke:none"
           d="m 1408.3,1334.07 c 0,0 -7.62,-2.14 -4.12,-13.03 3.52,-10.9 21.7,-40.38 23.23,-42.15 9.35,-10.71 26.77,-0.48 25.75,8.09 -1.34,11.88 -10.89,43.74 -20.68,47.09 h -24.18" /><path
           inkscape:connector-curvature="0"
           id="path302"
           style="fill:#fbc08a;fill-opacity:1;fill-rule:nonzero;stroke:none"
           d="m 1408.3,1327.45 c 0,0 2.53,-5.94 12.07,-5.94 8.01,0 12.11,5.94 12.11,5.94 v 19.88 h -24.18 v -19.88" /><path
           inkscape:connector-curvature="0"
           id="path304"
           style="fill:#279bc7;fill-opacity:1;fill-rule:nonzero;stroke:none"
           d="m 1270.63,1332.21 c 0,0 4.25,-4.43 4.25,-17.81 0,-8.24 -41.49,-24.07 -43.69,-24.99 -14.89,-6.24 -19.78,3.71 -18.76,12.56 1.4,12.26 23.85,26.4 34.29,30.24 h 23.91" /><path
           inkscape:connector-curvature="0"
           id="path306"
           style="fill:#fbc08a;fill-opacity:1;fill-rule:nonzero;stroke:none"
           d="m 1270.91,1327.45 c 0,0 -2.53,-5.94 -12.1,-5.94 -8,0 -12.09,5.94 -12.09,5.94 v 19.88 h 24.19 v -19.88" /><path
           inkscape:connector-curvature="0"
           id="path308"
           style="fill:#848fa9;fill-opacity:1;fill-rule:nonzero;stroke:none"
           d="m 1409.73,1763.97 c 0,0 29,-140.86 36.7,-220.87 4.34,-45.48 -8.73,-198.18 -8.73,-198.18 h -37.74 c 0,0 -12.72,126.99 -24.03,170.62 -25.54,98.62 -62.41,225.72 -62.41,225.72 l -35.16,-396.34 h -38.48 c 0,0 -21.14,135.7 -24.52,181.54 -3.95,53.58 -5.52,237.51 -5.52,237.51 h 199.89" /><path
           inkscape:connector-curvature="0"
           id="path310"
           style="fill:#f8a24b;fill-opacity:1;fill-rule:nonzero;stroke:none"
           d="m 1217.7,1947.85 -43.88,9.23 c 3.91,50.64 17.45,80.67 54.46,103.26 13.67,8.35 58.01,12.5 58.01,12.5 h 44.26 c 0,0 32.27,-3.4 57.58,-3.4 41.65,0 47.86,-2.85 59.21,-8.87 l -0.05,-57.87 -56.42,-11.39 c 0,0 21.45,-167.44 25.81,-224.1 1.03,-13.41 -11.17,-37.93 -37.01,-37.93 -37.03,0 -34.32,12.8 -51.17,23.25 -10.79,6.65 -19.12,11.44 -31.6,11.44 -34.46,0 -40.33,0 -55.53,0 -14.59,0 -26.39,-3.08 -31.53,0 -3.16,1.91 -8.22,40.1 -8.05,43 3.32,61.53 4.16,48.93 15.91,140.92 v -0.04" /><path
           inkscape:connector-curvature="0"
           id="path312"
           style="fill:#fbc08a;fill-opacity:1;fill-rule:nonzero;stroke:none"
           d="m 1286.29,2072.84 h 44.26 v 55.41 h -44.26 v -55.41" /><path
           inkscape:connector-curvature="0"
           id="path314"
           style="fill:#fbc08a;fill-opacity:1;fill-rule:nonzero;stroke:none"
           d="m 1254.95,2157.17 c 0,-29.53 23.92,-53.46 53.48,-53.46 29.52,0 53.45,23.93 53.45,53.46 v 27.88 c 0,29.54 -23.93,53.42 -53.45,53.42 -29.56,0 -53.48,-23.88 -53.48,-53.42 v -27.88" /><path
           inkscape:connector-curvature="0"
           id="path316"
           style="fill:#fbc08a;fill-opacity:1;fill-rule:nonzero;stroke:none"
           d="m 1365.77,2070.11 c 0.31,-2.57 -2.48,-8.75 -6.15,-14.12 -9.45,-13.79 -29.35,-46.46 -51.49,-46.46 -22.13,0 -42.03,32.67 -51.46,46.46 -3.97,5.74 -4.53,9.56 -3.41,12.16 16.03,3.09 32.74,4.69 32.74,4.69 h 44.27 1.4 c 4.21,-0.05 19.21,-1.54 34.1,-2.73" /><path
           inkscape:connector-curvature="0"
           id="path318"
           style="fill:#f89cd2;fill-opacity:1;fill-rule:nonzero;stroke:none"
           d="m 1245.96,2162.65 c 1.98,-5.88 7.14,-9.47 11.5,-7.99 4.37,1.5 6.3,7.43 4.32,13.33 -1.98,5.9 -7.12,9.47 -11.49,8.02 -4.37,-1.49 -6.33,-7.45 -4.33,-13.36" /><path
           inkscape:connector-curvature="0"
           id="path320"
           style="fill:#f89cd2;fill-opacity:1;fill-rule:nonzero;stroke:none"
           d="m 1372.01,2162.65 c -1.97,-5.88 -7.14,-9.47 -11.53,-7.99 -4.37,1.5 -6.29,7.43 -4.31,13.33 1.97,5.9 7.12,9.47 11.51,8.02 4.37,-1.49 6.28,-7.45 4.33,-13.36" /><path
           inkscape:connector-curvature="0"
           id="path322"
           style="fill:#414355;fill-opacity:1;fill-rule:nonzero;stroke:none"
           d="m 1273.85,2241.92 c 52.26,28.67 76.6,-7.99 76.6,-7.99 15.21,0.76 19.94,-16.32 22.33,-36.28 1.18,-9.73 -6.2,-33.12 -6.61,-34.87 -1.45,-6.09 -2.62,-11.3 -4.75,-12.97 l -0.1,-0.16 v 0.11 c -2.97,-2.24 -4.02,-0.88 -5.92,1.33 -5.48,6.27 -5.15,14.52 -8.35,25.23 -1.37,4.58 -2.23,8.99 -2.81,12.91 -1.15,8.2 -13.43,14.45 -22.4,14.62 -8.56,0.12 -22.49,-1.73 -26.92,-3.17 -34.49,-11.24 -33.28,-45.68 -39.87,-46.31 -3.96,-0.34 -5.27,6.69 -7.32,15.85 -4.41,19.98 -10.36,51.68 26.12,71.7" /><path
           inkscape:connector-curvature="0"
           id="path324"
           style="fill:#fbc08a;fill-opacity:1;fill-rule:nonzero;stroke:none"
           d="m 1447.34,2053.85 0.01,-43.4 105.81,-0.84 c 10.54,-1.13 22.58,7.97 23.7,18.51 1.14,10.53 -6.47,19.99 -17.06,21.13 l -112.46,4.6" /><path
           inkscape:connector-curvature="0"
           id="path326"
           style="fill:#fbc08a;fill-opacity:1;fill-rule:nonzero;stroke:none"
           d="m 1545.04,2049.31 c -10.1,-6.24 -13.22,-19.51 -6.97,-29.63 6.29,-10.1 19.57,-13.2 29.63,-6.93 l 106.31,75.15 c 10.11,6.26 32.75,41.35 22.67,35.05 l -151.64,-73.64" /><path
           inkscape:connector-curvature="0"
           id="path328"
           style="fill:#fbc08a;fill-opacity:1;fill-rule:nonzero;stroke:none"
           d="m 1217.7,1947.89 -40.74,8.53 -21.39,-103.31 c -3.02,-10.19 3.77,-23.68 13.88,-26.64 10.18,-3.07 20.88,2.74 23.9,12.93 l 24.35,108.49" /><path
           inkscape:connector-curvature="0"
           id="path330"
           style="fill:#fbc08a;fill-opacity:1;fill-rule:nonzero;stroke:none"
           d="m 1169.07,1865.91 c -11.43,-3.28 -18.02,-15.21 -14.71,-26.62 3.28,-11.44 15.21,-18.01 26.64,-14.71 l 96.32,36.26 c 11.44,3.29 -1.82,31.25 -13.24,27.96 l -95.01,-22.89" /><path
           inkscape:connector-curvature="0"
           id="path332"
           style="fill:#279bc7;fill-opacity:1;fill-rule:nonzero;stroke:none"
           d="m 1359.03,2167.99 c -3.82,-13.28 -0.73,-25.77 6.85,-27.94 7.59,-2.2 16.83,6.79 20.61,20.07 3.84,13.25 0.75,25.79 -6.82,27.96 -7.59,2.16 -16.84,-6.82 -20.64,-20.09" /><path
           inkscape:connector-curvature="0"
           id="path334"
           style="fill:#279bc7;fill-opacity:1;fill-rule:nonzero;stroke:none"
           d="m 1262.78,2167.99 c 3.77,-13.28 0.74,-25.77 -6.85,-27.94 -7.58,-2.2 -16.83,6.79 -20.6,20.07 -3.83,13.25 -0.76,25.79 6.82,27.96 7.58,2.16 16.81,-6.82 20.63,-20.09" /><path
           inkscape:connector-curvature="0"
           id="path336"
           style="fill:#279bc7;fill-opacity:1;fill-rule:nonzero;stroke:none"
           d="m 1380.16,2182.03 c 0.07,1.15 1.34,28.6 -17.17,48.15 -11.73,12.34 -28.58,18.61 -50.15,18.61 -27.17,0 -48.47,-7.85 -61.57,-22.7 -10.09,-11.39 -14.37,-25.95 -12.38,-42.07 l 5.86,0.71 c -1.81,14.41 1.97,27.35 10.91,37.47 11.81,13.37 32.11,20.71 57.18,20.71 19.9,0 35.31,-5.68 45.88,-16.79 16.78,-17.72 15.6,-43.54 15.6,-43.77 l 5.84,-0.32" /><path
           inkscape:connector-curvature="0"
           id="path338"
           style="fill:#414355;fill-opacity:1;fill-rule:nonzero;stroke:none"
           d="m 1234.23,1524.34 c 2.44,0 4.86,1.07 6.49,3.12 l 753.44,940.07 c 2.87,3.6 2.28,8.82 -1.3,11.69 -3.58,2.88 -8.81,2.3 -11.68,-1.28 l -753.43,-940.09 c -2.87,-3.57 -2.3,-8.83 1.28,-11.68 1.54,-1.23 3.39,-1.83 5.2,-1.83" /><path
           inkscape:connector-curvature="0"
           id="path340"
           style="fill:#279bc7;fill-opacity:1;fill-rule:nonzero;stroke:none"
           d="m 1944.6,2474.47 c -0.2,0.05 -21.84,14.47 -40.63,14.58 -7.94,0.07 -15.84,-2.89 -20.32,-11 -2.27,-4.08 -3.05,-9.45 -3.07,-15.99 0.03,-17.67 6.07,-44.31 12.06,-74.88 6,-30.53 11.96,-64.87 11.96,-97.35 0,-33.98 -6.54,-65.78 -26.02,-89.23 -21.08,-25.35 -48.26,-33.09 -79.38,-33.14 -49.38,-0.04 -107.82,20.09 -162.35,20.13 -39.48,0.05 -77.25,-10.8 -107.27,-47.86 -15.67,-19.28 -21.65,-42.42 -21.64,-67.47 0.03,-41.1 15.86,-87.65 31.57,-133.3 15.73,-45.63 31.32,-90.38 31.3,-127.13 -0.03,-23.79 -6.4,-44.02 -23.18,-59.66 -18.32,-17.09 -59.89,-37.88 -104.41,-37.83 -39.42,0.05 -81.16,15.94 -112.65,64.83 -42.3,65.77 -48.19,138.98 -49.93,205.52 -1.8,66.51 0.86,126.27 -25.94,165.26 -0.74,1.08 -2.22,1.35 -3.3,0.6 -1.07,-0.74 -1.34,-2.22 -0.59,-3.3 25.53,-36.76 23.42,-95.97 25.09,-162.68 1.75,-66.69 7.6,-140.96 50.68,-207.97 32.22,-50.21 75.94,-67.06 116.64,-67.01 46.03,0.05 88.2,21.1 107.64,39.1 17.94,16.66 24.72,38.56 24.7,63.14 -0.03,38.06 -15.87,83.03 -31.57,128.67 -15.72,45.62 -31.32,91.88 -31.29,131.76 0.01,24.34 5.73,46.2 20.57,64.48 29.09,35.78 64.88,46.06 103.58,46.11 53.42,0.04 111.77,-20.09 162.35,-20.13 31.83,-0.04 60.94,8.17 83.04,34.85 20.5,24.74 27.11,57.72 27.11,92.26 0,33.05 -6.04,67.65 -12.06,98.27 -6.02,30.58 -11.98,57.29 -11.96,73.96 -0.01,6.13 0.84,10.84 2.46,13.67 3.62,6.38 9.2,8.51 16.18,8.57 8.19,0.02 17.82,-3.39 25.28,-6.87 3.73,-1.74 6.94,-3.48 9.2,-4.79 2.26,-1.3 3.54,-2.14 3.55,-2.14 1.09,-0.72 2.57,-0.42 3.28,0.68 0.73,1.1 0.42,2.57 -0.68,3.29" /><path
           inkscape:connector-curvature="0"
           id="path342"
           style="fill:#414355;fill-opacity:1;fill-rule:nonzero;stroke:none"
           d="m 2116.96,2326.76 c 2.04,0 4.04,0.92 5.39,2.62 2.3,2.97 1.76,7.21 -1.19,9.53 l -180.95,140.71 c -2.93,2.31 -7.23,1.79 -9.52,-1.17 -2.31,-2.97 -1.76,-7.23 1.19,-9.52 l 180.94,-140.73 c 1.24,-0.94 2.71,-1.44 4.14,-1.44" /><path
           inkscape:connector-curvature="0"
           id="path344"
           style="fill:#fbc08a;fill-opacity:1;fill-rule:nonzero;stroke:none"
           d="m 1265.57,1889.08 c 0,0 16.03,24.52 27.06,14.55 3.94,-3.56 12.98,-17.28 11.51,-28.76 -0.53,-4.21 -5.91,-9.7 -9.51,-12.43 0,0 -2.42,1.24 -4.31,-1.19 -1.56,-2.07 -3.44,-1.62 -5.09,-1.73 -3.67,-0.25 -6.83,1.73 -6.83,1.73 l -12.83,27.83" /><path
           inkscape:connector-curvature="0"
           id="path346"
           style="fill:#fbc08a;fill-opacity:1;fill-rule:nonzero;stroke:none"
           d="m 1712.96,2114.92 c 0,0 4.89,18.77 -5.38,15.34 -10.29,-3.44 -29.9,-35.5 -14.97,-38.18 0,0 13.97,3.85 20.35,22.84" /><g
           transform="matrix(7.5000002,0,0,-7.5000002,-3155.8413,3822.9813)"
           id="g2263"><g
             transform="matrix(-0.75604432,-1.3375909,1.3375909,-0.75604432,266.0995,1301.6289)"
             id="g22300" /></g><g
           id="g1082"
           transform="matrix(1.0190807,0,0,1.0190807,-133.36186,-76.893099)"><g
             id="g1029" /></g></g></g></g></svg>