<?xml version="1.0" encoding="utf-8"?>
<!-- Generator: Adobe Illustrator 19.1.0, SVG Export Plug-In . SVG Version: 6.00 Build 0)  -->
<svg version="1.1" id="systeme" xmlns="http://www.w3.org/2000/svg" xmlns:xlink="http://www.w3.org/1999/xlink" x="0px" y="0px"
	 viewBox="-341 342 117 117" style="enable-background:new -341 342 117 117;" xml:space="preserve">
<style type="text/css">
	.st0{fill:#209DCC;}
</style>
<path class="st0" d="M-282.1,344.5c-31,0-56,25.1-56,55.9c0,30.8,25.1,55.9,56,55.9s56-25.1,56-55.9
	C-226.1,369.6-251.1,344.5-282.1,344.5z M-252.8,404.8l-5.9,1.5c-0.6,0.2-1.1,0.6-1.3,1.2c-0.4,1.3-0.9,2.5-1.5,3.7
	c-0.3,0.6-0.3,1.3,0,1.8l3.1,5.2c0.4,0.7,0.3,1.5-0.2,2.1c-1.1,1.4-2.4,2.6-3.8,3.8c-0.6,0.5-1.5,0.6-2.1,0.2l-5.2-3.1
	c-0.6-0.3-1.2-0.3-1.8,0c-1.2,0.6-2.4,1.1-3.7,1.5c-0.6,0.2-1.1,0.7-1.2,1.3l-1.5,5.9c-0.2,0.8-0.8,1.3-1.6,1.4
	c-0.9,0.1-1.8,0.1-2.7,0.1s-1.8-0.1-2.7-0.1c-0.8-0.1-1.4-0.6-1.6-1.4l-1.5-5.9c-0.2-0.6-0.6-1.1-1.2-1.3c-1.3-0.4-2.5-0.9-3.7-1.5
	c-0.6-0.3-1.3-0.3-1.8,0l-5.2,3.1c-0.7,0.4-1.5,0.3-2.1-0.2c-1.4-1.1-2.6-2.4-3.8-3.8c-0.5-0.6-0.6-1.5-0.2-2.1l3.1-5.2
	c0.3-0.6,0.3-1.2,0-1.8c-0.6-1.2-1.1-2.4-1.5-3.7c-0.2-0.6-0.7-1.1-1.3-1.2l-5.9-1.5c-0.8-0.2-1.3-0.8-1.4-1.6
	c-0.1-0.9-0.1-1.8-0.1-2.7s0.1-1.8,0.1-2.7c0.1-0.8,0.6-1.4,1.4-1.6l5.9-1.5c0.6-0.2,1.1-0.6,1.3-1.2c0.4-1.3,0.9-2.5,1.5-3.7
	c0.3-0.6,0.3-1.3,0-1.8l-3.1-5.2c-0.4-0.7-0.3-1.5,0.2-2.1c1.1-1.4,2.4-2.6,3.8-3.8c0.6-0.5,1.5-0.6,2.1-0.2l5.2,3.1
	c0.6,0.3,1.2,0.3,1.8,0c1.2-0.6,2.4-1.1,3.7-1.5c0.6-0.2,1.1-0.7,1.2-1.3l1.5-5.9c0.2-0.8,0.8-1.3,1.6-1.4c0.9-0.1,1.8-0.1,2.7-0.1
	c0.9,0,1.8,0.1,2.7,0.1c0.8,0.1,1.4,0.6,1.6,1.4l1.5,5.9c0.2,0.6,0.6,1.1,1.2,1.3c1.3,0.4,2.5,0.9,3.7,1.5c0.6,0.3,1.3,0.3,1.8,0
	l5.2-3.1c0.7-0.4,1.5-0.3,2.1,0.2c1.4,1.1,2.6,2.4,3.8,3.8c0.5,0.6,0.6,1.5,0.2,2.1l-3.1,5.2c-0.3,0.6-0.3,1.2,0,1.8
	c0.6,1.2,1.1,2.4,1.5,3.7c0.2,0.6,0.7,1.1,1.3,1.2l5.9,1.5c0.8,0.2,1.3,0.8,1.4,1.6c0.1,0.9,0.1,1.8,0.1,2.7s-0.1,1.8-0.1,2.7
	C-251.5,403.9-252.1,404.5-252.8,404.8z"/>
<path class="st0" d="M-282.1,417.7c7.3,0,13.5-4.4,15.3-10.4h-30.6C-295.5,413.3-289.4,417.7-282.1,417.7z"/>
<path class="st0" d="M-271.9,390.9c-3.1,0-5.6,2.5-5.6,5.6c0,3.1,2.5,5.6,5.6,5.6c3.1,0,5.6-2.5,5.6-5.6
	C-266.3,393.4-268.8,390.9-271.9,390.9z M-271.9,399.1c-1.4,0-2.6-1.2-2.6-2.6c0-1.4,1.2-2.6,2.6-2.6c1.4,0,2.6,1.2,2.6,2.6
	C-269.3,397.9-270.5,399.1-271.9,399.1z"/>
<path class="st0" d="M-292.5,402.1c3.1,0,5.6-2.5,5.6-5.6c0-3.1-2.6-5.6-5.6-5.6c-3.1,0-5.6,2.5-5.6,5.6
	C-298.1,399.6-295.6,402.1-292.5,402.1z M-292.5,393.9c1.4,0,2.6,1.2,2.6,2.6c0,1.4-1.2,2.6-2.6,2.6c-1.4,0-2.6-1.2-2.6-2.6
	C-295.1,395.1-294,393.9-292.5,393.9z"/>
</svg>
