<?xml version="1.0" encoding="UTF-8" standalone="no"?>
<!-- Created with Inkscape (http://www.inkscape.org/) -->

<svg
   xmlns:dc="http://purl.org/dc/elements/1.1/"
   xmlns:cc="http://creativecommons.org/ns#"
   xmlns:rdf="http://www.w3.org/1999/02/22-rdf-syntax-ns#"
   xmlns:svg="http://www.w3.org/2000/svg"
   xmlns="http://www.w3.org/2000/svg"
   xmlns:xlink="http://www.w3.org/1999/xlink"
   xmlns:sodipodi="http://sodipodi.sourceforge.net/DTD/sodipodi-0.dtd"
   xmlns:inkscape="http://www.inkscape.org/namespaces/inkscape"
   width="100"
   height="100"
   viewBox="0 0 26.458333 26.458334"
   version="1.1"
   id="svg8"
   sodipodi:docname="timeline.svg"
   inkscape:version="0.92.4 (5da689c313, 2019-01-14)">
  <defs
     id="defs2">
    <linearGradient
       id="linearGradient917"
       inkscape:collect="always">
      <stop
         id="stop913"
         offset="0"
         style="stop-color:#2c2c2c;stop-opacity:0" />
      <stop
         id="stop915"
         offset="1"
         style="stop-color:#242424;stop-opacity:0" />
    </linearGradient>
    <radialGradient
       inkscape:collect="always"
       xlink:href="#linearGradient917"
       id="radialGradient911"
       gradientUnits="userSpaceOnUse"
       gradientTransform="matrix(2.0000002,0,0,2.0000004,0,-297.00055)"
       cx="13.229165"
       cy="297.00021"
       fx="13.229165"
       fy="297.00021"
       r="13.229165" />
    <filter
       inkscape:collect="always"
       style="color-interpolation-filters:sRGB"
       id="filter876"
       x="-0.044437475"
       width="1.0888749"
       y="-0.030255331"
       height="1.0605107">
      <feGaussianBlur
         inkscape:collect="always"
         stdDeviation="0.20831161"
         id="feGaussianBlur878" />
    </filter>
  </defs>
  <sodipodi:namedview
     id="base"
     pagecolor="#ffffff"
     bordercolor="#666666"
     borderopacity="1.0"
     inkscape:pageopacity="0.0"
     inkscape:pageshadow="2"
     inkscape:zoom="3.959798"
     inkscape:cx="-35.43353"
     inkscape:cy="70.481723"
     inkscape:document-units="px"
     inkscape:current-layer="layer1"
     showgrid="false"
     units="px"
     borderlayer="true"
     inkscape:showpageshadow="false"
     inkscape:window-width="1274"
     inkscape:window-height="989"
     inkscape:window-x="0"
     inkscape:window-y="0"
     inkscape:window-maximized="0">
    <sodipodi:guide
       position="0,0"
       orientation="0,100"
       id="guide815"
       inkscape:locked="false" />
    <sodipodi:guide
       position="26.458333,0"
       orientation="-100,0"
       id="guide817"
       inkscape:locked="false" />
    <sodipodi:guide
       position="26.458333,26.458333"
       orientation="0,-100"
       id="guide819"
       inkscape:locked="false" />
    <sodipodi:guide
       position="0,26.458333"
       orientation="100,0"
       id="guide821"
       inkscape:locked="false" />
  </sodipodi:namedview>
  <metadata
     id="metadata5">
    <rdf:RDF>
      <cc:Work
         rdf:about="">
        <dc:format>image/svg+xml</dc:format>
        <dc:type
           rdf:resource="http://purl.org/dc/dcmitype/StillImage" />
        <dc:title></dc:title>
      </cc:Work>
    </rdf:RDF>
  </metadata>
  <g
     inkscape:label="Calque 1"
     inkscape:groupmode="layer"
     id="layer1"
     transform="translate(0,-270.54165)">
    <text
       xml:space="preserve"
       style="font-style:normal;font-weight:normal;font-size:10.58333302px;line-height:1.25;font-family:sans-serif;letter-spacing:0px;word-spacing:0px;fill:#000000;fill-opacity:1;stroke:none;stroke-width:0.26458332"
       x="42.144341"
       y="340.08926"
       id="text851"><tspan
         sodipodi:role="line"
         id="tspan849"
         x="42.144341"
         y="349.45303"
         style="stroke-width:0.26458332" /><tspan
         sodipodi:role="line"
         x="42.144341"
         y="362.68219"
         style="stroke-width:0.26458332"
         id="tspan853" /></text>
    <rect
       style="opacity:1;fill:#ecbe30;fill-opacity:1;stroke:none;stroke-width:0.13229166;stroke-linecap:round;stroke-linejoin:round;stroke-miterlimit:4;stroke-dasharray:none;stroke-dashoffset:0;stroke-opacity:1"
       id="rect865"
       width="26.458332"
       height="26.458332"
       x="0"
       y="270.54166" />
    <path
       inkscape:connector-curvature="0"
       d="m 17.647689,288.52453 q 0.878964,0 1.494223,0.61526 0.615261,0.61527 0.615261,1.49423 0,0.87896 -0.615261,1.49422 -0.615259,0.61526 -1.494223,0.61526 -1.40632,0 -1.933702,-1.30086 H 12.83103 q -1.546954,0 -2.302846,-0.94925 -0.7558924,-0.94926 -0.7558924,-2.07434 v -8.15666 q -1.2656888,-0.59768 -1.2656888,-1.9337 0,-0.87897 0.6152596,-1.49422 0.6152597,-0.61526 1.4942226,-0.61526 0.878962,0 1.494222,0.61526 0.61526,0.61525 0.61526,1.49422 0,1.336 -1.26569,1.9337 v 2.004 q 0,1.37117 1.371175,1.37117 h 2.882958 q 0.527382,-1.26569 1.933702,-1.26569 0.878964,0 1.494224,0.61526 0.615258,0.61526 0.615258,1.49422 0,0.87896 -0.615258,1.49422 -0.61526,0.61526 -1.494224,0.61526 -1.40632,0 -1.933702,-1.30083 h -2.882958 q -0.738308,0 -1.371175,-0.28126 v 3.41031 q 0,1.37117 1.371175,1.37117 h 2.882958 q 0.527382,-1.26569 1.933702,-1.26569 z m 0,-5.27372 q -0.492212,0 -0.861376,0.35158 -0.369166,0.35158 -0.369166,0.87896 0,0.49222 0.369166,0.8438 0.369164,0.35157 0.861376,0.35157 0.492213,0 0.861379,-0.35157 0.369165,-0.35158 0.369165,-0.8438 0,-0.52738 -0.369165,-0.87896 -0.369166,-0.35158 -0.861379,-0.35158 z m -8.2621469,-4.92212 q 0,0.49221 0.3691647,0.84379 0.3691652,0.35158 0.8613782,0.35158 0.492212,0 0.861377,-0.35158 0.369165,-0.35158 0.369165,-0.84379 0,-0.52738 -0.369165,-0.87897 -0.369165,-0.35158 -0.861377,-0.35158 -0.492213,0 -0.8613782,0.35158 -0.3691647,0.35159 -0.3691647,0.87897 z m 8.2621469,13.5007 q 0.492213,0 0.861379,-0.35158 0.369165,-0.35158 0.369165,-0.84379 0,-0.52739 -0.369165,-0.87896 -0.369166,-0.35158 -0.861379,-0.35158 -0.492212,0 -0.861376,0.35158 -0.369166,0.35157 -0.369166,0.87896 0,0.49221 0.369166,0.84379 0.369164,0.35158 0.861376,0.35158 z"
       id="path5-3"
       style="fill:#000000;stroke-width:0.02286701;filter:url(#filter876);opacity:0.15" />
    <path
       inkscape:connector-curvature="0"
       d="m 17.118523,287.99536 q 0.878962,0 1.494221,0.61526 0.615261,0.61527 0.615261,1.49423 0,0.87896 -0.615261,1.49422 -0.615259,0.61526 -1.494221,0.61526 -1.406321,0 -1.933703,-1.30086 h -2.882957 q -1.546954,0 -2.3028459,-0.94925 -0.7558921,-0.94926 -0.7558921,-2.07434 v -8.15666 q -1.2656888,-0.59768 -1.2656888,-1.9337 0,-0.87897 0.6152596,-1.49422 0.6152597,-0.61526 1.4942222,-0.61526 0.878962,0 1.494222,0.61526 0.61526,0.61525 0.61526,1.49422 0,1.336 -1.26569,1.9337 v 2.004 q 0,1.37117 1.371175,1.37117 h 2.882958 q 0.527382,-1.26569 1.933702,-1.26569 0.878963,0 1.494223,0.61526 0.615259,0.61526 0.615259,1.49422 0,0.87896 -0.615259,1.49422 -0.61526,0.61526 -1.494223,0.61526 -1.40632,0 -1.933702,-1.30083 h -2.882958 q -0.738308,0 -1.371175,-0.28126 v 3.41031 q 0,1.37117 1.371175,1.37117 h 2.882958 q 0.527382,-1.26569 1.933702,-1.26569 z m 0,-5.27372 q -0.492213,0 -0.861377,0.35158 -0.369166,0.35158 -0.369166,0.87896 0,0.49222 0.369166,0.8438 0.369164,0.35157 0.861377,0.35157 0.492212,0 0.861377,-0.35157 0.369165,-0.35158 0.369165,-0.8438 0,-0.52738 -0.369165,-0.87896 -0.369165,-0.35158 -0.861377,-0.35158 z m -8.2621474,-4.92212 q 0,0.49221 0.3691646,0.84379 0.3691651,0.35158 0.8613778,0.35158 0.492212,0 0.861377,-0.35158 0.369165,-0.35158 0.369165,-0.84379 0,-0.52738 -0.369165,-0.87897 -0.369165,-0.35158 -0.861377,-0.35158 -0.4922127,0 -0.8613778,0.35158 -0.3691646,0.35159 -0.3691646,0.87897 z m 8.2621474,13.5007 q 0.492212,0 0.861377,-0.35158 0.369165,-0.35158 0.369165,-0.84379 0,-0.52739 -0.369165,-0.87896 -0.369165,-0.35158 -0.861377,-0.35158 -0.492213,0 -0.861377,0.35158 -0.369166,0.35157 -0.369166,0.87896 0,0.49221 0.369166,0.84379 0.369164,0.35158 0.861377,0.35158 z"
       id="path5"
       style="fill:#ffffff;stroke-width:0.02286701" />
  </g>
</svg>
