<svg width="100" height="100" viewBox="0 0 100 100" fill="none" xmlns="http://www.w3.org/2000/svg">
<g clip-path="url(#clip0_7989_4511)">
<path d="M100 100V2.31266e-05L0 0V100H100Z" fill="#823AA1"/>
<path d="M35.1351 58.4561C32.3803 58.4561 29.9828 58.7602 28.0311 59.1362C26.9682 59.341 25.9405 58.6453 25.7357 57.5824C25.531 56.5195 26.2266 55.4918 27.2896 55.287C29.4424 54.8722 32.0909 54.5361 35.1351 54.5361C38.2326 54.5361 40.9353 54.8715 43.1249 55.2858C44.1885 55.487 44.8876 56.5123 44.6864 57.5759C44.4851 58.6396 43.4598 59.3387 42.3962 59.1374C40.4059 58.7609 37.9497 58.4561 35.1351 58.4561Z" fill="white"/>
<path d="M28.0311 43.4898C29.9828 43.1138 32.3803 42.8097 35.1351 42.8097C37.9497 42.8097 40.4059 43.1145 42.3962 43.491C43.4598 43.6923 44.4851 42.9932 44.6864 41.9296C44.8876 40.866 44.1885 39.8406 43.1249 39.6394C40.9354 39.2252 38.2326 38.8897 35.1351 38.8897C32.0909 38.8897 29.4424 39.2259 27.2896 39.6406C26.2266 39.8454 25.531 40.8731 25.7357 41.936C25.9405 42.9989 26.9682 43.6946 28.0311 43.4898Z" fill="white"/>
<path fill-rule="evenodd" clip-rule="evenodd" d="M65.2298 22.001C71.9644 21.9621 77.5501 23.0326 81.5001 24.0834C82.3834 24.3184 82.9982 25.1181 82.9982 26.0321V30.861H84.0884C85.1442 30.861 86 31.7168 86 32.7726V78.8639C86 79.4544 85.7271 80.0117 85.2608 80.3738C84.7944 80.7359 84.1869 80.8622 83.6148 80.7159C79.6142 79.6929 73.7203 78.6122 66.5412 78.6855L66.5376 78.6855C59.925 78.7405 54.4502 79.7481 50.6299 80.7169C50.3689 80.7831 50.0968 80.7934 49.8315 80.7471C45.495 79.9905 40.1028 79.3624 33.8961 79.3069C26.9318 79.2514 20.9469 79.9349 16.2366 80.7477C15.681 80.8435 15.1114 80.6892 14.6802 80.326C14.2489 79.9628 14 79.4277 14 78.8639V32.7726C14 31.7168 14.8559 30.861 15.9116 30.861H17.2277V26.0321C17.2277 25.1024 17.8634 24.2932 18.7666 24.073C22.6691 23.1216 27.8703 22.229 34.022 22.1706C40.5105 22.0962 45.9955 22.9884 50.0812 23.953C53.8977 22.967 59.0663 22.0383 65.2298 22.001ZM48.0871 27.6357C44.379 26.8278 39.6122 26.1395 34.0663 26.2032L34.0622 26.2033C29.0529 26.2507 24.7144 26.8866 21.2607 27.6366V72.8107C24.8647 72.13 29.1576 71.6006 34.0172 71.5381C39.6815 71.4587 44.2169 72.0465 48.0871 72.8023V27.6357ZM52.12 72.6753C55.6772 71.8495 60.3645 71.151 65.3546 71.105C70.7661 71.0586 75.397 71.7957 78.9653 72.6585V27.6035C77.438 27.2403 75.7047 26.8936 73.7894 26.6188V44.9356C73.7894 46.0088 72.6785 46.7055 71.7183 46.2348L67.4819 44.1825C67.0677 43.9754 66.597 43.9754 66.1828 44.2013L62.6242 46.103C61.664 46.6113 60.4967 45.9147 60.4967 44.8227V26.254C57.2824 26.533 54.4635 27.0441 52.12 27.602V72.6753Z" fill="white"/>
</g>
<defs>
<clipPath id="clip0_7989_4511">
<rect width="100" height="100" fill="white"/>
</clipPath>
</defs>
</svg>
