<svg id="Calque_1" data-name="Calque 1" xmlns="http://www.w3.org/2000/svg" viewBox="0 0 97.34 46.82">
  <defs>
    <style>
      .cls-1 {
        fill: #2e4e9d;
      }

      .cls-2 {
        fill: #e83d57;
      }

      .cls-3 {
        fill: #fff;
      }
    </style>
  </defs>
  <g>
    <path class="cls-1" d="M86.64,33.94v.56c0,1,.34,1.63,1,1.86a11.27,11.27,0,0,0,2.42.2v3.88c-.42,0-.7,0-1.12,0Q84,40.46,82.51,37A7,7,0,0,1,82,35.07a6.27,6.27,0,0,1,0-.73v-15l4.64-.82Z" transform="translate(-81.67 -7.48)"/>
    <path class="cls-1" d="M98.23,32.05H92.08V28.47h6.15Z" transform="translate(-81.67 -7.48)"/>
  </g>
  <g>
    <path class="cls-1" d="M139.41,18.94h4.83v21.2h-4.83v-.65a8.93,8.93,0,0,1-4,.93,7.44,7.44,0,0,1-5.45-2.2,7.75,7.75,0,0,1-2.22-5.73A7.73,7.73,0,0,1,130,26.73a7.6,7.6,0,0,1,5.48-2.17,8.93,8.93,0,0,1,4,.93Zm0,16.14v-5.2a4.72,4.72,0,0,0-3.07-1,3.59,3.59,0,0,0-3.79,3.65,3.5,3.5,0,0,0,3.79,3.63A4.77,4.77,0,0,0,139.41,35.08Z" transform="translate(-81.67 -7.48)"/>
    <path class="cls-1" d="M157.26,24.84h4.86v15.3h-4.86v-.71a6.55,6.55,0,0,1-3.49,1q-3.54,0-5.06-1.63c-1-1.1-1.49-2.95-1.49-5.51V24.84h4.84v8.41c0,2,.79,2.87,2.58,2.87a3.82,3.82,0,0,0,2.62-.93Z" transform="translate(-81.67 -7.48)"/>
    <path class="cls-1" d="M179,37.18a7.35,7.35,0,0,1-6,3.21,8.39,8.39,0,0,1-6-2.31,7.66,7.66,0,0,1,0-11.21,8.39,8.39,0,0,1,6-2.31A7.51,7.51,0,0,1,179,27.71l-3.1,2.87a3.24,3.24,0,0,0-3-1.74,3.53,3.53,0,0,0-2.58,1.06,3.63,3.63,0,0,0,0,5.15,3.54,3.54,0,0,0,2.58,1.07,3.23,3.23,0,0,0,3-1.75Z" transform="translate(-81.67 -7.48)"/>
  </g>
  <g>
    <path class="cls-1" d="M86.67,45.07h2.08v9.1H86.67v-.28a3.76,3.76,0,0,1-1.7.4,3.19,3.19,0,0,1-2.34-.94,3.67,3.67,0,0,1,0-4.94A3.29,3.29,0,0,1,85,47.48a3.89,3.89,0,0,1,1.7.4Zm0,6.93V49.76a2,2,0,0,0-1.31-.44,1.54,1.54,0,0,0-1.63,1.57,1.5,1.5,0,0,0,1.63,1.55A2,2,0,0,0,86.67,52Z" transform="translate(-81.67 -7.48)"/>
    <path class="cls-1" d="M96.37,51.47h-4.5a1.55,1.55,0,0,0,1.53,1.14,1.9,1.9,0,0,0,1.46-.79l1.3,1.07a3.56,3.56,0,0,1-3,1.39,3.3,3.3,0,0,1-3.38-3.39,3.31,3.31,0,0,1,1-2.42,3.24,3.24,0,0,1,2.43-1,2.94,2.94,0,0,1,2.34,1A3.76,3.76,0,0,1,96.38,51Zm-2-1.21a1.1,1.1,0,0,0-1.23-1.16,1.39,1.39,0,0,0-1.31,1.16Z" transform="translate(-81.67 -7.48)"/>
    <path class="cls-1" d="M107.16,45.66h2.15v8.51h-1l-4.71-4.66v4.66h-2.13V45.66h1l4.71,4.66Z" transform="translate(-81.67 -7.48)"/>
    <path class="cls-1" d="M115.11,45.55a4.41,4.41,0,0,1,3.21,1.28,4.25,4.25,0,0,1,0,6.18,4.44,4.44,0,0,1-3.21,1.27A4.5,4.5,0,0,1,111.89,53a4.25,4.25,0,0,1,0-6.18A4.47,4.47,0,0,1,115.11,45.55Zm0,6.76a2.24,2.24,0,0,0,1.67-.7,2.41,2.41,0,0,0,0-3.38,2.33,2.33,0,0,0-3.33,0,2.41,2.41,0,0,0,0,3.38A2.23,2.23,0,0,0,115.11,52.31Z" transform="translate(-81.67 -7.48)"/>
    <path class="cls-1" d="M126,54.17l-1.46-2h-1.48v2H121V45.66h3.91a3.37,3.37,0,0,1,2.62.91,3.2,3.2,0,0,1,.83,2.26,3,3,0,0,1-1.63,3l1.9,2.38Zm-2.94-6.7v3h1.21c1.21,0,1.78-.63,1.78-1.49a1.41,1.41,0,0,0-1.57-1.52Z" transform="translate(-81.67 -7.48)"/>
    <path class="cls-1" d="M137.45,45.66h1v8.51h-2.15V50.3l-2.3,3-2.31-3v3.87h-2.13V45.66h1L134,50.13Z" transform="translate(-81.67 -7.48)"/>
    <path class="cls-1" d="M146.42,54.17l-.68-1.5h-3.46l-.67,1.5h-2.24l4.13-8.51h1l4.14,8.51ZM144,48.79l-1,2.12H145Z" transform="translate(-81.67 -7.48)"/>
    <path class="cls-1" d="M155.28,45.66h2.15v8.51h-1l-4.71-4.66v4.66h-2.13V45.66h1l4.71,4.66Z" transform="translate(-81.67 -7.48)"/>
    <path class="cls-1" d="M165.72,52.9a3.7,3.7,0,0,1-2.82,1.27H159V45.66h3.61a4.28,4.28,0,0,1,4.28,4.26A4.19,4.19,0,0,1,165.72,52.9Zm-4.64-.66h1.63a1.89,1.89,0,0,0,1.47-.69,2.36,2.36,0,0,0,.61-1.63,2.33,2.33,0,0,0-.64-1.64,2,2,0,0,0-1.53-.69h-1.54Z" transform="translate(-81.67 -7.48)"/>
    <path class="cls-1" d="M170.38,45.66v8.51h-2.15V45.66Z" transform="translate(-81.67 -7.48)"/>
    <path class="cls-1" d="M174.09,52.36h4.67v1.81H172V45.66h6.49v1.81h-4.41v1.69h3.67v1.76h-3.67Z" transform="translate(-81.67 -7.48)"/>
  </g>
  <polyline class="cls-2" points="21 8.32 33.1 3.41 29.86 0"/>
  <path class="cls-3" d="M124.34,24.05l-17.07,8.88A8.06,8.06,0,0,0,112,35.78,8.45,8.45,0,0,0,121.93,29l4.47.93a13.74,13.74,0,0,1-7.56,9.61,12.07,12.07,0,0,1-9.8.91,12.61,12.61,0,0,1-7.35-6.4,12.63,12.63,0,0,1-1-9.74A12.11,12.11,0,0,1,107,16.79a11.11,11.11,0,0,1,9.43-.83,13.4,13.4,0,0,1,7.24,6.77Zm-18.77,5.42,12.36-6.42c-2-3.13-5.17-4.39-8.91-2.44A7.31,7.31,0,0,0,105.57,29.47Z" transform="translate(-81.67 -7.48)"/>
</svg>
