<?xml version="1.0" encoding="UTF-8"?>
<!-- Generator: Adobe Illustrator 23.0.6, SVG Export Plug-In . SVG Version: 6.00 Build 0)  -->
<svg version="1.1" id="Calque_1" xmlns="http://www.w3.org/2000/svg" xmlns:xlink="http://www.w3.org/1999/xlink" x="0px" y="0px" viewBox="0 0 1352.8 439" style="enable-background:new 0 0 1352.8 439;" xml:space="preserve">
<style type="text/css">
	.st0{fill:#FFFFFF;}
	.st1{fill:#1D1D1B;}
	.st2{fill:#009FE3;}
	.st3{fill:#0F4496;}
</style>
<title>numeroFichier 3</title>
<rect y="0" class="st0" width="1354.8" height="439"/>
<g>
	<path id="N" class="st1" d="M90.7,286.1c0-1.2,0.4-2.3,1.3-3.1c0.8-0.8,1.9-1.3,3.1-1.3c1.2,0,2.3,0.5,3.1,1.3   c0.8,0.8,1.3,1.9,1.3,3.1v8.2c8.7-8.4,17.9-12.5,27.8-12.5c20.2,0.1,36.6,16.5,36.6,36.7v38c0,1.2-0.5,2.3-1.3,3.1   c-0.8,0.8-2,1.3-3.1,1.3c-1.2,0-2.3-0.5-3.1-1.3c-0.8-0.8-1.3-1.9-1.3-3.1v-38.1c0.1-7.4-2.8-14.5-8.2-19.6   c-5.1-5.4-12.2-8.3-19.6-8.2c-7.4-0.1-14.6,2.9-19.8,8.2c-5.3,5.1-8.3,12.2-8.1,19.6v38c0,1.2-0.4,2.3-1.3,3.1   c-0.8,0.8-1.9,1.3-3.1,1.3c-1.2,0-2.3-0.4-3.1-1.3c-0.8-0.8-1.3-1.9-1.3-3.1L90.7,286.1z"/>
	<path id="E" class="st1" d="M243.2,338.1c1.1-0.3,2.3-0.2,3.4,0.3c1,0.5,1.8,1.5,2.1,2.6c0.3,1.1,0.3,2.2-0.2,3.2   c-11.7,18.5-36.2,24-54.7,12.4c-18.5-11.7-24-36.2-12.4-54.7c11.7-18.5,36.2-24,54.7-12.4c8,5.1,14,12.8,16.7,21.9   c0.4,1.1,0.3,2.3-0.3,3.4c-0.5,1-1.4,1.8-2.6,2.1l-63,19.3c3,5.9,7.8,10.8,13.6,14c7.2,4,15.6,4.8,23.4,2.2c3.5-1,6.8-2.7,9.7-4.9   c2.8-2.2,5.2-4.8,7.1-7.8C241.4,339,242.2,338.4,243.2,338.1z M243.1,310.1c-3-5.9-7.7-10.8-13.5-14c-15-8-33.6-2.3-41.5,12.7   c0,0,0,0,0,0.1c-3,5.9-4.2,12.6-3.4,19.2L243.1,310.1z"/>
	<g id="O">
		<path id="path6" class="st1" d="M302.2,361.3c-22.1-0.3-39.7-18.5-39.3-40.6c0.3-21.6,17.7-39,39.3-39.3c5.9,0,11.8,1.3,17.1,3.9    c2.5,1.2,3.6,4.2,2.4,6.7s-4.2,3.6-6.7,2.4c-14.9-7.1-32.7-0.8-39.8,14.1s-0.8,32.7,14.1,39.8c14.9,7.1,32.7,0.8,39.8-14.1    c1.9-4,2.9-8.4,2.9-12.8c0.1-2.6-0.2-5.3-1-7.8c-0.9-2.6,0.6-5.5,3.2-6.3s5.5,0.6,6.3,3.2c1.1,3.5,1.6,7.1,1.5,10.8    c0.1,22-17.7,40-39.7,40.1C302.3,361.3,302.3,361.3,302.2,361.3z"/>
	</g>
	<circle id="bulle" class="st2" cx="329.7" cy="298.1" r="5.3"/>
</g>
<g>
	<path class="st3" d="M184.3,96.1v28.5h-58.1v14.9H168v28h-41.9v18.3h58.2v28.5H93.7V96.1H184.3z"/>
	<path class="st3" d="M240.6,96.1c13.4,22.7,26.6,46.5,39,70.4V96.1h32v118.2h-40.2c-13.2-24.4-27.1-48.7-41.2-72.4v72.4h-31.5V96.1   H240.6z"/>
	<path class="st3" d="M418.9,96.1v28.5h-31.9v89.7h-32.6v-89.7h-30.5V96.1H418.9z"/>
	<g>
		<path class="st3" d="M505.3,216.3v-55.9h-34.5v55.9h-14.5V97.5h14.6v48h34.5v-48h14.4v118.8L505.3,216.3z"/>
		<path class="st3" d="M583,211.5c-7.2,4.4-18.5,7.2-26.6,7.2c-17.3,0-24.6-6.3-24.6-28.8c0-24,9.7-28.1,23.6-28.1    c4.8-0.1,9.5,0.5,14.1,1.9c-0.2-18.2-2.7-23-14.1-23c-6,0-11.9,1.5-17.2,4.3l-3.9-13.3c7.3-2.8,15-4.1,22.8-4.1    c18,0,25.7,7.3,25.7,33.4V211.5z M546.3,189c0,15.2,2.4,17.6,11.5,17.6c4.1,0.1,8.2-0.9,11.8-2.7v-29c-3.8-1.2-7.8-1.7-11.8-1.5    C549.2,173.3,546.3,174.9,546.3,189z"/>
		<path class="st3" d="M631.7,129.9h13.8v81.2c-8.2,4.7-17.4,7.3-26.9,7.5c-17,0-24.1-9-24.1-40.3v-48.5h13.8v46.3    c0,24.5,2.7,28.6,12.9,28.6c3.6,0.1,7.2-0.7,10.5-2.2L631.7,129.9z"/>
		<path class="st3" d="M674.1,186.5c0,14.1,2.8,18.4,8.4,18.4c3.8,0,7.6-0.9,11-2.7l3.1,13.6c-5.1,1.9-10.6,2.8-16,2.9    c-13.7,0-20.2-5.6-20.2-31.2v-44.1h-9.9v-13.5h9.9v-16.6l13.8-6.1v22.7h20.1v13.5h-20.1V186.5z"/>
		<path class="st3" d="M725.1,140.1c-7.4,0-11.2,1.9-11.2,13.5c0,7.7,2.9,10.7,12,11.9c15.7,2.1,21.7,9,21.7,25.4    c0,21.5-9.1,27.8-24.9,27.8c-7.7-0.2-15.3-1.7-22.5-4.3l3.9-13.3c5.6,3.1,11.9,4.8,18.3,5.1c7.9,0,11.3-2.2,11.3-14.1    c0-8.4-2.3-12.1-12-13.3c-13.8-1.7-21.7-7.7-21.7-23.9c0-21.3,9.7-27.4,25.3-27.4c7.2,0,14.3,1.4,20.9,4.2    c-1.1,4.3-2.4,8.3-3.6,12.8C737.2,141.7,731.2,140.2,725.1,140.1z"/>
		<path class="st3" d="M753.2,161.8h28.5v14.1h-28.5V161.8z"/>
		<path class="st3" d="M827.9,132.5V93.2h13.6v118.6c-6.5,4.1-18,6.8-26.2,6.8c-19.6,0-27.7-10.2-27.7-45.7    c0-35.1,8.1-45.5,26.1-45.5C820.3,127.5,824.6,129.4,827.9,132.5z M827.9,202.9v-51.6c0-7-5.2-10.2-12-10.2    c-10.7,0-13.8,6.5-13.8,31.9c0,27.9,3.2,32.5,13.9,32.5C820.1,205.5,824.1,204.7,827.9,202.9L827.9,202.9z"/>
		<path class="st3" d="M904.9,175.9h-38.8c0.2,24,4.7,29.7,15.4,29.7c6.1-0.1,12-1.5,17.5-4.1l3.6,13.3c-7.2,2.5-14.7,3.8-22.3,3.9    c-18.8,0-28.6-10.6-28.6-46c0-34.2,9.5-45.2,27.7-45.2C898,127.5,904.9,136.9,904.9,175.9z M866.2,163.8h24.9    c0-19.3-2.6-23.9-11.5-23.9C870.3,139.9,866.9,145.7,866.2,163.8z"/>
		<path class="st3" d="M909.6,161.8h28.5v14.1h-28.5V161.8z"/>
		<path class="st3" d="M1005.4,97.5v13.8h-42.6v41.2h30.9v13.6h-30.9v50.1h-14.6V97.5H1005.4z"/>
		<path class="st3" d="M1040.9,128.2v15.3c-2.4-0.5-4.8-0.8-7.3-0.8c-8.1,0-14.3,3.9-14.3,11.1v62.5h-13.6v-86.4h13.6v6    c2.9-4.3,7.6-8.4,14.6-8.4C1036.3,127.5,1038.6,127.7,1040.9,128.2z"/>
		<path class="st3" d="M1094.2,211.5c-7.2,4.4-18.5,7.2-26.5,7.2c-17.3,0-24.6-6.3-24.6-28.8c0-24,9.7-28.1,23.6-28.1    c4.8-0.1,9.5,0.5,14.1,1.9c-0.2-18.2-2.7-23-14.1-23c-6,0-11.9,1.5-17.2,4.3l-3.9-13.3c7.3-2.8,15-4.1,22.8-4.1    c18,0,25.7,7.3,25.7,33.4V211.5z M1057.4,189c0,15.2,2.4,17.6,11.5,17.6c4.1,0.1,8.2-0.9,11.8-2.7v-29c-3.8-1.2-7.8-1.7-11.8-1.5    C1060.3,173.3,1057.4,174.9,1057.4,189L1057.4,189z"/>
		<path class="st3" d="M1119.4,143.5v72.8h-13.7V135c8.2-4.6,17.4-7.2,26.9-7.5c17.2,0,24.1,8.9,24.1,40.4v48.4h-13.8v-46.2    c0-23.3-2.9-28.8-12.6-28.8C1126.5,141.3,1122.8,142.1,1119.4,143.5z"/>
		<path class="st3" d="M1214.9,214.6c-5,2.7-13.3,4.1-18.8,4.1c-19.1,0-29.3-10.6-29.3-46s10.5-45.2,29.3-45.2    c5.5,0,13.9,1.2,18.8,3.6l-4.2,14.2c-4.3-2.7-9.2-4.1-14.2-4.1c-10.7,0-15.1,4.4-15.1,31.9c0,26.1,4.3,32,15.1,32    c5.1-0.1,10-1.6,14.2-4.4L1214.9,214.6z"/>
		<path class="st3" d="M1271.1,175.9h-38.8c0.2,24,4.7,29.7,15.4,29.7c6.1-0.1,12-1.5,17.5-4.1l3.6,13.3c-7.2,2.5-14.7,3.8-22.3,3.9    c-18.7,0-28.6-10.6-28.6-46c0-34.2,9.5-45.2,27.7-45.2C1264.1,127.5,1271.1,136.9,1271.1,175.9z M1232.4,163.8h24.9    c0-19.3-2.6-23.9-11.5-23.9C1236.4,139.9,1233,145.7,1232.4,163.8L1232.4,163.8z"/>
	</g>
</g>
</svg>
