<?xml version="1.0" encoding="utf-8"?>
<!-- Generator: Adobe Illustrator 19.1.0, SVG Export Plug-In . SVG Version: 6.00 Build 0)  -->
<svg version="1.1" id="systeme" xmlns="http://www.w3.org/2000/svg" xmlns:xlink="http://www.w3.org/1999/xlink" x="0px" y="0px"
	 viewBox="-341 342 117 117" style="enable-background:new -341 342 117 117;" xml:space="preserve">
<style type="text/css">
	.st0{fill:#FFA212;}
	.st1{fill:#EC0000;}
	.st2{fill:#AD00CD;}
	.st3{fill:#1A22A2;}
	.st4{fill:#20CC24;}
	.st5{fill:#FFFE14;}
	.st6{fill:#209DCC;}
</style>
<g>
	<g>
		<path class="st0" d="M-317.1,414.2c-1.7-4.3-2.6-8.9-2.6-13.8c0-8.7,3-16.7,8-23.1l0,0l-8-18.9c-11.6,10.3-18.9,25.3-18.9,42
			c0,6.1,1,11.9,2.8,17.4L-317.1,414.2"/>
	</g>
	<g>
		<path class="st1" d="M-311.7,377.4c6.3-7.9,15.8-13.2,26.5-14l9.5-18.6c-2.3-0.3-4.6-0.4-6.9-0.4c-14.2,0-27.2,5.3-37.1,14.1
			L-311.7,377.4"/>
	</g>
	<g>
		<path class="st2" d="M-254.4,376.2c-6.8-7.9-16.9-12.9-28.2-12.9c-0.9,0-1.7,0-2.5,0.1l9.5-18.6c18.2,2.3,33.6,13.2,42.1,28.6
			L-254.4,376.2"/>
	</g>
	<g>
		<path class="st3" d="M-254.4,376.2c5.6,6.5,9,15,9,24.2c0,4.9-0.9,9.5-2.6,13.8l0,0l13.9,14.6c4.9-8.3,7.7-18,7.7-28.3
			c0-9.8-2.5-19-7-27.1L-254.4,376.2"/>
	</g>
	<g>
		<path class="st4" d="M-280.4,437.5c14.7-0.8,27.1-10.2,32.3-23.3l0,0l13.9,14.6c-9.8,16.6-27.8,27.7-48.4,27.7
			c-1.6,0-3.1-0.1-4.6-0.2L-280.4,437.5"/>
	</g>
	<g>
		<path class="st5" d="M-280.4,437.5c-0.7,0-1.4,0.1-2.2,0.1c-15.6,0-29-9.7-34.5-23.4l0,0l-18.8,3.6c6.9,21,25.8,36.6,48.7,38.5
			L-280.4,437.5"/>
	</g>
</g>
<g id="robot">
	<path class="st6" d="M-282.1,358.9c-23,0-41.6,18.6-41.6,41.5s18.6,41.5,41.6,41.5s41.6-18.6,41.6-41.5S-259.1,358.9-282.1,358.9z
		 M-252.8,404.7l-5.9,1.5c-0.6,0.2-1.1,0.6-1.3,1.2c-0.4,1.3-0.9,2.5-1.5,3.7c-0.3,0.6-0.3,1.3,0,1.8l3.1,5.2
		c0.4,0.7,0.3,1.5-0.2,2.1c-1.1,1.4-2.4,2.6-3.8,3.8c-0.6,0.5-1.5,0.6-2.1,0.2l-5.2-3.1c-0.6-0.3-1.2-0.3-1.8,0
		c-1.2,0.6-2.4,1.1-3.7,1.5c-0.6,0.2-1.1,0.7-1.2,1.3l-1.5,5.9c-0.2,0.8-0.8,1.3-1.6,1.4c-0.9,0.1-1.8,0.1-2.7,0.1
		c-0.9,0-1.8-0.1-2.7-0.1c-0.8-0.1-1.4-0.6-1.6-1.4l-1.5-5.9c-0.2-0.6-0.6-1.1-1.2-1.3c-1.3-0.4-2.5-0.9-3.7-1.5
		c-0.6-0.3-1.3-0.3-1.8,0l-5.2,3.1c-0.7,0.4-1.5,0.3-2.1-0.2c-1.4-1.1-2.6-2.4-3.8-3.8c-0.5-0.6-0.6-1.5-0.2-2.1l3.1-5.2
		c0.3-0.6,0.3-1.2,0-1.8c-0.6-1.2-1.1-2.4-1.5-3.7c-0.2-0.6-0.7-1.1-1.3-1.2l-5.9-1.5c-0.8-0.2-1.3-0.8-1.4-1.6
		c-0.1-0.9-0.1-1.8-0.1-2.7s0.1-1.8,0.1-2.7c0.1-0.8,0.6-1.4,1.4-1.6l5.9-1.5c0.6-0.2,1.1-0.6,1.3-1.2c0.4-1.3,0.9-2.5,1.5-3.7
		c0.3-0.6,0.3-1.3,0-1.8l-3.1-5.2c-0.4-0.7-0.3-1.5,0.2-2.1c1.1-1.4,2.4-2.6,3.8-3.8c0.6-0.5,1.5-0.6,2.1-0.2l5.2,3.1
		c0.6,0.3,1.2,0.3,1.8,0c1.2-0.6,2.4-1.1,3.7-1.5c0.6-0.2,1.1-0.7,1.2-1.3l1.5-5.9c0.2-0.8,0.8-1.3,1.6-1.4c0.9-0.1,1.8-0.1,2.7-0.1
		c0.9,0,1.8,0.1,2.7,0.1c0.8,0.1,1.4,0.6,1.6,1.4l1.5,5.9c0.2,0.6,0.6,1.1,1.2,1.3c1.3,0.4,2.5,0.9,3.7,1.5c0.6,0.3,1.3,0.3,1.8,0
		l5.2-3.1c0.7-0.4,1.5-0.3,2.1,0.2c1.4,1.1,2.6,2.4,3.8,3.8c0.5,0.6,0.6,1.5,0.2,2.1l-3.1,5.2c-0.3,0.6-0.3,1.2,0,1.8
		c0.6,1.2,1.1,2.4,1.5,3.7c0.2,0.6,0.7,1.1,1.3,1.2l5.9,1.5c0.8,0.2,1.3,0.8,1.4,1.6c0.1,0.9,0.1,1.8,0.1,2.7s-0.1,1.8-0.1,2.7
		C-251.5,403.9-252.1,404.5-252.8,404.7z"/>
	<path id="bouche" class="st6" d="M-266.8,407.3c-1.8,6-8,10.4-15.3,10.4c-7.3,0-13.4-4.4-15.3-10.4"/>
	<g id="oeil_1_">
		<path class="st6" d="M-271.9,393.9c1.4,0,2.6,1.2,2.6,2.6s-1.2,2.6-2.6,2.6s-2.6-1.2-2.6-2.6S-273.3,393.9-271.9,393.9
			 M-271.9,390.9c-3.1,0-5.6,2.5-5.6,5.6s2.5,5.6,5.6,5.6s5.6-2.5,5.6-5.6S-268.8,390.9-271.9,390.9L-271.9,390.9z"/>
	</g>
	<g id="oeil">
		<path class="st6" d="M-292.5,393.9c1.4,0,2.6,1.2,2.6,2.6s-1.2,2.6-2.6,2.6s-2.6-1.2-2.6-2.6S-294,393.9-292.5,393.9
			 M-292.5,390.9c-3.1,0-5.6,2.5-5.6,5.6s2.5,5.6,5.6,5.6s5.6-2.5,5.6-5.6S-289.5,390.9-292.5,390.9L-292.5,390.9z"/>
	</g>
</g>
</svg>
