<?xml version="1.0" encoding="utf-8"?>
<!-- Generator: Adobe Illustrator 22.0.1, SVG Export Plug-In . SVG Version: 6.00 Build 0)  -->
<svg version="1.1" id="folder" xmlns="http://www.w3.org/2000/svg" xmlns:xlink="http://www.w3.org/1999/xlink" x="0px" y="0px"
	 viewBox="0 0 625 625" style="enable-background:new 0 0 625 625;" xml:space="preserve">
<style type="text/css">
	.st0{fill:#777777;}
</style>
<path class="st0" d="M484.9,264.8v145.8c0,12.6-4.6,23.5-13.7,32.7s-20,13.7-32.7,13.7h-252c-12.6,0-23.5-4.6-32.7-13.7
	c-9.2-9.2-13.7-20-13.7-32.7V211.7c0-12.6,4.6-23.5,13.7-32.7c9.2-9.2,20-13.7,32.7-13.7h66.4c12.6,0,23.5,4.6,32.7,13.7
	c9.2,9.2,13.7,20,13.7,32.7v6.7h139.2c12.6,0,23.5,4.6,32.7,13.7C480.3,241.3,484.9,252.2,484.9,264.8L484.9,264.8z"/>
</svg>
