<svg xmlns="http://www.w3.org/2000/svg" viewBox="0 0 64.8 64.8"><defs><style>.cls-1{fill:#fd8424;}</style></defs><title>Rotate Device</title><g id="Calque_2" data-name="Calque 2"><g id="Calque_1-2" data-name="Calque 1"><path class="cls-1" d="M61.5,0H34.3a3.37,3.37,0,0,0-3.4,3.4V30.8H3.4A3.37,3.37,0,0,0,0,34.2V61.4a3.37,3.37,0,0,0,3.4,3.4h41a3.37,3.37,0,0,0,3.4-3.4V47.9H61.4a3.37,3.37,0,0,0,3.4-3.4V3.5A3.31,3.31,0,0,0,61.5,0ZM42.2,59.2H5.7V36.6H42.2Zm17-17H47.9V34.3a3.37,3.37,0,0,0-3.4-3.4H36.6V5.7H59.3V42.2ZM18.9,16.1H12.3A10.71,10.71,0,0,1,23,5.4V0A16.09,16.09,0,0,0,6.9,16.1H0l9.5,9.5Z"/></g></g></svg>