<svg xmlns="http://www.w3.org/2000/svg" viewBox="0 0 277.86 273.07"><defs><style>.cls-1{fill:#858fa9;}.cls-2{fill:#dcdde0;}.cls-3{fill:#2a9cc8;}.cls-4{fill:#414355;}.cls-5{fill:#ffa348;}.cls-6{fill:#fcc18b;}.cls-7{fill:none;stroke:#fcc18b;stroke-miterlimit:10;}</style></defs><title>Fichier 2</title><g id="Calque_2" data-name="Calque 2"><g id="Layer_2" data-name="Layer 2"><path class="cls-1" d="M215,49.65a3.44,3.44,0,0,0-3.6-3.11h-.51c-2.09,0-3.89,1.58-3.89,3.11V70.72c0,1.91,1.14,3.41,2.64,3.49l2.51.25c2.1,0,2.85-2.21,2.85-3.74V49.65Z"/><path class="cls-2" d="M203,43.27l-7.35-.75-14.95-1.47-2.19-9.37L188.92,26l9.22-5.3s11.52,1.19,12.09,8.76C210.89,38.15,203,43.27,203,43.27Z"/><path class="cls-3" d="M262,26.06,202.85,43.35a15.45,15.45,0,0,0,3.56-13.49c-1.13-5.59-8.19-9.17-8.19-9.17L263.44.09s8.34-1.9,5.56,12.14C267,22.14,262,26.06,262,26.06Z"/><path class="cls-4" d="M181.57,36c.49,3.07-.38,5.75-1.92,6-.5.08-2.08.46-2.24.28A31.73,31.73,0,0,1,176,36.86a33.69,33.69,0,0,1-.2-5.54,5.92,5.92,0,0,1,2.12-.46C179.45,30.63,181.09,32.91,181.57,36Z"/><ellipse class="cls-5" cx="176.8" cy="36.75" rx="2.83" ry="5.63" transform="translate(-3.56 27.87) rotate(-8.92)"/><path class="cls-2" d="M210.58,55.88l-7.33-.9-14.92-1.77-2-9.41,10.51-5.48,9.33-5.11s11.5,1.42,11.91,9C218.56,50.92,210.58,55.88,210.58,55.88Z"/><path class="cls-3" d="M269.92,39.88,210.42,56a15.44,15.44,0,0,0,3.83-13.41c-1-5.62-8-9.34-8-9.34l65.62-19.27s8.38-1.73,5.32,12.25C275,36.07,269.92,39.88,269.92,39.88Z"/><path class="cls-4" d="M189.29,48.15c.42,3.08-.49,5.75-2,6-.51.07-2.09.41-2.24.23a30.25,30.25,0,0,1-1.33-5.42,34,34,0,0,1-.08-5.54,5.85,5.85,0,0,1,2.13-.42C187.28,42.77,188.88,45.08,189.29,48.15Z"/><ellipse class="cls-5" cx="184.54" cy="48.79" rx="2.83" ry="5.63" transform="translate(-4.9 25.36) rotate(-7.76)"/><path class="cls-5" d="M136.08,269.13c0-1.83-2.86-3.07-3.91-3.37a12.11,12.11,0,0,1-5.42-2.75,5.36,5.36,0,0,1-1.83-2.75l-.3-1.92c-1.16.14-10.48-1.84-11.52-2.12-.52-.17-1.43-.92-1.6,1.16a42.1,42.1,0,0,0-.17,5.33c0,.2,0,.46.07.74,7.5,3.71,15.07,7.18,23.11,8.74C135.55,271.59,136.08,270.88,136.08,269.13Z"/><path class="cls-6" d="M111.4,263.45a4.61,4.61,0,0,0,.68,2.1c1.08,1.19,3.51,2.13,4.92,2.83,3.15,1.55,6.21,3.46,9.75,4.08,2.78.49,5.11,1.16,7.58-.16l.18-.11C126.47,270.63,118.9,267.16,111.4,263.45Z"/><path class="cls-5" d="M109.87,267.76c-.06-1.38-1.69-2.7-2.69-3A11.36,11.36,0,0,1,102,262a5.37,5.37,0,0,1-1.74-2.75l-.28-1.92c-1.11.14-10-1.84-11-2.12-.49-.17-1.36-.92-1.52,1.16a45.63,45.63,0,0,0-.16,5.26c6.51,4.58,13.82,8.92,21.15,9.21A3.87,3.87,0,0,0,109.87,267.76Z"/><path class="cls-6" d="M87.33,261.71a6.11,6.11,0,0,0,.72,2.84c1,1.19,3.33,2.13,4.68,2.83,3,1.55,5.27,3.37,8.64,4,2.66.49,5.46.64,6.75-.25a3.44,3.44,0,0,0,.36-.28c-7.33-.29-14.64-4.63-21.15-9.21Z"/><path class="cls-1" d="M128.58,135.9v-.45l-.44-.07c-.16,0-.89-.29-1.33-.45a9.64,9.64,0,0,0-1-.35c-2.73-.62-6.58-3.34-9.67-5.53-1.19-.85-2.32-1.65-3.27-2.25-2.83-1.79-5.6-3.64-8.28-5.43s-5.2-3.48-7.88-5.18l-1.17-.74-.33-.2-.28.26c-.23.22-5.7,5.44-8.1,10-3.46,6.6-5.38,15.64-5.74,21.67-.84,13.78.59,27.79,2,41.34.49,4.83,1,9.83,1.4,14.72.83,10.36.64,21,.45,31.22-.1,5.58-.2,11.35-.14,17,0,4.26,1.13,5.74,5,6.89a42.79,42.79,0,0,0,6.83,1.27c.1,0,.44,0,.89,0a11.74,11.74,0,0,0,3.11-.31l.31-.12,0-.33s.17-4.24.23-5.59c.18-3.84.1-7.75,0-11.53,0-2.26-.1-4.58-.1-6.87,0-4.44.09-8.94.16-13.29.08-4.71.17-9.59.17-14.41,0-9.32,0-20.92,1-31.8.33-3.78.46-7.62.59-11.32.08-2.33.16-4.73.29-7.09.07-1.33.06-3.54,0-5.25a29,29,0,0,1,1.31,5.52l.19,1.71c.39,3.58.81,7.27,1,9.86.23,3.69.58,8,1,12.5.47,5.74,1,11.67,1.25,17.16.72,13.25,1.41,27.38,1.41,41.71,0,6,.89,16.88,1,18.1l-.06.15.15.21c.51.75,9.52.83,9.48.87a31.54,31.54,0,0,0,4.4-.25l.42-.06v-.42s0-2.42.18-4c.21-2.66.29-5.61.37-8.46,0-1.07.06-2.12.09-3.1.8-22.35,1.41-38.91,2.38-62.42l.13-3.09c.32-7.79.61-14.51.37-22.56C128.08,149.66,128.58,136,128.58,135.9Z"/><path class="cls-1" d="M151.75,70.63c-14.36,5.07-8.74-19.31-6.94-26.24,1.73-6.71,6-12.72,12.43-15.45a27.85,27.85,0,0,1,6.7-1.62c8-1.29,12.09,5,12.8,12.31a42.16,42.16,0,0,1-1.23,13.25C173.18,63.41,160.8,67.44,151.75,70.63Z"/><path class="cls-1" d="M199.25,50.25c-1.06-1.62-3.44,2.34-4.13,1.88-.51-.34,2.16-4.5.94-4.44-2.62.13-5.95,4.73-6.75,7.25-.51,1.63-.85,3.35-1.34,5.31-.24,1-.5,1.93-.77,2.92,2.87,1.75,6.28,3.22,9.25,4.92.24-.8.47-1.6.7-2.4l.19-.66.08-.26c.22-.79.56-1.72.92-2.7.62-1.73,2-3.33,2.41-5.19.34-1.6.87-3.94-1.44-2.06C198,55.88,199.71,51,199.25,50.25Z"/><path class="cls-5" d="M158.25,71.88c2.17-4.29-5.21-8.92-8.68-10-5.37-1.69-11.76-1.32-17.66-1.32a355.81,355.81,0,0,0-49.26,3c-11.27,1.58-19.91,6.15-29.73,11.94-5.75,3.39-12.84,4.11-19.41,3.06C28,77.65,21.68,73.45,16,74.62c-5.86,1.21-6.81,10.24-8.27,15.19,4.88,2.81,12.55,3.43,18.18,4,6.76.75,13.47,1.79,20.24,0A56.33,56.33,0,0,0,62.58,87c4.37-2.82,9.5-6.56,15-5.76S88,85.05,93.23,85.89a56.17,56.17,0,0,0,19.35-.42c12.73-2.52,20.92-16.73,35-16.59a29.9,29.9,0,0,1,11,2.7,1.15,1.15,0,0,1-.3,1"/><path class="cls-4" d="M187.2,63.17c-1.68,6.08-4.06,12.75-7.85,17.86-2,2.66-3.48,3.75-5.18,3.75a7.52,7.52,0,0,1-4.08-1.63,52.81,52.81,0,0,1-8.89-8.39c-.78-.86-1.55-1.71-2.34-2.55l-.34-.35c-2.86-3-5.81-6.2-10.18-7a34,34,0,0,0-5.59-.59,12.32,12.32,0,0,0-1.57.09,20.88,20.88,0,0,0-9.74,4.36,44.45,44.45,0,0,0-6.33,6.08c-1.55,1.91-3.4,4.35-5.35,6.94-2.14,2.84-4.35,5.78-6.4,8.31-6.42,7.9-11.43,14-17.44,21a11.42,11.42,0,0,1-1.09,1c-1.07.92-2.29,2-2.36,3.1a1.67,1.67,0,0,0,.47,1.24,80.89,80.89,0,0,0,6.33,5.86,139.47,139.47,0,0,0,17.07,11.55,34,34,0,0,0,13,3.56l.35,0,.13-.32c1.9-4.4,5.12-8.78,8.23-13,1.2-1.64,2.34-3.19,3.39-4.73a130.07,130.07,0,0,0,7.4-12.48A95.52,95.52,0,0,1,156,95.06a26.5,26.5,0,0,1,3.07,1.72c3.8,2.32,9.54,5.83,14.19,5.83a6.83,6.83,0,0,0,3.07-.66c6.6-3.23,10.31-10.14,12.77-14.72l.2-.36c3.3-6.13,5.25-12.31,7.14-18.78C193.48,66.39,190.07,64.92,187.2,63.17Z"/><path class="cls-4" d="M167.25,30.38c-2.4.82-5.84,4.67-6.59,10.33a24.31,24.31,0,0,1-5.58,11.92c-6.08,7.5-12.4,10.27-23.41,12-7.17,1.12-12.59-.13-19.17-.13A25.87,25.87,0,0,0,100,67.32c-8.87,4.44-17.81,9.22-28,6.07A16.22,16.22,0,0,1,60.17,59.21C59,49.64,63.58,44,72.58,41.38c5.27-1.51,13,.27,18.23-1.25,5.07-1.47,7.68-5.39,12.06-8.13a26.1,26.1,0,0,1,13.38-3.87c5.12-.13,9.77,2.46,14.56,1.76,5.53-.81,8.28-5,13.52-6.59,3.68-1.12,7.84-2.5,15-1.25,6.3,1.1,13.75,5.91,13.59,7.91A9.55,9.55,0,0,0,167.25,30.38Z"/><path class="cls-7" d="M16.08,76.71c-2.47.11-8.78-1.27-10.16-3.5"/><path class="cls-7" d="M18.08,74.71c-2.47.11-8.78-1.27-10.16-3.5"/><path class="cls-7" d="M13.08,78.5c-1.48.21-3.18-.44-4.75-.75a29.35,29.35,0,0,1-4.91-1.2"/><path class="cls-7" d="M11.79,80.67c-3.16,0-6.49.56-9.37-.79"/><path class="cls-7" d="M10.83,83.67c-2.46.13-7.68,0-9.83-1.25"/><path class="cls-7" d="M.08,87.92a11.69,11.69,0,0,1,4.67.13c1.46.33,2.94,1.76,4.21,1.33"/><path class="cls-7" d="M9.33,86c-1.52.69-6.5-1.08-9-.7"/><path class="cls-3" d="M257,256.13s-8.25,10.25-26.25,10.5-26.5-9.75-26.5-9.75l1-59.5,49.5.75Z"/><ellipse class="cls-2" cx="229.92" cy="199.26" rx="25" ry="10.63"/><polygon class="cls-3" points="237.25 198.54 222.91 198.54 224.91 78.37 233.58 79.2 237.25 198.54"/><path class="cls-1" d="M204.69,243.11c12.92,10.11,39.47,11.64,51.29-1.17,1.31-1.42-.81-3.55-2.12-2.12-10.8,11.7-35.87,9.92-47.05,1.17-1.51-1.18-3.64.93-2.12,2.12Z"/><path class="cls-3" d="M245.33,34.54h-2.86c-2.76,0-4.5,1.51-4.5,4.09V74L211.5,67.44l-2.4,6.69,29,9.71s1.91.58,2.68.79a11,11,0,0,0,4.29.25c2.65-.26,3.95-1.92,3.95-3.75V38.63C249,36,248.58,34.54,245.33,34.54Z"/><path class="cls-2" d="M241,81.54h-3V37.82a3.23,3.23,0,0,1,1.27-2.27c1.29-.88,4.44-.67,4.44-.67a9.8,9.8,0,0,0-1.9.62c-.83.42-.81,2.25-.81,2.25V81.54Z"/><path class="cls-4" d="M189,57.05c1.06-3.22,2.05-6.61,5.38-8.19,1.28-.61.34.63.22.84-.57,1-.89,2.18-1.41,3.22-.61,1.2-1.17,2.14-.7,3.47a.5.5,0,0,0,1,0,14.48,14.48,0,0,1,2-3.92c.25-.31,2.92-2.89,3.32-1.82s-.93,2.63-1.35,3.66c-.49,1.23-.87,2.47-1.39,3.69l1.38.58c.11-.43.23-.87.38-1.29l.59-1.28a2.22,2.22,0,0,1,2.45-1.25c.14,1.25-1,3.17-1.41,4.27-1.05,2.93-2.58,5.72-3.69,8.67-.15.4.52.69.7.29,1.06-2.36,2-4.73,3.14-7.06a20.3,20.3,0,0,0,2-6.17A1.36,1.36,0,0,0,200,53.27c-1.6.44-3.11,3.4-3.85,4.73a.75.75,0,0,0,1.3.76c1.27-1.71,1.14-3.82,2-5.74a3.1,3.1,0,0,0-.21-3.42c-.74-.88-2.58.91-3.06,1.27A12.55,12.55,0,0,0,192.57,56l.91.39a30.1,30.1,0,0,1,1.68-3.3c.45-.92.67-1.93,1.11-2.85s.88-1.77,0-2.62a.62.62,0,0,0-.61-.16c-1.72.45-3.58,2.34-4.62,3.74A12.16,12.16,0,0,0,188.71,57c0,.19.27.21.32,0Z"/></g></g></svg>