<svg width="110" height="120" fill="none" xmlns="http://www.w3.org/2000/svg">
  <path d="M2.196 58.564c-10.082 22.215 16.221 56.571 45.225 58.159 24.937 1.368 66.999-34.034 45.226-58.16C73.024 36.826 71.37-4.508 47.417.402-10.447 12.268 9.41 42.663 2.197 58.564Z" fill="#F7F7F9"/>
  <path d="M42.211 113.602s-.815.228-.442 1.395c.376 1.167 2.324 4.323 2.486 4.513 1.001 1.146 2.866.052 2.755-.867-.145-1.271-1.167-4.682-2.213-5.041h-2.59" fill="#249AC6"/>
  <path d="M42.21 114.31s.27.635 1.292.635c.857 0 1.295-.635 1.295-.635v-2.127h-2.59v2.127" fill="#F9BF89"/>
  <path d="M27.474 113.802s.456.473.456 1.906c0 .881-4.44 2.576-4.679 2.676-1.595.667-2.116-.397-2.01-1.343.15-1.312 2.553-2.824 3.671-3.239h2.559" fill="#249AC6"/>
  <path d="M27.502 114.31s-.27.635-1.295.635c-.856 0-1.295-.635-1.295-.635v-2.127h2.59v2.127Z" fill="#F9BF89"/>
  <path d="M42.363 67.582s3.104 15.08 3.93 23.646c.465 4.868-.937 21.214-.937 21.214h-4.04s-1.36-13.594-2.572-18.266c-2.734-10.558-6.68-24.163-6.68-24.163l-3.765 42.429H24.18s-2.261-14.526-2.624-19.433c-.421-5.735-.59-25.427-.59-25.427h21.397Z" fill="#848EA8"/>
  <path d="M29.149 34.518h4.737v-5.932H29.15v5.932Z" fill="#F9BF89"/>
  <path d="M25.793 25.489a5.72 5.72 0 0 0 5.724 5.721 5.72 5.72 0 0 0 5.722-5.721v-2.983a5.717 5.717 0 0 0-5.721-5.718 5.72 5.72 0 0 0-5.725 5.718v2.983Z" fill="#F9BF89"/>
  <path d="m21.808 47.898-4.696-.988c.418-5.42 1.868-8.635 5.829-11.052 1.464-.894 6.211-1.34 6.211-1.34h4.738s3.453.363 6.163.363c4.458 0 5.124.303 6.34.95l-.008 6.194-6.039 1.218s2.297 17.924 2.763 23.99c.11 1.437-1.195 4.061-3.96 4.061-3.965 0-3.675-1.37-5.477-2.49-1.157-.71-2.047-1.225-3.384-1.225h-5.945c-1.561 0-2.825.328-3.377 0-.339-.204-.88-4.292-.864-4.603.356-6.588.446-5.238 1.703-15.085" fill="#F5A14C"/>
  <path d="M37.657 34.808c.034.276-.266.936-.66 1.512-1.011 1.478-3.142 4.972-5.51 4.972-2.37 0-4.5-3.497-5.508-4.972-.424-.614-.483-1.022-.366-1.301 1.716-.332 3.505-.5 3.505-.5h4.889c.452.006 2.058.165 3.65.293" fill="#F9BF89"/>
  <path d="M27.816 16.415c5.594-3.07 8.2.856 8.2.856 1.63-.083 2.134 1.747 2.39 3.885.128 1.042-.663 3.546-.708 3.732-.155.653-.28 1.209-.508 1.388l-.01.017v-.01c-.318.238-.431.093-.635-.142-.587-.67-.553-1.553-.894-2.7-.145-.49-.239-.963-.3-1.38-.125-.878-1.437-1.548-2.397-1.565-.915-.014-2.407.187-2.883.338-3.691 1.202-3.564 4.89-4.268 4.959-.425.038-.563-.715-.784-1.696-.473-2.137-1.108-5.531 2.797-7.675" fill="#414355"/>
  <path d="M46.389 36.548v4.648l11.329.09c1.129.12 2.417-.853 2.537-1.982a2.055 2.055 0 0 0-1.826-2.262l-12.04-.494Z" fill="#F9BF89"/>
  <path d="M56.847 37.035a2.305 2.305 0 0 0-.745 3.173 2.307 2.307 0 0 0 3.173.743l11.38-8.045c1.081-.67 3.505-4.427 2.428-3.754L56.85 37.035M21.808 47.89l-4.36-.91-2.29 11.059c-.325 1.09.404 2.534 1.485 2.852a2.051 2.051 0 0 0 2.558-1.385l2.607-11.615Z" fill="#F9BF89"/>
  <path d="M63.104 118.301a.808.808 0 0 0 .387-.587L79.433.922A.814.814 0 0 0 77.82.7L61.882 117.493a.81.81 0 0 0 1.222.808Z" fill="#414355"/>
  <path d="M73.325 3.456s-.757-.124-1.306 0c-.97.221-2.368 1.772-2.562 2.552-.283 1.005-.459 3.912-.048 6.654.41 2.738.822 5.814.822 8.725 0 2.91-.45 5.897-1.789 8-1.447 2.272-3.315 2.966-5.452 2.97-3.39.003-7.403-1.803-11.15-1.806-2.71-.004-5.303.967-7.367 4.292-1.078 1.73-1.489 3.801-1.485 6.05 0 3.683 1.087 7.858 2.168 11.95 1.081 4.09 2.151 8.1 2.151 11.397 0 2.134-.438 3.947-1.591 5.349-1.257 1.533-4.113 3.394-7.172 3.39-2.707-.003-5.573-1.43-7.738-5.81-2.904-5.898-3.308-12.459-3.428-18.425-.125-5.963.058-11.319-1.782-14.816-.052-.097-.152-.121-.228-.056-.072.066-.093.2-.041.297 1.754 3.294 1.609 8.605 1.722 14.585.121 5.977.522 12.638 3.481 18.642 2.213 4.503 5.214 6.011 8.01 6.008 3.163-.004 6.057-1.892 7.393-3.505 1.233-1.495 1.699-3.456 1.696-5.659 0-3.411-1.092-7.444-2.169-11.536-1.08-4.088-2.151-8.235-2.148-11.812 0-2.182.394-4.14 1.413-5.78 1.999-3.208 4.454-4.13 7.112-4.133 3.667-.003 7.676 1.802 11.15 1.806 2.185.003 4.184-.732 5.704-3.125 1.409-2.217 1.86-5.176 1.86-8.27 0-3.093-.413-6.063-.828-8.808-.414-2.741-.214-5.69.014-6.363.318-.719.66-1.333 1.775-2.072.725-.48 1.536-.307 1.616-.307.076.065.186.01.234-.087.052-.1.028-.231-.048-.293" fill="#249AC6"/>
  <path d="M98.506 7.206a.724.724 0 0 0-.283-1.347l-24.36-2.962a.727.727 0 0 0-.811.632c-.049.4.234.76.632.808l24.36 2.962a.74.74 0 0 0 .459-.096" fill="#414355"/>
  <path d="M88.33.867a2.29 2.29 0 0 0-2.572 1.957l-.652 4.82a2.285 2.285 0 0 0 1.96 2.573l19.226 2.597a2.29 2.29 0 0 0 2.573-1.962l.649-4.82a2.287 2.287 0 0 0-1.962-2.572L88.33.863" fill="#414355"/>
  <path d="m28.32 52.94 3.118-.011.02 6.06c0 .341-.213.624-.476.624l-2.158.007c-.262 0-.48-.28-.483-.621l-.014-4.814c0-.687-.435-1.246-.963-1.242h.96l-.004-.004Z" fill="#F7F7F9"/>
  <path d="M34.014 51.368v.936a.621.621 0 0 1-.618.625l-9.668.034a.626.626 0 0 1-.625-.621v-.936l10.91-.038ZM19.636 42.688l1.872-.007c.342 0 .625.28.625.621l.007 1.56c0 .343-.28.626-.622.626l-1.871.007a.626.626 0 0 1-.625-.622l-.007-1.56c0-.342.28-.625.621-.625Z" fill="#333"/>
  <path d="m21.19 40.813 12.786-.045c.514 0 .936.418.94.932l.034 9.668-13.722.048a.94.94 0 0 1-.94-.932l-.03-8.732c0-.515.418-.936.932-.94Z" fill="#F7F7F9"/>
  <path d="M32.598 48.254c.435 0 .78.341.784.776a.775.775 0 0 1-.777.784.775.775 0 0 1-.784-.777.775.775 0 0 1 .777-.783Z" fill="#4EC100"/>
  <path d="M30.105 48.264c.435 0 .78.342.784.777a.775.775 0 0 1-.777.784.775.775 0 0 1-.784-.777.775.775 0 0 1 .777-.784Z" fill="#EFC300"/>
  <path d="M32.267 42.332c.607 0 1.094.48 1.094 1.088 0 .607-.48 1.094-1.087 1.094-.608 0-1.095-.48-1.095-1.088 0-.607.48-1.094 1.088-1.094ZM34.922 44.193h1.247l.017 4.36h-1.247l-.017-4.36Z" fill="#333"/>
  <path d="M37.726 43.247h.31a.94.94 0 0 1 .94.932l.017 4.365a.941.941 0 0 1-.932.939h-.311c-.515 0-1.564-.929-1.564-.929l-.017-4.364s1.042-.94 1.557-.943Z" fill="#F7F7F9"/>
  <path d="M32.267 42.332c-.049 0-.11 0-.156.017v.763c0 .093.066.156.16.156.092 0 .155-.063.155-.156v-.763c-.049-.014-.11-.014-.16-.014v-.003Z" fill="#9E9E9E"/>
  <path d="m20.285 49.545 7.017-.024a.459.459 0 0 0 .466-.47.459.459 0 0 0-.47-.466l-7.016.024v.936h.003ZM28.769 38.033a2.555 2.555 0 0 0 2.566 2.548 2.557 2.557 0 1 0-2.566-2.548Zm1.012-.003c0-.853.687-1.55 1.54-1.554a1.549 1.549 0 0 1 1.553 1.54 1.549 1.549 0 0 1-1.54 1.554 1.549 1.549 0 0 1-1.553-1.54ZM20.952 37.035a3.448 3.448 0 0 0 3.463 3.436 3.448 3.448 0 0 0 3.436-3.463 3.448 3.448 0 0 0-3.464-3.436 3.448 3.448 0 0 0-3.435 3.463Zm1.364-.003a2.084 2.084 0 0 1 2.078-2.093 2.084 2.084 0 0 1 2.093 2.079 2.084 2.084 0 0 1-2.079 2.092 2.084 2.084 0 0 1-2.092-2.078Z" fill="#333"/>
  <path d="M16.601 56.668a2.299 2.299 0 0 0-1.574 2.849 2.301 2.301 0 0 0 2.852 1.574l10.31-3.88c1.226-.353-.193-3.347-1.416-2.994l-10.172 2.451Z" fill="#F9BF89"/>
  <path d="M36.935 24.332c-.407 1.423-.08 2.759.732 2.99.811.235 1.802-.728 2.206-2.147.411-1.42.08-2.763-.728-2.994-.812-.231-1.803.729-2.21 2.151ZM26.632 24.332c.404 1.423.08 2.759-.732 2.99-.812.235-1.803-.728-2.207-2.147-.41-1.42-.083-2.763.729-2.994.811-.231 1.799.729 2.21 2.151Z" fill="#249AC6"/>
  <path d="M39.197 22.827c.006-.125.145-3.063-1.837-5.155-1.257-1.323-3.06-1.993-5.37-1.993-2.907 0-5.19.84-6.59 2.431-1.082 1.219-1.54 2.78-1.327 4.503l.629-.076c-.194-1.544.21-2.928 1.167-4.012 1.263-1.433 3.439-2.217 6.122-2.217 2.13 0 3.78.607 4.91 1.799 1.795 1.895 1.67 4.661 1.67 4.685l.626.035Z" fill="#249AC6"/>
  <path d="M26.787 54.102s3.222-1.898 4.737-.417c.542.528 1.64 2.32 1.105 3.453-.193.414-1.205.77-1.854.904 0 0-.359-.228-.725-.052-.304.152-.597.028-.863-.027a2.978 2.978 0 0 1-1.053-.456l-1.34-3.408M74.823 30.012s.525-2.01-.577-1.643c-1.101.369-3.2 3.801-1.602 4.088 0 0 1.495-.411 2.179-2.445Z" fill="#F9BF89"/>
</svg>
