<?xml version="1.0" encoding="utf-8"?>
<!-- Generator: Adobe Illustrator 19.1.0, SVG Export Plug-In . SVG Version: 6.00 Build 0)  -->
<svg version="1.1" id="Calque_1" xmlns="http://www.w3.org/2000/svg" xmlns:xlink="http://www.w3.org/1999/xlink" x="0px" y="0px"
	 viewBox="0 0 100 100" style="enable-background:new 0 0 100 100;" xml:space="preserve">
<style type="text/css">
	.st0{fill:#209DCC;}
	.st1{fill:#FFA212;}
	.st2{fill:#EC0000;}
	.st3{fill:#AD00CD;}
	.st4{fill:#1A22A2;}
	.st5{fill:#20CC24;}
	.st6{fill:#FFFE14;}
</style>
<g id="LEO">
	<g id="Calque_40">
	</g>
	<g id="Calque_41">
		<path class="st0" d="M50.6,14c-19.8,0-35.8,16-35.8,35.7s16.1,35.7,35.8,35.7s35.8-16,35.8-35.7S70.4,14,50.6,14z M55.1,72.8h-9.2
			v-8.8h9.2V72.8z M63.8,47c-0.8,1.1-2.3,2.5-4.5,4.2l-2.2,1.7c-1.2,0.9-2,2-2.4,3.2c-0.2,0.8-0.4,2-0.4,3.6h-8.3
			c0.1-3.4,0.4-5.8,1-7.1c0.5-1.3,1.9-2.8,4.1-4.5l2.2-1.7c0.7-0.6,1.3-1.1,1.8-1.8c0.8-1.1,1.2-2.4,1.2-3.7c0-1.6-0.4-3-1.4-4.2
			c-0.9-1.3-2.5-1.9-5-1.9c-2.4,0-4,0.8-5,2.4c-1,1.6-1.5,3.2-1.5,4.9h-8.8C35,36.1,37,32,40.8,29.6c2.4-1.6,5.4-2.3,8.9-2.3
			c4.6,0,8.4,1.1,11.5,3.3c3.1,2.2,4.6,5.5,4.6,9.8C65.8,43,65.1,45.2,63.8,47z"/>
	</g>
	<g>
		<g>
			<path class="st1" d="M20.6,61.6c-1.5-3.7-2.3-7.7-2.3-11.8c0-7.5,2.6-14.4,6.9-19.9l0,0l-6.9-16.3C8.3,22.5,2,35.4,2,49.8
				C2,55,2.8,60,4.4,64.7L20.6,61.6"/>
		</g>
		<g>
			<path class="st2" d="M25.2,29.9c5.4-6.8,13.6-11.4,22.9-12l8.2-16c-2-0.2-3.9-0.4-6-0.4c-12.3,0-23.4,4.6-32,12.1L25.2,29.9"/>
		</g>
		<g>
			<path class="st3" d="M74.5,28.9c-5.9-6.8-14.5-11.1-24.2-11.1c-0.7,0-1.5,0-2.2,0.1l8.2-16c15.7,1.9,29,11.4,36.3,24.6L74.5,28.9
				"/>
		</g>
		<g>
			<path class="st4" d="M74.5,28.9c4.8,5.6,7.7,12.9,7.7,20.8c0,4.2-0.8,8.2-2.3,11.8l0,0l11.9,12.6c4.2-7.2,6.6-15.5,6.6-24.4
				c0-8.5-2.2-16.4-6-23.3L74.5,28.9"/>
		</g>
		<g>
			<path class="st5" d="M52.1,81.6c12.7-0.7,23.3-8.8,27.8-20l0,0l11.9,12.6C83.5,88.4,68,98,50.2,98c-1.3,0-2.7-0.1-4-0.2
				L52.1,81.6"/>
		</g>
		<g>
			<path class="st6" d="M52.1,81.6c-0.6,0-1.3,0.1-1.9,0.1c-13.5,0-25-8.3-29.7-20.1l0,0L4.4,64.7c5.9,18.1,22.2,31.5,41.9,33.1
				L52.1,81.6"/>
		</g>
	</g>
</g>
</svg>
