<?xml version="1.0" encoding="utf-8"?>
<!-- Generator: Adobe Illustrator 22.0.1, SVG Export Plug-In . SVG Version: 6.00 Build 0)  -->
<svg version="1.1" id="Calque_1" xmlns="http://www.w3.org/2000/svg" xmlns:xlink="http://www.w3.org/1999/xlink" x="0px" y="0px"
	 viewBox="0 0 625 625" style="enable-background:new 0 0 625 625;" xml:space="preserve">
<style type="text/css">
	.st0{fill:#C7EDFC;}
</style>
<title>unkown-avatar</title>
<g id="unknown-avatar">
	<path class="st0" d="M312.5,419.5c68,0,204,33.4,204,101.4v104H108.5v-104C108.5,452.9,244.5,419.5,312.5,419.5z M312.5,368.2
		C256.6,368.3,211.2,323,211.1,267c0-0.1,0-0.2,0-0.3c0-56.1,45.3-102.6,101.4-102.6s101.4,46.5,101.4,102.6
		c0,56-45.3,101.4-101.3,101.4C312.6,368.2,312.6,368.2,312.5,368.2L312.5,368.2z"/>
	<g>
		<path class="st0" d="M470.6,275.9c-8.5,0-13.2,3.4-15.7,6.3c-3.4,4-5.2,9-5.1,14.3c-0.1,5.2,1.8,10.1,5.2,13.9
			c0,0,0.1,0.1,0.1,0.1c3.7,4,8.9,6,15.5,6c6.6,0,11.8-2,15.5-5.9c3.6-3.8,5.6-8.9,5.5-14.1c0.1-5.3-1.8-10.4-5.4-14.4
			C482.6,278,477.3,275.9,470.6,275.9z"/>
		<path class="st0" d="M529.3,144.8C529.3,144.8,529.3,144.7,529.3,144.8c-2.7-6.7-7-12.6-12.4-17.4c-5.6-4.9-12.1-8.5-19.2-10.7
			c-8-2.4-16.2-3.6-24.5-3.5c-7.8-0.1-15.6,1-23.1,3.3c-7,2.1-13.5,5.5-19.3,10.1c-5.5,4.5-9.9,10-13.2,16.4
			c-2.1,4.3-3.6,8.8-4.3,13.5c-0.1,0.7-0.2,1.5-0.2,2.2c0,7,5.7,12.7,12.7,12.7c0,0,0,0,0,0h10.6c0,0,0.1,0,0.1,0
			c6.1,0,11.3-4.3,12.4-10.4c0.3-1.5,0.8-2.9,1.5-4.1c1.2-2.2,3-4.2,5-5.7c2.3-1.6,4.9-2.8,7.6-3.5c0,0,0.1,0,0.1,0
			c3.2-0.8,6.5-1.3,9.8-1.3c8.2,0,14.1,1.8,18.1,5.5c3.9,3.6,5.8,8.9,5.8,16.1c0,3.2-0.6,6.3-1.8,9.3c-1.4,3.3-3.2,6.5-5.3,9.4
			c-2.3,3.2-4.9,6.2-7.5,9l-8.6,8.8c-3.6,3.3-7.1,6.7-10.3,10.3c-2.9,3.1-5.2,6.7-7,10.5c0,0.1,0,0.1-0.1,0.2
			c-1.6,3.9-2.7,8-3.1,12.2c-0.3,2.5-0.5,5.4-0.6,8.7c0,0,0,0.1,0,0.1c0,0.2,0,0.4,0,0.6c0,3.4,1.3,6.6,3.8,9c1.8,1.8,4.1,3,6.6,3.5
			c0.7,0.3,1.5,0.4,2.4,0.4h10.9c0,0,0,0,0,0c6.8,0,12.4-5.3,12.7-12.1c0-0.5,0.1-1,0.1-1.4c0-0.3,0-0.7,0.1-1c0-0.1,0-0.3,0-0.5
			c0.1-1.9,0.4-3.7,0.9-5.5c0-0.1,0-0.1,0.1-0.2c0.5-1.7,1.2-3.4,2.2-4.8c1.4-2.1,3-4,4.8-5.7c4-3.6,8.1-7.5,12.2-11.6
			c4.3-4.3,8.2-9.1,11.7-14.1c3.5-5.1,6.5-10.6,8.8-16.4c2.4-6.2,3.6-12.7,3.6-19.3C533.5,159.5,532.2,152,529.3,144.8z"/>
	</g>
</g>
</svg>
