<?xml version="1.0" encoding="utf-8"?>
<!-- Generator: Adobe Illustrator 22.0.1, SVG Export Plug-In . SVG Version: 6.00 Build 0)  -->
<svg version="1.1" id="group-avatar" xmlns="http://www.w3.org/2000/svg" xmlns:xlink="http://www.w3.org/1999/xlink" x="0px"
	 y="0px" viewBox="0 0 625 625" style="enable-background:new 0 0 625 625;" xml:space="preserve">
<style type="text/css">
	.st0{fill:#237D91;}
	.st1{fill:#97DEFA;}
	.st2{fill:#29CBFC;}
</style>
<title>group-avatar</title>
<path class="st0" d="M312.5,227.2c20.9,0,62.6,10.3,62.6,31.1V278H249.8v-19.7C249.8,237.4,291.7,227.2,312.5,227.2z M312.5,211.4
	c-17.2,0-31.1-13.9-31.1-31c0,0,0,0,0-0.1c0-17.2,13.9-31.5,31.1-31.5s31.1,14.3,31.1,31.5C343.7,197.5,329.8,211.4,312.5,211.4
	C312.6,211.4,312.6,211.4,312.5,211.4z"/>
<path class="st1" d="M212.6,383.8c20.9,0,62.6,10.3,62.6,31.1v19.7H149.9v-19.7C150,394,191.8,383.8,212.6,383.8z M212.6,368
	c-17.2,0-31.1-13.9-31.1-31c0,0,0,0,0-0.1c0-17.2,13.9-31.5,31.1-31.5s31.1,14.3,31.1,31.5c0.1,17.1-13.8,31-30.9,31.1
	C212.7,368,212.7,368,212.6,368z"/>
<path class="st2" d="M412.7,383.8c20.9,0,62.6,10.3,62.6,31.1v19.7H350v-19.7C350.1,394.1,391.9,383.8,412.7,383.8z M412.7,368.1
	c-17.2,0-31.1-13.9-31.1-31c0,0,0,0,0-0.1c0-17.2,13.9-31.5,31.1-31.5s31.1,14.3,31.1,31.5c0.1,17.1-13.8,31-30.9,31.1
	C412.8,368.1,412.7,368.1,412.7,368.1z"/>
</svg>
