<svg width="225" height="150" viewBox="0 0 225 150" fill="none" xmlns="http://www.w3.org/2000/svg">
<rect width="225" height="150" fill="white"/>
<g clip-path="url(#clip0_518_211)">
<path d="M225 7H0V142H225V7Z" fill="white"/>
<path fill-rule="evenodd" clip-rule="evenodd" d="M148.537 104.939C138.548 109.559 136.107 115.642 131.696 120.494C127.285 125.346 120.709 135.784 107.918 132.255C107.516 129.641 105.864 122.432 101.041 119.171C98.0604 117.356 94.4245 114.76 93.7629 110.349C88.4699 111.672 75.2154 112.731 74.5756 105.718C74.3551 103.292 76.4334 99.575 74.2106 97.0161C73.7086 97.0321 70.8957 97.0884 70.1582 96.7444C69.3866 95.8328 70.1483 92.5161 70.7076 91.7796L70.7017 91.7489C69.3813 91.6286 65.9745 88.5154 70.1648 86.31C71.2698 85.0111 71.0763 83.9496 71.0727 82.7524C70.3803 82.7618 68.6788 82.7423 68.4299 82.7257C64.0131 82.7092 64.5804 79.8597 65.8526 76.8267C66.7347 74.8418 71.7086 65.3584 72.5907 64.0352C73.4729 62.7119 73.4729 62.0503 72.8113 60.727C72.1496 59.4037 72.3702 57.1983 72.8113 55.6545C73.2524 54.1107 74.1345 51.6847 73.4729 51.0231C72.8113 50.3615 73.0318 48.1561 73.2524 47.715C73.4729 47.2738 73.4729 46.1712 73.4729 45.7301C73.4729 45.289 73.6934 44.1863 74.3551 43.7452C75.0167 43.3041 75.4578 41.7603 75.0167 41.3192C74.5756 40.8781 75.2372 37.7906 75.8989 37.57C76.5605 37.3494 77.8838 36.9083 78.5454 35.3646C78.4672 33.1866 80.178 30.7148 81.1919 29.6304C81.8536 28.9688 81.633 26.7633 81.633 26.7633L83.5735 26.8078C83.7849 26.7373 85.3822 24.5579 86.9261 24.1168C88.4698 23.6758 91.9985 21.9114 91.9985 21.9114L94.4245 19.2649L96.6299 20.3676C96.6299 20.3676 98.3943 19.706 99.9381 19.4854C101.482 19.2649 104.79 18.1622 105.893 16.3978C106.995 14.6335 106.775 18.4976 106.81 18.709C106.951 18.7442 108.76 17.7211 111.847 17.9417C114.935 18.1622 118.464 19.4854 119.566 19.0443C120.669 18.6033 121.772 19.9265 121.772 19.9265C121.772 19.9265 123.977 21.2498 125.742 21.2498C127.506 21.2498 129.05 21.2498 129.05 21.2498L129.27 22.7936C129.27 22.7936 132.578 23.9316 134.122 24.5932C135.666 25.2548 136.989 26.1017 138.974 26.3223C140.959 26.5428 141.621 27.2044 141.621 27.2044L140.739 28.9688C140.739 28.9688 143.12 29.4543 143.826 31.8358C145.149 33.6002 146.914 36.4673 148.237 36.6878C149.56 36.9083 150.442 37.57 150.442 37.57L148.678 39.7754C148.678 39.7754 149.119 40.4371 150.001 41.3192C150.884 42.2014 152.648 43.7452 152.648 43.7452L151.545 45.7301C151.545 45.7301 151.545 46.1712 151.766 47.2738C151.986 48.3766 151.986 50.3615 153.089 50.8026C154.192 51.2437 154.192 52.5669 154.192 52.5669C154.192 52.5669 154.412 52.7874 153.089 53.2285C151.766 53.6696 150.884 53.6697 151.545 54.5518C152.207 55.4339 153.31 56.9778 153.31 56.9778C153.31 56.9778 152.207 57.6394 151.104 57.8599C150.001 58.0805 148.899 58.0805 148.899 58.0805C148.899 58.0805 149.781 62.2708 150.663 62.9324C151.545 63.5941 149.34 64.0352 148.016 63.3735C146.693 62.7119 147.52 65.3584 148.402 65.579C149.284 65.7995 148.082 66.1081 147.046 66.119C146.163 65.8985 145.028 66.0528 145.535 67.3542C146.197 69.1185 146.914 69.9898 145.149 70.872C143.385 71.7542 141.786 75.7239 142.668 77.0472C143.55 78.3705 144.047 80.3553 144.047 80.3553L139.856 80.5759C139.856 80.5759 139.57 81.2375 140.672 82.3402C141.775 83.4429 142.878 84.7 142.723 85.0086C142.757 85.4859 139.404 85.2923 139.438 85.7695C142.29 99.8672 149.064 103.821 149.073 104.564L148.537 104.939Z" fill="black" stroke="black" stroke-width="2.08" stroke-linecap="round"/>
<path fill-rule="evenodd" clip-rule="evenodd" d="M78.2659 37.3971C76.7962 38.4994 75.5101 40.3367 76.7962 41.439C78.4496 42.9088 79.1845 43.46 79.1845 43.46C79.1845 43.46 76.245 42.5413 75.6938 43.6437C75.1426 44.746 74.4994 46.4227 75.6938 46.767C76.6124 47.3182 78.6333 48.4205 78.6333 48.4205C78.6333 48.4205 74.0403 47.8694 75.1426 48.0531C74.5914 49.5228 74.0403 52.095 76.9799 53.1973C79.9195 54.2997 89.1056 57.6067 90.7592 58.5253C92.4126 59.4439 96.0871 59.9951 97.9244 59.9951C99.7616 59.9951 106.56 60.3625 105.457 60.3625L101.415 61.4649C100.726 61.5338 109.775 64.5416 111.107 64.2666C111.819 62.6127 121.074 53.9322 126.218 64.5882C126.769 66.9766 124.932 70.6511 123.094 71.386C121.257 72.1209 120.339 73.0395 119.604 75.0605C118.869 77.0814 116.987 80.6865 114.966 80.3888C112.185 78.5743 110.969 78.7349 112.255 80.2047C113.679 82.226 117.008 82.3181 118.685 79.8372C120.086 78.1148 121.348 73.66 124.197 72.4883C125.667 71.9372 127.504 68.4464 127.504 68.4464C127.504 68.4464 130.076 68.2627 131.178 69.365C132.281 70.4673 135.037 70.4673 136.69 70.2836C138.344 70.0999 141.123 69.4802 140.204 69.4802C139.285 69.4802 142.754 69.3654 143.856 69.5491C144.958 69.7328 144.59 66.7929 142.753 65.3231C140.916 63.8533 135.771 61.4649 134.669 59.9951C133.567 58.5253 125.667 54.116 123.462 53.9322C121.257 53.7485 118.501 52.2787 118.501 52.2787C118.501 52.2787 122.636 52.2101 120.615 51.8427C118.594 51.4753 114.643 49.8903 112.622 49.1554C110.601 48.4205 108.948 48.4205 106.743 48.4205C104.538 48.4205 89.9023 44.8358 86.2503 42.6073C83.4944 41.6887 99.3252 46.2848 101.162 46.4685C104.286 46.9279 105.273 46.3077 100.129 43.8274C97.9244 42.5413 88.1058 37.3924 80.2476 35.2411C79.4432 36.0455 79.7357 36.2948 78.2659 37.3971Z" fill="white" stroke="black" stroke-width="0.26" stroke-linecap="round"/>
<path d="M118.388 67.6548C118.459 67.6631 118.756 67.7155 118.946 67.9144C119.157 68.1864 119.335 68.4304 119.442 68.6931C119.52 69.0434 119.623 69.3329 119.566 69.6664C119.447 69.993 119.287 70.2253 119.07 70.445C118.824 70.7481 118.646 70.9017 118.388 71.0939C118.1 71.23 117.825 71.495 117.582 71.6129C117.465 71.7706 117.166 71.8869 117.024 72.0672C116.859 72.2887 116.731 72.3987 116.714 72.716C116.607 73.0312 116.571 73.4194 116.528 73.7543C116.467 74.1226 116.381 74.4682 116.342 74.7925C116.187 75.0702 116.018 75.2127 115.66 75.3116C115.364 75.3641 115.057 75.3765 114.73 75.3765C114.545 75.1993 114.229 74.9991 114.048 74.7925C114.048 74.6194 114.048 74.4464 114.048 74.2733" stroke="white" stroke-width="5.26203" stroke-linecap="round"/>
<path fill-rule="evenodd" clip-rule="evenodd" d="M113.227 66.1976C114.812 63.6467 124.74 58.9586 122.327 68.0591C121.776 69.0243 122.81 69.438 123.086 68.7486C125.636 57.9935 114.674 62.4747 112.951 65.3014C112.261 66.4735 113.227 66.2666 113.227 66.1976Z" fill="white" stroke="white" stroke-width="2.08" stroke-linecap="round"/>
<path d="M77.4175 50.675C81.1404 50.606 85.0702 50.8128 88.1036 52.7432C91.1371 54.6736 93.8259 55.2252 97.0662 55.2252C100.307 55.2252 101.961 55.2941 101.961 55.2941" stroke="black" stroke-width="4.16" stroke-linecap="round"/>
<path d="M123.271 56.2732C129.493 58.6814 130.596 59.3898 133.222 61.0897C135.849 62.7896 136.82 63.0729 139.033 64.4895C140.678 65.4811 141.659 66.6144 141.659 66.6144C143.076 67.7477 135.513 62.2229 130.599 63.3562C128.802 63.3562 128.525 63.3562 126.866 61.5146C125.207 59.6731 123.271 58.1148 120.506 56.9815C117.741 55.8482 112.902 54.0067 112.902 54.0067" stroke="black" stroke-width="4.10969" stroke-linecap="round"/>
<path d="M130.186 67.0458C130.563 67.0458 132.132 66.9862 132.736 67.1874C133.262 67.2586 134.105 67.3269 134.577 67.4708C135.379 67.5661 136.117 67.7328 136.986 67.7541C137.92 67.7625 138.252 68.0478 139.111 68.179C139.379 68.5144 139.886 68.9173 140.244 69.1707" stroke="black" stroke-width="3.64" stroke-linecap="round"/>
<path d="M78.7368 61.8245C81.0212 64.975 84.522 66.7024 88.3485 67.5218C88.2519 68.4477 83.7045 68.5069 82.0097 70.654" stroke="white" stroke-width="4.68" stroke-linecap="round"/>
<path fill-rule="evenodd" clip-rule="evenodd" d="M164.259 25.5038C164.332 26.3082 164.585 29.8207 164.234 29.8603C162.251 30.1436 160.883 30.4757 159.184 32.1756C157.484 33.8755 153.593 36.7699 151.388 32.797C150.254 30.5305 153.014 29.4703 154.431 29.4703C155.823 29.4216 158.011 28.3462 160.277 27.7795C162.544 27.2129 163.464 25.7568 163.747 26.0401L164.259 25.5038Z" stroke="black" stroke-width="4.16" stroke-linecap="round"/>
<path fill-rule="evenodd" clip-rule="evenodd" d="M173.212 34.1842C173.523 34.0134 174.992 32.0494 174.232 29.6557C173.129 28.0023 179.223 31.4361 177.937 33.2733C176.31 34.5412 173.085 34.5257 173.212 34.1842Z" stroke="black" stroke-width="4.16" stroke-linecap="round"/>
<path fill-rule="evenodd" clip-rule="evenodd" d="M158.687 26.5024C158.66 26.1277 158.615 22.7756 158.672 22.0354C159.811 21.8646 163.182 21.3756 163.917 22.478C166.531 26.4269 158.919 28.3943 158.735 27.8431L158.687 26.5024Z" stroke="black" stroke-width="4.16" stroke-linecap="round"/>
<path fill-rule="evenodd" clip-rule="evenodd" d="M152.544 34.4469L157.32 50.982C157.32 50.982 160.017 62.7195 151.809 65.8636C149.236 66.0474 148.318 65.6799 148.318 65.6799L149.053 69.7218C152.696 73.4792 155.046 72.5916 158.169 71.3055C161.292 70.0195 161.419 69.9185 163.073 68.9998C164.726 68.0813 167.006 62.9032 167.26 61.4309C167.969 57.6244 170.362 50.1469 177.548 34.2631C176.252 34.1493 167.798 35.0033 167.228 35.0033C166.944 35.4586 165.614 37.6307 163.567 38.4888C161.318 39.4074 158.079 36.7594 161.362 34.6306C162.967 33.6081 168.29 34.8131 168.191 32.0326C168.056 29.6166 164.486 29.8538 163.016 30.0375C161.546 30.2212 159.525 31.8748 158.606 32.7934C156.549 34.8506 153.646 35.1818 152.544 34.4469Z" stroke="black" stroke-width="4.16" stroke-linecap="round"/>
<path fill-rule="evenodd" clip-rule="evenodd" d="M145.186 73.7973C146.288 75.6345 147.39 77.8392 147.941 80.7788C148.493 83.7184 150.084 87.8302 154.188 88.8626C157.495 89.7813 160.435 91.2511 161.17 93.8232C161.904 96.3953 162.43 99.6765 162.43 99.6196L167.543 92.3844C167.486 91.4167 167.447 89.0593 167.447 86.3035C167.39 82.2951 164.42 81.317 161.48 80.2147C158.54 79.1124 155.246 77.7435 154.328 76.09C153.409 74.4365 151.065 71.5926 149.779 70.4903C148.493 69.388 145.186 73.7973 145.186 73.7973Z" stroke="black" stroke-width="4.16" stroke-linecap="round"/>
<path fill-rule="evenodd" clip-rule="evenodd" d="M150.595 107.928C153.435 113.034 154.085 119.591 155.253 124.477C157.28 120.628 160.435 117.884 163.76 115.724C163.955 111.891 164.926 106.601 166.028 104.947C171.352 97.1878 167.605 92.7454 167.605 92.7454C162.285 98.9938 162.101 103.464 150.604 107.918L150.595 107.928Z" stroke="black" stroke-width="4.16" stroke-linecap="round"/>
<path fill-rule="evenodd" clip-rule="evenodd" d="M145.523 123.722C145.377 124.989 147.073 129.396 149.943 129.592C152.763 129.786 154.39 127.616 154.906 125.081L153.493 116.565L145.523 123.722Z" stroke="black" stroke-width="4.16" stroke-linecap="round"/>
<path fill-rule="evenodd" clip-rule="evenodd" d="M145.498 67.1865C144.932 65.6282 145.782 65.6281 147.34 66.3364C149.89 67.8948 148.048 71.8612 145.215 72.7112C143.657 73.4195 142.807 71.5779 145.074 70.728C147.198 70.1613 145.498 67.0448 145.498 67.1865Z" fill="white"/>
<path d="M145.498 67.1865C144.932 65.6282 145.782 65.6281 147.34 66.3364C149.89 67.8948 148.048 71.8612 145.215 72.7112C143.657 73.4195 142.807 71.5779 145.074 70.728C147.198 70.1613 145.498 67.0448 145.498 67.1865ZM145.498 67.1865H145.64" stroke="black" stroke-width="2.08" stroke-linecap="round"/>
<path d="M163.929 91.4533C163.929 91.5174 163.929 91.5815 163.929 91.6455C163.929 91.1268 163.92 91.3905 164.071 92.414C164.071 93.4536 164.149 94.3267 164.213 95.2961C164.213 96.099 164.117 96.6742 164.071 97.4096" stroke="black" stroke-width="2.6" stroke-linecap="round"/>
<path d="M162.513 92.4141C162.513 92.531 162.513 92.648 162.513 92.7649C162.513 92.116 162.495 92.2992 162.655 93.2912C162.712 94.2797 162.91 94.7961 162.938 95.7471C162.938 96.7121 162.823 97.4614 162.797 98.3785" stroke="black" stroke-width="2.6" stroke-linecap="round"/>
<path d="M161.802 113.556C161.849 113.556 161.896 113.556 161.943 113.556C161.906 113.689 161.943 114.448 161.943 114.955C161.943 115.719 161.929 116.464 161.802 116.955" stroke="black" stroke-width="2.6" stroke-linecap="round"/>
<path d="M160.243 114.26C160.243 114.355 160.243 114.449 160.243 114.544V114.26ZM160.243 114.26C160.274 115.307 160.385 115.886 160.385 116.952C160.385 117.278 160.446 117.525 160.243 117.66" stroke="black" stroke-width="2.6" stroke-linecap="round"/>
<path d="M158.828 115.112C158.885 116.253 159.076 117 159.111 118.172C159.111 118.761 158.993 118.827 158.969 119.362" stroke="black" stroke-width="2.6" stroke-linecap="round"/>
<path d="M157.124 115.979C157.124 116.038 157.124 116.098 157.124 116.158C157.124 115.675 157.115 115.92 157.266 116.874C157.292 117.753 157.407 118.227 157.407 119.201C157.381 120.136 157.174 120.526 157.124 121.349" stroke="black" stroke-width="2.6" stroke-linecap="round"/>
<path d="M155.846 116.535C155.846 116.788 155.923 117.771 155.988 118.377C155.988 119.038 155.988 119.699 155.988 120.36C155.909 121.02 155.765 121.73 155.563 122.202C155.563 122.343 155.563 122.485 155.563 122.627" stroke="black" stroke-width="2.6" stroke-linecap="round"/>
<path d="M165.348 91.7656C165.384 92.0317 165.594 93.0478 165.348 93.7008C165.348 94.2782 165.282 94.5743 165.207 94.991" stroke="black" stroke-width="2.6" stroke-linecap="round"/>
<path d="M148.979 67.2443C150.88 67.6343 155.511 67.2443 157.364 65.8793C159.216 64.5143 159.216 64.5143 159.216 64.5143" stroke="black" stroke-width="2.08" stroke-linecap="round"/>
<path d="M148.988 68.1742C150.804 68.8589 155.439 69.2036 157.483 68.1475C159.528 67.0914 159.528 67.0914 159.528 67.0914" stroke="black" stroke-width="2.08" stroke-linecap="round"/>
<path d="M148.83 70.6611C149.805 71.8311 150.487 72.4161 150.78 73.9761C151.072 75.5361 151.072 75.5361 151.072 75.5361" stroke="black" stroke-width="2.08" stroke-linecap="round"/>
<path d="M147.663 71.2495C148.833 72.907 149.613 73.492 150.003 75.1495C150.393 76.807 150.393 76.807 150.393 76.807" stroke="black" stroke-width="2.08" stroke-linecap="round"/>
<path d="M146.686 72.322C147.174 74.857 149.124 79.6344 150.586 81.1944C152.049 82.7544 152.049 82.7544 152.049 82.7544" stroke="black" stroke-width="2.08" stroke-linecap="round"/>
<path d="M154 126.216C153.016 126.088 151.102 124.499 150.672 123.929C150.243 123.358 150.211 123.117 150.211 123.117" stroke="black" stroke-width="2.48727" stroke-linecap="round"/>
<path d="M153.317 127.509C152.253 127.252 150.182 125.509 149.717 124.92C149.252 124.331 149.158 124.177 149.158 124.177" stroke="black" stroke-width="2.48705" stroke-linecap="round"/>
<path d="M152.733 128.703C151.609 128.579 149.286 126.82 148.742 126.183C148.198 125.546 148.198 125.546 148.198 125.546" stroke="black" stroke-width="2.81331" stroke-linecap="round"/>
<path d="M166.701 40.2859C166.558 41.4689 166.486 43.7991 166.916 45.269C167.347 46.7388 167.347 46.7388 167.347 46.7388" stroke="black" stroke-width="2.08" stroke-linecap="round"/>
<path d="M170.148 36.5525C169.323 36.8393 168.104 37.4846 167.71 38.0223C167.315 38.5601 167.315 38.5601 167.315 38.5601" stroke="black" stroke-width="2.08" stroke-linecap="round"/>
<path d="M160.187 37.6198C161.962 40.7412 161.411 50.9402 161.044 52.1017C160.676 53.2631 160.676 53.2631 160.676 53.2631" stroke="black" stroke-width="2.73543" stroke-linecap="round"/>
<path d="M154.394 31.2783C153.663 31.522 152.152 32.7164 152.03 33.3745" stroke="black" stroke-width="2.08" stroke-linecap="round"/>
<path d="M155.561 32.1378C154.829 32.3815 153.318 33.5759 153.196 34.234" stroke="black" stroke-width="2.08" stroke-linecap="round"/>
<path d="M80.9895 64.66C79.5414 64.5823 79.4239 68.7813 81.29 68.6841" stroke="#FEFFFF" stroke-width="3.016" stroke-linecap="round"/>
<path d="M81.2991 64.66C82.7472 64.5823 82.8647 68.7813 80.9985 68.6841" stroke="#FEFFFF" stroke-width="3.016" stroke-linecap="round"/>
<path d="M81.1996 64.7413L81.1499 68.2602" stroke="#FEFFFF" stroke-width="7.42932" stroke-linecap="round"/>
</g>
<defs>
<clipPath id="clip0_518_211">
<rect width="225" height="135" fill="white" transform="translate(0 7)"/>
</clipPath>
</defs>
</svg>
