<?xml version="1.0" encoding="utf-8"?>
<!-- Generator: Adobe Illustrator 19.1.0, SVG Export Plug-In . SVG Version: 6.00 Build 0)  -->
<svg version="1.1" id="Calque_1" xmlns="http://www.w3.org/2000/svg" xmlns:xlink="http://www.w3.org/1999/xlink" x="0px" y="0px"
	 width="225px" height="150px" viewBox="0 0 225 150" style="enable-background:new 0 0 225 150;" xml:space="preserve">
<style type="text/css">
	.st0{fill:#CE142B;}
	.st1{fill:#FEFDFD;}
	.st2{fill:#00247D;}
</style>
<g id="english">
	<g>
		<path class="st0" d="M0,90c0-10,0-20,0-30c33.4,0,66.9,0,100.3,0c0.8,0,1.1-0.3,1.1-1.4c0-19.5,0-39.1,0-58.6c7.5,0,15,0,22.5,0
			c0,19.5,0,38.9,0,58.4c0,1.6,0,1.6,1.2,1.6c33,0,66,0,99,0c0.8,0,1.2,0.2,1.1,1.4c-0.1,9,0,18,0,27c0,1.3-0.2,1.6-1.2,1.6
			c-33.1,0-66.1,0-99.2-0.1c-0.8,0-1,0.2-1,1.3c0,19.1,0,38.2,0,57.4c0,1.1-0.2,1.3-1,1.3c-6.8,0-13.6,0-20.5,0
			c-0.8,0-1.1-0.2-1.1-1.4c0-19.1,0-38.2,0-57.2c0-1.1-0.2-1.4-1.1-1.4C66.9,90,33.5,90,0,90z"/>
		<path class="st1" d="M0,89.8c33.4,0,66.9,0,100.3,0c0.9,0,1.1,0.3,1.1,1.4c0,19,0,38.1,0,57.1c0,1.2,0.3,1.4,1.1,1.4
			c6.8,0,13.6,0,20.5,0c0.8,0,1-0.2,1-1.3c0-19.1,0-38.2,0-57.3c0-1.1,0.2-1.3,1-1.3c33.1,0,66.1,0,99.2,0.1c1,0,1.2-0.4,1.2-1.6
			c0-9,0-18,0-26.9c0-1.3-0.3-1.4-1.1-1.4c-33,0-66,0-99,0c-1.2,0-1.2,0-1.2-1.6c0-19.4,0-38.8,0-58.3c2.5,0,5,0,7.5,0
			c0,15.1,0,30.3,0,45.6c0.4-0.2,0.7-0.4,0.9-0.6c20.3-13.5,40.5-26.9,60.8-40.4c2.3-1.5,4.6-2.9,6.8-4.6c2.8,0,5.6,0,8.4,0
			c-0.3,0.2-0.6,0.5-1,0.7c-24.3,16.1-48.6,32.3-72.8,48.4c-0.3,0.2-0.5,0.4-0.8,0.5c0,0.1,0,0.1,0,0.2c0.3,0,0.6,0,0.9,0
			c4.8,0,9.6,0,14.4,0c0.8,0,1.4-0.2,2.1-0.7c24.3-16.2,48.7-32.4,73-48.6c0.3-0.2,0.7-0.3,0.9-0.7c0.1,0.1,0.4-0.2,0.4,0.2
			c0,0.3,0,0.6,0,0.9c-0.2,49.2-0.3,98.5,0,147.7c0,0.9-0.2,1.1-0.9,1.1c-74.6,0-149.1,0-223.7,0c-0.7,0-0.9-0.2-0.9-1.1
			c0-5.4,0-10.7,0-16.1c0.4,0.2,0.6-0.2,0.9-0.4c16-10.6,31.9-21.2,47.9-31.8c0.3-0.2,0.5-0.4,1-0.7c-16.8,0-33.3,0-49.8,0
			C0,96.5,0,93.2,0,89.8z M25.3,149.9c0.4,0,0.5,0.1,0.5,0.1c22.4,0,44.8,0,67.2,0c0.7,0,0.8-0.4,0.8-1.2c0-14.5,0-29,0-43.5
			c0-0.3,0.1-0.6-0.1-1C71,119.5,48.2,134.6,25.3,149.9z M199.7,150c0-0.1,0-0.1,0-0.2c-22.7-15.1-45.5-30.3-68.3-45.5
			c0,0.6,0,1,0,1.4c0,14.3,0,28.6,0,43c0,1.1,0.2,1.3,1,1.3c22.1,0,44.3,0,66.4,0C199.1,150,199.4,150,199.7,150z M0.4,149.8
			c0,0.1,0,0.1,0,0.2c0.3,0,0.6,0,0.9,0c4.8,0,9.7,0,14.5,0c0.7,0,1.3-0.2,1.9-0.6c24.3-16.2,48.7-32.4,73-48.6
			c0.3-0.2,0.5-0.4,0.8-0.6c0-0.1,0-0.1,0-0.2c-0.3,0-0.6,0-0.9,0c-4.8,0-9.6,0-14.4,0c-0.7,0-1.4,0.2-2,0.7
			C49.8,116.9,25.5,133,1.1,149.2C0.9,149.4,0.6,149.6,0.4,149.8z M175.6,49.8c0,0.1,0,0.1,0,0.2c0.1,0,0.2,0,0.4,0
			c16.1,0,32.3,0,48.4,0c0.7,0,0.8-0.3,0.8-1.1c0-10.2,0-20.5,0-30.7c0-1.4,0-1.4-1-0.8c-10.9,7.2-21.7,14.5-32.6,21.7
			C186.3,42.7,181,46.2,175.6,49.8z M175.7,100c0,0.1,0,0.2,0,0.2c16.5,11,32.9,21.9,49.5,33c0-0.6,0-1,0-1.4c0-10.2,0-20.3,0-30.5
			c0-1.1-0.2-1.4-1-1.4c-15.9,0-31.8,0-47.6,0C176.3,100,176,100,175.7,100z M225.2,150c0-3.5,0-6.7,0-10c0-0.9-0.2-1.3-0.8-1.7
			c-18.9-12.6-37.8-25.2-56.8-37.8c-0.5-0.3-0.9-0.5-1.4-0.5c-5,0-10.1,0-15.1,0c-0.2,0-0.5-0.2-0.7,0.2
			C175.4,116.8,200.2,133.4,225.2,150z"/>
		<path class="st1" d="M101.3,0c0,19.5,0,39.1,0,58.6c0,1.1-0.2,1.4-1.1,1.4C66.9,60,33.4,60,0,60c0-3.3,0-6.7,0-10
			c16.5,0,33,0,49.8,0c-0.4-0.3-0.5-0.4-0.6-0.4C33.1,38.8,16.9,28,0.8,17.3C0.5,17.1,0.3,16.8,0,17c0-1.9,0-3.8,0-5.7
			c0.3,0.2,0.6,0.3,0.9,0.5c18.8,12.5,37.6,25,56.4,37.6c0.6,0.4,1.3,0.6,2,0.6c4.9,0,9.8,0,14.6,0c0.3,0,0.5,0.1,0.8-0.2
			c-0.3-0.2-0.6-0.4-0.9-0.6C49.7,33.1,25.4,16.9,1.2,0.8C0.8,0.6,0.4,0.4,0.2,0C8.6,0,17,0,25.4,0c0.2,0.2,0.4,0.4,0.6,0.5
			c22.3,14.9,44.7,29.8,67,44.7c0.2,0.2,0.5,0.5,0.8,0.3c0-15.1,0-30.3,0-45.5C96.3,0,98.8,0,101.3,0z"/>
		<path class="st2" d="M93.8,0c0,15.2,0,30.3,0,45.5c-0.4,0.2-0.6-0.1-0.8-0.3C70.7,30.3,48.3,15.4,26,0.5c-0.2-0.1-0.4-0.3-0.6-0.5
			C48.2,0,71,0,93.8,0z"/>
		<path class="st2" d="M199.9,0c-2.2,1.7-4.5,3.1-6.8,4.6c-20.3,13.5-40.5,27-60.8,40.5c-0.2,0.2-0.5,0.3-0.9,0.6
			c0-15.3,0-30.5,0-45.7C154.2,0,177,0,199.9,0z"/>
		<path class="st0" d="M225,0c-0.2,0.4-0.6,0.5-0.9,0.7c-24.3,16.2-48.7,32.4-73,48.6c-0.7,0.5-1.4,0.7-2.1,0.7c-4.8,0-9.6,0-14.4,0
			c-0.3,0-0.6,0-0.9,0c0-0.1,0-0.1,0-0.2c0.3-0.2,0.5-0.4,0.8-0.5c24.3-16.2,48.6-32.3,72.8-48.5c0.3-0.2,0.7-0.5,1-0.7
			C213.9,0,219.4,0,225,0z"/>
		<path class="st2" d="M0,17c0.3-0.2,0.5,0.1,0.7,0.3C16.9,28,33.1,38.8,49.2,49.6c0.1,0.1,0.2,0.2,0.6,0.4C33,50,16.5,50,0,50
			C0,39,0,28,0,17z"/>
		<path class="st2" d="M0,100c16.5,0,33,0,49.8,0c-0.5,0.4-0.8,0.6-1,0.7c-16,10.6-31.9,21.3-47.9,31.9c-0.3,0.2-0.5,0.6-0.9,0.4
			C0,122,0,111,0,100z"/>
		<path class="st0" d="M0.2,0c0.2,0.4,0.6,0.5,0.9,0.7C25.3,16.9,49.6,33,73.8,49.2c0.3,0.2,0.5,0.4,0.9,0.6
			C74.5,50.1,74.2,50,74,50c-4.9,0-9.8,0-14.6,0c-0.7,0-1.3-0.2-2-0.6C38.6,36.9,19.8,24.3,1,11.8c-0.3-0.2-0.6-0.4-0.9-0.5
			c0-3.5,0-7,0-10.5C0,0.5-0.2,0.1,0.2,0z"/>
		<path class="st2" d="M25.3,149.9c23-15.3,45.7-30.4,68.4-45.6c0.2,0.4,0.1,0.7,0.1,1c0,14.5,0,29,0,43.5c0,0.8,0,1.2-0.8,1.2
			c-22.4,0-44.8,0-67.2,0C25.8,150,25.7,150,25.3,149.9z"/>
		<path class="st2" d="M199.7,150c-0.3,0-0.6,0-0.9,0c-22.1,0-44.3,0-66.4,0c-0.8,0-1-0.2-1-1.3c0-14.3,0-28.6,0-43
			c0-0.4,0-0.8,0-1.4c22.9,15.2,45.6,30.4,68.3,45.5C199.7,149.8,199.7,149.9,199.7,150z"/>
		<path class="st0" d="M0.4,149.8c0.3-0.2,0.5-0.4,0.8-0.5c24.3-16.2,48.6-32.4,72.9-48.6c0.7-0.4,1.3-0.7,2-0.7c4.8,0,9.6,0,14.4,0
			c0.3,0,0.6,0,0.9,0c0,0.1,0,0.1,0,0.2c-0.3,0.2-0.5,0.4-0.8,0.6c-24.3,16.2-48.7,32.4-73,48.6c-0.6,0.4-1.2,0.6-1.9,0.6
			c-4.8,0-9.7,0-14.5,0c-0.3,0-0.6,0-0.9,0C0.4,149.9,0.4,149.9,0.4,149.8z"/>
		<path class="st2" d="M175.6,49.8c5.3-3.5,10.6-7.1,16-10.6c10.9-7.2,21.7-14.5,32.6-21.7c1-0.6,1-0.6,1,0.8c0,10.2,0,20.5,0,30.7
			c0,0.8-0.1,1.1-0.8,1.1c-16.1,0-32.3,0-48.4,0c-0.1,0-0.2,0-0.4,0C175.7,49.9,175.7,49.9,175.6,49.8z"/>
		<path class="st2" d="M175.7,100c0.3,0,0.6,0,0.9,0c15.9,0,31.8,0,47.6,0c0.8,0,1,0.3,1,1.4c0,10.2,0,20.3,0,30.5
			c0,0.4,0,0.8,0,1.4c-16.6-11.1-33.1-22-49.5-33C175.7,100.2,175.7,100.1,175.7,100z"/>
		<path class="st0" d="M225.2,150c-25-16.6-49.8-33.2-74.7-49.8c0.2-0.4,0.5-0.2,0.7-0.2c5,0,10.1,0,15.1,0c0.5,0,1,0.2,1.4,0.5
			c18.9,12.6,37.8,25.2,56.8,37.8c0.6,0.4,0.8,0.8,0.8,1.7C225.2,143.2,225.2,146.5,225.2,150z"/>
	</g>
</g>
</svg>
