<svg id="Layer_4" data-name="Layer 4" xmlns="http://www.w3.org/2000/svg" viewBox="0 0 264.79 348.48"><defs><style>.cls-1{fill:#dcdde0;}.cls-2{fill:#fcc18b;}.cls-3{fill:#414355;}.cls-4{fill:#858fa9;}.cls-5{fill:none;stroke:#414355;stroke-miterlimit:10;}.cls-6{fill:#ffa348;}.cls-7{fill:#2a9cc8;}.cls-8{font-size:8px;font-family:Lato-Thin, Lato;font-weight:200;opacity:0.5;}.cls-9{letter-spacing:-0.01em;}.cls-10{letter-spacing:-0.01em;}.cls-11{letter-spacing:-0.03em;}.cls-12{letter-spacing:-0.01em;}</style></defs><title>5illus-corbeille</title><path class="cls-1" d="M428.11,430.09c0,5.25-13,5-42.5,7-24.25,1.65-38-1.75-38-7s12.2-9.5,36.5-9.5S428.11,424.85,428.11,430.09Z" transform="translate(-347.61 -122.49)"/><path class="cls-1" d="M595.11,426.59c7,8-17.32,8.67-46,10-43,2-52.1-3-50-7.5,4-8.5,37.47-11,66.16-9.83C586.11,420.09,591.65,422.64,595.11,426.59Z" transform="translate(-347.61 -122.49)"/><path class="cls-2" d="M477.86,168.2a.39.39,0,0,1,.41-.26c2.78.47,5.86,1.4,8,3.33a8.07,8.07,0,0,1,2.64,4.93c.24,1,.32,1.68.5,2.63.33,1.28-.12,1-.58.89-2.94-.59-6.14-1.4-8.38-3.51C478.64,174.52,477.21,170.63,477.86,168.2Z" transform="translate(-347.61 -122.49)"/><path class="cls-2" d="M544,127.15a.31.31,0,0,1,.36-.11,12,12,0,0,1,5.17,4,6.1,6.1,0,0,1,1,4.13c0,.75-.1,1.3-.16,2,0,1-.28.7-.6.54-2-1-4.22-2.25-5.44-4.24C543.32,131.94,543,128.8,544,127.15Z" transform="translate(-347.61 -122.49)"/><path class="cls-2" d="M563.19,128.36a.31.31,0,0,1,.36.09,12,12,0,0,1,2.37,6.12,6.16,6.16,0,0,1-1.32,4c-.39.63-.75,1.06-1.18,1.65-.53.86-.59.46-.79.15-1.22-1.92-2.46-4.1-2.48-6.43C560.14,132.11,561.52,129.28,563.19,128.36Z" transform="translate(-347.61 -122.49)"/><path class="cls-2" d="M579.1,170.43a.32.32,0,0,1,.38,0,12,12,0,0,1,3.4,5.61,6.18,6.18,0,0,1-.58,4.21c-.28.69-.55,1.17-.87,1.83-.37.94-.51.55-.75.29-1.54-1.68-3.14-3.61-3.57-5.9C576.76,174.65,577.62,171.63,579.1,170.43Z" transform="translate(-347.61 -122.49)"/><path class="cls-2" d="M603,174.67a.3.3,0,0,1,.32.19,12.07,12.07,0,0,1,.51,6.54,6.21,6.21,0,0,1-2.42,3.49c-.56.5-1,.8-1.61,1.25-.75.66-.7.26-.8-.09-.62-2.19-1.17-4.63-.52-6.87C599,177.38,601.09,175.07,603,174.67Z" transform="translate(-347.61 -122.49)"/><path class="cls-2" d="M578.19,143.36a.31.31,0,0,1,.36.09,12,12,0,0,1,2.37,6.12,6.16,6.16,0,0,1-1.32,4c-.39.63-.75,1.06-1.18,1.65-.53.86-.59.46-.79.15-1.22-1.92-2.46-4.1-2.48-6.43C575.14,147.11,576.52,144.28,578.19,143.36Z" transform="translate(-347.61 -122.49)"/><path class="cls-2" d="M567.19,168.36a.31.31,0,0,1,.36.09,12,12,0,0,1,2.37,6.12,6.16,6.16,0,0,1-1.32,4c-.39.63-.75,1.06-1.18,1.65-.53.86-.59.46-.79.15-1.22-1.92-2.46-4.1-2.48-6.43C564.14,172.11,565.52,169.28,567.19,168.36Z" transform="translate(-347.61 -122.49)"/><path class="cls-2" d="M518.74,139.32a.31.31,0,0,0-.12.36,12,12,0,0,0,3.85,5.3,6.16,6.16,0,0,0,4.1,1.1c.75,0,1.3-.06,2-.09,1,0,.71-.26.56-.58-.95-2.08-2.11-4.3-4-5.58C523.55,138.8,520.42,138.42,518.74,139.32Z" transform="translate(-347.61 -122.49)"/><path class="cls-2" d="M556.74,174.32a.31.31,0,0,0-.12.36,12,12,0,0,0,3.85,5.3,6.16,6.16,0,0,0,4.1,1.1c.75,0,1.3-.06,2-.09,1,0,.71-.26.56-.58-.95-2.08-2.11-4.3-4-5.58C561.55,173.8,558.42,173.42,556.74,174.32Z" transform="translate(-347.61 -122.49)"/><path class="cls-2" d="M505.76,151.49a.31.31,0,0,1,.38,0,12,12,0,0,1,3.71,5.41,6.15,6.15,0,0,1-.34,4.23c-.24.71-.48,1.2-.76,1.88-.32,1-.48.58-.74.33-1.63-1.59-3.34-3.42-3.9-5.68C503.66,155.84,504.35,152.77,505.76,151.49Z" transform="translate(-347.61 -122.49)"/><path class="cls-2" d="M512.76,137.49a.31.31,0,0,1,.38,0,12,12,0,0,1,3.71,5.41,6.15,6.15,0,0,1-.34,4.23c-.24.71-.48,1.2-.76,1.88-.32,1-.48.58-.74.33-1.63-1.59-3.34-3.42-3.9-5.68C510.66,141.84,511.35,138.77,512.76,137.49Z" transform="translate(-347.61 -122.49)"/><path class="cls-2" d="M611.13,184.82a.32.32,0,0,1,0,.37,12.12,12.12,0,0,1-5.73,3.2,6.18,6.18,0,0,1-4.18-.74c-.69-.3-1.16-.59-1.81-.93-.92-.41-.53-.53-.25-.77,1.73-1.48,3.71-3,6-3.35C607,182.32,610,183.29,611.13,184.82Z" transform="translate(-347.61 -122.49)"/><path class="cls-2" d="M594.35,155a.4.4,0,0,0-.11-.48c-2.29-1.64-5.12-3.17-8-3.31a8.08,8.08,0,0,0-5.36,1.6c-.85.5-1.42.95-2.22,1.5-1.14.67-.61.77-.22,1,2.49,1.68,5.32,3.38,8.39,3.48C589.31,158.9,593.08,157.17,594.35,155Z" transform="translate(-347.61 -122.49)"/><path class="cls-2" d="M578.06,130.5a.4.4,0,0,0-.35-.34c-2.81-.1-6,.19-8.48,1.66a8.17,8.17,0,0,0-3.59,4.29c-.43.89-.65,1.58-1,2.48-.59,1.19-.09,1,.38,1,3,0,6.3-.13,8.92-1.74C576,136.53,578.21,133,578.06,130.5Z" transform="translate(-347.61 -122.49)"/><path class="cls-2" d="M557.88,122.64a.4.4,0,0,0-.48-.11c-2.47,1.35-5.08,3.23-6.45,5.75a8.11,8.11,0,0,0-.9,5.52c.09,1,.25,1.69.39,2.65.11,1.32.43.89.84.65,2.59-1.52,5.35-3.33,6.77-6C559.2,128.87,559.28,124.72,557.88,122.64Z" transform="translate(-347.61 -122.49)"/><path class="cls-2" d="M541,124.3a.39.39,0,0,0-.46-.19c-2.64,1-5.52,2.4-7.26,4.67a8.07,8.07,0,0,0-1.74,5.32c-.08,1,0,1.71,0,2.68-.1,1.32.28.94.72.77,2.8-1.1,5.8-2.45,7.64-4.92C541.29,130.65,542,126.57,541,124.3Z" transform="translate(-347.61 -122.49)"/><path class="cls-2" d="M546.61,139.87a.4.4,0,0,0-.39-.31c-2.8.18-6,.77-8.28,2.47a8.06,8.06,0,0,0-3.15,4.61c-.35.93-.5,1.64-.78,2.57-.46,1.24,0,1,.48.94,3-.27,6.26-.74,8.71-2.59C545.16,146.07,547,142.35,546.61,139.87Z" transform="translate(-347.61 -122.49)"/><path class="cls-2" d="M521,164.1a.3.3,0,0,1,0,.37,12.05,12.05,0,0,1-5.31,3.86,6.16,6.16,0,0,1-4.24-.24c-.71-.22-1.22-.45-1.9-.71-1-.3-.59-.47-.35-.73,1.55-1.67,3.33-3.43,5.58-4.05C516.6,162.11,519.68,162.72,521,164.1Z" transform="translate(-347.61 -122.49)"/><path class="cls-2" d="M605.55,207.19a.3.3,0,0,1-.23.29,12,12,0,0,1-6.55-.36,6.13,6.13,0,0,1-3.14-2.85c-.42-.62-.66-1.12-1-1.76-.56-.83-.17-.73.19-.78,2.26-.32,4.75-.56,6.89.38C603.38,202.87,605.4,205.29,605.55,207.19Z" transform="translate(-347.61 -122.49)"/><path class="cls-2" d="M612.19,190.33a.42.42,0,0,1,.19.46c-.94,2.65-2.37,5.54-4.63,7.3a8.12,8.12,0,0,1-5.3,1.77c-1,.08-1.72,0-2.68,0-1.32.11-.95-.28-.78-.72,1.08-2.8,2.41-5.82,4.87-7.67C605.83,190,609.9,189.29,612.19,190.33Z" transform="translate(-347.61 -122.49)"/><path class="cls-2" d="M596.47,171.69a.41.41,0,0,0-.4-.3c-2.8.26-6,.94-8.21,2.7a8.09,8.09,0,0,0-3,4.71c-.32.93-.45,1.65-.7,2.59-.43,1.25,0,1,.51.92,3-.35,6.23-.91,8.62-2.84C595.19,177.93,596.92,174.16,596.47,171.69Z" transform="translate(-347.61 -122.49)"/><path class="cls-2" d="M521,123.3a.39.39,0,0,1,.46-.19c2.65,1,5.52,2.4,7.27,4.67a8.13,8.13,0,0,1,1.74,5.32c.07,1,0,1.71,0,2.68.1,1.32-.29.94-.73.77-2.79-1.1-5.8-2.45-7.63-4.92C520.62,129.65,519.89,125.57,521,123.3Z" transform="translate(-347.61 -122.49)"/><path class="cls-2" d="M477.3,186.6a.41.41,0,0,1-.12-.48c1.31-2.5,3.14-5.14,5.63-6.56a8.14,8.14,0,0,1,5.51-1c1,.06,1.7.21,2.65.34,1.32.08.9.41.67.82-1.47,2.62-3.23,5.41-5.93,6.89C483.55,187.8,479.41,188,477.3,186.6Z" transform="translate(-347.61 -122.49)"/><path class="cls-2" d="M503.76,133.49a.31.31,0,0,1,.38,0,12,12,0,0,1,3.71,5.41,6.15,6.15,0,0,1-.34,4.23c-.24.71-.48,1.2-.76,1.88-.32,1-.48.58-.74.33-1.63-1.59-3.34-3.42-3.9-5.68C501.66,137.84,502.35,134.77,503.76,133.49Z" transform="translate(-347.61 -122.49)"/><path class="cls-2" d="M571,149.1a.3.3,0,0,1,0,.37,12.05,12.05,0,0,1-5.31,3.86,6.16,6.16,0,0,1-4.24-.24c-.71-.22-1.22-.45-1.9-.71-1-.3-.59-.47-.35-.73,1.55-1.68,3.33-3.43,5.58-4.05C566.6,147.11,569.68,147.72,571,149.1Z" transform="translate(-347.61 -122.49)"/><path class="cls-2" d="M489.49,147.12a.4.4,0,0,1,.15-.47c2.45-1.4,5.42-2.64,8.28-2.48a8.1,8.1,0,0,1,5.17,2.13c.79.58,1.32,1.09,2.06,1.72,1.06.78.53.83.11,1-2.65,1.41-5.64,2.82-8.7,2.6C494.1,151.5,490.53,149.4,489.49,147.12Z" transform="translate(-347.61 -122.49)"/><path class="cls-2" d="M480.07,155.84a.41.41,0,0,1,.29-.41c2.74-.63,5.94-1,8.64,0a8.1,8.1,0,0,1,4.34,3.53c.59.78.94,1.43,1.47,2.23.8,1.06.27,1-.19,1.05-2.95.59-6.21,1.07-9.09,0C483.23,161.36,480.41,158.32,480.07,155.84Z" transform="translate(-347.61 -122.49)"/><path class="cls-3" d="M520.11,192.59c0,2.65-.29,5.3-.39,7.95-.05,1.29,1.95,1.28,2,0,.1-2.65.37-5.3.39-7.95a1,1,0,0,0-2,0Z" transform="translate(-347.61 -122.49)"/><path class="cls-4" d="M599,198.26a169.45,169.45,0,0,0-17.21,4.1c-1.74.49-3.44,1.09-5.15,1.66,1.67-2.28,3.29-4.61,4.88-6.93.54-.78,1.16-1.57,1.75-2.38a31.91,31.91,0,0,0,6.07-2.32c3.74-1.65,7.9-3.32,10.8-6.26a1.24,1.24,0,0,0-1.19-2.06c-3.21.78-6.09,2.62-9,4.07-1.41.69-2.85,1.34-4.28,2,.68-2.45.94-5,1.49-7.49.42-2-1.85-4.45-3.83-2.94a13.77,13.77,0,0,0-3.87,4.34,36.55,36.55,0,0,1-5.26,7.39c-.39.43-.78.87-1.16,1.31-.42-4.86-1.81-10.45-5.24-13.95a1.65,1.65,0,0,0-2.73,1.59c1,3.59,2.67,6.87,3.45,10.56a42,42,0,0,1,.78,6.42c-2.55,3.34-5,6.79-7.74,9.95-3.42,3.92-6.89,7.15-9.57,11.41-.42-9.92,1.68-19.58.14-29.42a47.75,47.75,0,0,0-1.85-7.43c1-3.68,2-7.34,3.11-11,4.5-2.48,8.76-5.2,13.49-7.28a101.07,101.07,0,0,0,12.74-7.33c1.37-.89-.28-2.77-1.66-2.16-4.36,2-8.45,4.54-12.79,6.56a55.08,55.08,0,0,0-10.88,7.08l1.83-6.23c2.23-7.63,4.65-15.3,10.21-21.2a1.45,1.45,0,0,0-1.74-2.27c-4.27,2.3-7.23,6.55-9.58,11.09.11-5-.52-10.17-3-14a1.59,1.59,0,0,0-2.9,1.22c.77,3.85,1.84,7.43,2.18,11.4.22,2.57.48,5.11.78,7.66-.37.88-.74,1.73-1.1,2.55a69,69,0,0,0-4.66,14.57,123.25,123.25,0,0,0-7.61-12.81c-2.56-3.79-3.47-10.54-3.56-12.29-.3-5.59,0-10.34-1.12-12.42-1.45-2.7-4.87-1.43-5.75.75-2,5-.45,11.18,0,16.39.09,1,.13,1.94.17,2.94q-4-2-8-4.31c-4.15-2.38-8.32-5.79-13.13-6.72-1.77-.34-4.62,1.57-3.22,3.23,3.19,3.8,9.86,6.3,14,9.8a62.85,62.85,0,0,1,8.44,9.71c4.77,8.14,9.72,15,11.39,24.46-2.13-1.12-4.33-1.67-6.67-2.67-5.14-2.21-10.27-3.31-14.73-6.79a48.63,48.63,0,0,1-7.9-8.06c.2-1.65.21-3.3.35-5a26.2,26.2,0,0,1,1.74-6.45c.6-1.65-1.92-2.62-2.76-1.17a18.82,18.82,0,0,0-2.23,8.7c-2.54-3.76-4.61-8.14-7.81-11.26-2.14-2.08-5.18.06-4.7,2.74.93,5.22,4.39,10.62,6.95,15.21.19.34.39.67.59,1l-2.93-.28c-3.41-.33-9.57,0-9.91.82-.47,1.13-.72,2.15.32,2.46,3.08.91,6.4.6,9.59.73,1.82.08,3.65.2,5.47.24a39.93,39.93,0,0,0,7.41,8c4.59,3.72,10.39,5.54,15.9,7.45A102.61,102.61,0,0,0,537,200.16c.6.14,1.19.31,1.78.47-.27,2.81-.79,5.61-1.07,8.43-.58,5.82.38,11.91.52,17.73.28,11.19,3.47,21.71,4.69,32.76a169.72,169.72,0,0,1-.16,35.84c-1.14,11.31-3.56,22.47-5.22,33.71a283.35,283.35,0,0,0-2.6,35.88,294.2,294.2,0,0,0,.81,33.2c.5,5.36,1.31,11.89,1.91,17.25.45,4.05,2.1,10.8,3.66,12.66,1.28,1.53,3.83,1.8,7.2,1.26,2.29-.37,4.44-.4,5.64-2.26,1.33-2.06-.25-6.34-.74-8.73s-1.07-7.38-1.45-9.85c-.79-5.14-1.14-10.37-1.62-15.55-1.07-11.75-.94-23.74-.67-35.53.54-23.49,6.29-46.27,7.87-69.65a173.33,173.33,0,0,0-1.15-33.85c-.7-5.51-2-10.9-3.08-16.34-.28-1.44-.47-2.89-.62-4.34,2.16-2.73,4.06-5.62,6-8.5,3.37-4.91,8.15-8.59,12-13.11.87-1,1.72-2.07,2.55-3.12,2.62-.74,5.27-1.32,7.85-2.23,6.17-2.17,13.24-2.31,18.72-6.13A1,1,0,0,0,599,198.26Z" transform="translate(-347.61 -122.49)"/><path class="cls-4" d="M528.23,210.58c-1.15-1.12-2.24-2.24-3.17-3.23a45.49,45.49,0,0,1,3.74-2.76l-.55-.83a45.07,45.07,0,0,0-3.86,2.85l-.37-.4c-.58-.67-1.74-2.13-2.95-3.73.71-.61,1.27-1.07,2.08-1.68a9.74,9.74,0,0,0-1.37-.21c-.45.37-.89.73-1.31,1.09-.55-.76-.87-.89-1.36-1.59-.38,0-.62.17-1,.21.59.85.91,1.09,1.61,2-1.42,1.27-2.54,2.41-3.2,3.11l-.39.41c-1-1.3-2.18-2.87-3.15-4.25.65-.66,1.27-1.28,1.81-1.81-.46,0-.93,0-1.4,0l-1,1c-.24-.37-.34-.43-.53-.73l-1,.26c.23.36.5.76.8,1.19-1.45,1.48-2.91,3-3.73,3.9-.51-.86-1.33-2.33-2-3.56l-.88.48c.65,1.2,1.64,3,2.18,3.86a57.2,57.2,0,0,0-4.18,5.22l-.06-.07-1.35-1.69c-.64-.78-1.34-1.66-2-2.47,1-1.22,2-2.48,2.57-3.12l-.74-.67c-.53.59-1.51,1.78-2.46,3-.45-.6-.84-1.12-1.09-1.5l-.84.54c.3.45.76,1.07,1.3,1.77-.78,1-1.47,1.91-1.76,2.35-.44.68-.86,1.28-1.25,1.86L495,212a37.13,37.13,0,0,1-2.53-3.28l-.83.56a40.86,40.86,0,0,0,2.78,3.58c-.5.76-1,1.56-1.53,2.5-.21.39-.59,1.09-1,2l-1.24-1.57c-.78-1-1.5-1.91-1.92-2.42l-.77.63c.42.51,1.13,1.42,1.91,2.41l1.52,1.94c-.76,1.54-1.65,3.44-2.44,5.34-1.53-1.94-2.87-3.73-3.6-4.86l-.84.54c.79,1.24,2.31,3.25,4,5.39a28.06,28.06,0,0,0-1.42,4.5l1,.19a22.79,22.79,0,0,1,1.15-3.79c1.69,2.12,3.47,4.28,4.83,5.9-.11.45.77,1.1.81,1,.13.15.87-.51.29-1.21.32-1.28.68-2.57,1.1-3.81.26-.76.57-1.57.93-2.44l.66.74,2.34,2.66c.22.25.46.49.68.74l-.84,2.05c-.19.52.8.71.94.37.19-.5.41-1.05.65-1.62.69.72,1.21,1.29,1.92,2,.39-.09.74-.32,1.13-.42-1-.92-1.71-1.6-2.62-2.57.72-1.69,1.58-3.54,2.47-5.33l.76.74c.72.69,2.07,2,3.65,3.36a21.21,21.21,0,0,0-1.39,2.93c.42-.14.8-.19,1.21-.34.3-.74.59-1.18.95-1.9.46.41.7.69,1.18,1.11l1-.46c-.66-.57-1.08-1-1.71-1.56.55-1,1.13-2,1.68-3l1-1.77c1.09,1,2.13,1.95,3.47,3.08-.19.34,1.27-.68,1.38-.33-.06-.39.61-.58.82-1a31.28,31.28,0,0,1,1.91-3.19c.6.61.87.89,1.19,1.17.24-.22.59-.39.83-.62-.3-.27-.74-.68-1.44-1.39.54-.78,1.09-1.55,1.64-2.3.34-.45.67-.9,1-1.36,0,0,.29-.39.75-.95.71.63,1.42,1.24,2.09,1.79l.6-.81c-.66-.53-1.34-1.12-2-1.74a41,41,0,0,1,3.2-3.23c.41.4.83.79,1.25,1.17.16-.3.12-.79.27-1.1l-.77-.73c.51-.45.57-.44,1.15-.9,0-.42-.09-.76-.09-1.16C529.17,209.87,529,210,528.23,210.58Zm-11-4.45c.64-.67,1.71-1.77,3.07-3,1.2,1.6,2.35,3.05,2.95,3.73l.35.38a46.14,46.14,0,0,0-3.45,3.26c-.81-.83-1.55-1.62-2.15-2.3-.3-.34-.74-.88-1.27-1.55C516.92,206.49,517.08,206.31,517.25,206.13Zm0,2.74c.62.7,1.39,1.52,2.22,2.38a23.44,23.44,0,0,0-1.7,2.05l-1,1.35-.65.9-1.72-1.78c-.54-.55-1.24-1.38-2-2.3,1.19-1.42,2.39-2.77,3.6-4.07C516.56,208,517,208.54,517.27,208.87Zm-5-6.53c1,1.4,2.17,3,3.18,4.26-1.22,1.31-2.42,2.65-3.62,4.08-1.42-1.81-2.82-3.71-3.32-4.41C509.25,205.45,510.76,203.88,512.26,202.34ZM507.82,207c.62.86,2,2.71,3.35,4.43-1.2,1.47-2.39,3.06-3.57,4.81-1.46-1.51-2.93-3.06-3.86-4.09A56.73,56.73,0,0,1,507.82,207Zm-11.6,4.91c.4-.58.82-1.19,1.27-1.87.24-.38.84-1.18,1.55-2.09.59.75,1.23,1.54,1.84,2.29l1.35,1.68.25.3c-.8,1.18-1.56,2.4-2.3,3.68-.23.41-.43.83-.64,1.25l-1.25-1.38-.8-.9c-.65-.73-1.26-1.43-1.85-2.11C495.84,212.51,496,212.23,496.22,211.94Zm-1,15.23c-.36,1.05-.66,2.12-.94,3.2-1.39-1.66-3.11-3.76-4.72-5.79.75-1.87,1.64-3.79,2.42-5.38.4.49.75.91,1,1.19l3.39,3.83C495.94,225.29,495.56,226.27,495.25,227.17Zm1.58-4c-1-1.16-2-2.33-3.08-3.48-.3-.34-.74-.88-1.25-1.52.54-1.07,1-1.92,1.23-2.35.46-.82.9-1.52,1.34-2.2l1.67,1.9.8.91,1.53,1.69c-.24.53-.47,1.07-.7,1.6-.3.71-.6,1.42-.92,2.1Zm4.41,5c-.11-.13-.24-.26-.36-.39l-2.34-2.66-1-1.1c.24-.55.5-1.13.79-1.74s.63-1.42.93-2.14c.17-.4.35-.8.53-1.2,1.2,1.28,2.48,2.59,3.89,4C502.83,224.67,502,226.49,501.24,228.18Zm2.94-6.2c-1.41-1.39-2.71-2.72-3.91-4,.24-.53.5-1.05.78-1.54.68-1.19,1.38-2.31,2.11-3.4,1,1.09,2.45,2.62,3.87,4.08-.39.61-.79,1.24-1.18,1.89C505.3,219.9,504.74,220.92,504.18,222Zm6.74,2.08c-.51.89-1.06,1.81-1.58,2.78-1.48-1.34-2.75-2.52-3.43-3.17l-1-.95c.6-1.15,1.19-2.24,1.77-3.2.35-.58.7-1.13,1.05-1.67,1.42,1.45,2.69,2.73,3.23,3.26.3.3.67.64,1.06,1C511.69,222.74,511.32,223.38,510.92,224.06Zm1.66-2.95-.05.09c-.31-.28-.6-.56-.85-.8-.64-.62-1.94-1.94-3.37-3.4,1.16-1.72,2.32-3.29,3.5-4.74.7.87,1.37,1.66,1.9,2.21l1.84,1.9A38.91,38.91,0,0,0,512.58,221.11Zm5,3c-.17.34-.37.68-.56,1-1.35-1.14-2.65-2.27-3.73-3.24l.18-.33a36.6,36.6,0,0,1,2.79-4.46l.37.39,3,3.15A36.42,36.42,0,0,0,517.58,224.11Zm5.21-7.81-1,1.35c-.52.71-1,1.43-1.55,2.16-.88-.9-1.9-2-2.9-3l-.5-.52.75-1c.34-.45.67-.9,1-1.36a24.31,24.31,0,0,1,1.59-1.92c1.08,1.09,2.25,2.22,3.42,3.29C523.1,215.86,522.82,216.25,522.79,216.3Zm1.47-1.8c-1.16-1.07-2.32-2.19-3.39-3.27a41.71,41.71,0,0,1,3.42-3.24c.93,1,2,2.12,3.2,3.26A43.84,43.84,0,0,0,524.26,214.5Z" transform="translate(-347.61 -122.49)"/><path class="cls-3" d="M530.13,204.7a.84.84,0,0,0,.18-.15c3.35-4,3.47-11.49,2.17-16.43-1-3.68-6.39-5.62-9.33-2.73-.13.12.53.35.93.48s.94.43,1.18.35c2.19-.75,3.32.07,4.47,1.12,1.58,1.45,1.44,4.25,1.52,6.16.13,2.95-.29,6.87-2.16,9.36-1.94-2.3-5.5-3-8.37-3.32a38,38,0,0,0-33.58,13.19c-.27.31-.52.63-.76,1-3-1.4-6.12-3.21-9.52-3.1a6.55,6.55,0,0,0-6,6c-.43,7.85,8,12.73,14.93,13.07a18.94,18.94,0,0,0,8.14,3.33c11.61,2.26,24.6-6.05,32.47-14a14.88,14.88,0,0,0,3.92-13.8C530.25,205,530.19,204.87,530.13,204.7ZM473,218.92c-1.29-4.49,2.79-7,6.67-5.94a35.06,35.06,0,0,1,5.59,2.36,13.27,13.27,0,0,0-2.1,10.22,6.31,6.31,0,0,0,.73,1.9C479.1,226.65,474.34,223.69,473,218.92Zm53.66-3.57c-2.19,4-6.82,7-10.53,9.33-7.6,4.8-15.55,8-24.47,5.76-15.24-3.91-1.68-19.2,5.25-23.44,7.47-4.57,15.14-6.51,23.84-5.46,2.42.29,4.45.63,6.46,2.24C530.68,206.61,528.24,212.43,526.63,215.35Z" transform="translate(-347.61 -122.49)"/><path class="cls-5" d="M485.69,228.59c3.33,2.67,5.8,5.68,8.47,8.27,2.94,2.84,5.57,6,8.38,9s5.29,6.42,8,9.5c2.33,2.64,4.56,5.24,7,7.78a.32.32,0,0,1-.14-.28" transform="translate(-347.61 -122.49)"/><path class="cls-5" d="M517.27,262.84c1.17,1.17,4.9-.07,7.57-.74a40.63,40.63,0,0,0,8.52-3.31,26.61,26.61,0,0,0,7.94-6.46c1.68-1.91,4.07-4.49,3.81-7.15" transform="translate(-347.61 -122.49)"/><path class="cls-5" d="M529.86,204.59c.93,1.22,1,2.93,1.49,4.26.78,2.09,2,4.09,2.82,6.18,1.3,3.24,2.64,6.52,3.87,9.81,1.35,3.59,2.73,7.18,4.07,10.75a53.31,53.31,0,0,1,2,5.68c.34,1.45,1,2.57,1,4.07" transform="translate(-347.61 -122.49)"/><path class="cls-5" d="M525.36,218.59c3.74,0,6.73.31,10.37.31" transform="translate(-347.61 -122.49)"/><path class="cls-5" d="M529.19,213c1.67.75,2.92.83,4.58,1.42" transform="translate(-347.61 -122.49)"/><path class="cls-5" d="M500.23,232.34c-.81,3.06-3.25,4.75-4.12,6.25" transform="translate(-347.61 -122.49)"/><path class="cls-5" d="M500.29,243.53a53.31,53.31,0,0,0,3.75-5.25,22.48,22.48,0,0,0,2.54-7.16" transform="translate(-347.61 -122.49)"/><path class="cls-5" d="M515.61,226.84a21.77,21.77,0,0,1-.57,5.38,31.31,31.31,0,0,1-3.43,8c-2.29,3.69-4.88,7.17-6.25,8.12" transform="translate(-347.61 -122.49)"/><path class="cls-5" d="M524.17,220.4c.41.62-.92,7.81-1.25,9.25a51.76,51.76,0,0,1-2.44,8.19,58,58,0,0,1-5.18,9.75,35.08,35.08,0,0,1-2.88,4.57,23.52,23.52,0,0,0-2.31,2.68" transform="translate(-347.61 -122.49)"/><path class="cls-5" d="M529.67,211.9a45,45,0,0,1,.62,13.13c-.48,5.32-1.19,11-3.49,16-1.64,3.59-3.4,7.31-5.2,10.8a25.14,25.14,0,0,1-2.93,4.81c-1,1.13-2.54,2.47-3.06,3.94" transform="translate(-347.61 -122.49)"/><path class="cls-5" d="M536.73,221.28c-.06,2.31-.53,8.38-.75,10.44a56,56,0,0,1-2.69,12.38c-.68,2-1.77,4-2.62,5.94-.74,1.7-1.59,3.51-2.49,5.11a78.52,78.52,0,0,1-5.07,7.44" transform="translate(-347.61 -122.49)"/><path class="cls-5" d="M541.79,234.9c-.18,1.69-1,6.44-1.37,7.63-.68,2.48-1,4.24-1.86,6.68-.58,1.66-3.14,6.63-4,8.76" transform="translate(-347.61 -122.49)"/><path class="cls-5" d="M517,225.47a64.79,64.79,0,0,0,10.75.81,103.2,103.2,0,0,0,10.56-.88" transform="translate(-347.61 -122.49)"/><path class="cls-5" d="M508,230.78a49.71,49.71,0,0,0,6.25,1.31c1.46.19,7.63.38,11.63.56a93.68,93.68,0,0,0,9.94-.56c.65-.08,3.12-.62,4.75-1" transform="translate(-347.61 -122.49)"/><path class="cls-5" d="M493,232.34c1.67,1.06,6.67,2.92,11.71,4.06,2.53.58,13.57,2.38,18,2.7,2.11.16,10.57.6,12.6.49,2.31-.12,6.56-.25,8.25-.5" transform="translate(-347.61 -122.49)"/><path class="cls-5" d="M497.17,240c1.87.68,11.15,3.47,13.18,3.86,3.94.76,11.16,1.55,13.78,1.76,3.67.3,7.27.5,11,.5a84.51,84.51,0,0,0,10.12-.44" transform="translate(-347.61 -122.49)"/><path class="cls-5" d="M506.42,250.34c1.43.26,5.92.85,7.38,1,3.5.35,7.05.75,10.61.75s7.18,0,10.76,0c1.64,0,4.89-.26,6.56-.31" transform="translate(-347.61 -122.49)"/><path class="cls-5" d="M511.86,256.9c1.12.19,4.32,1,5.31,1.19s4.64.66,5.69.69c1.83.06,9.79-.06,10.5.06" transform="translate(-347.61 -122.49)"/><path class="cls-6" d="M436.47,197.35c-1.65-3.34-5.65-3.1-8.56-2a11,11,0,0,0-7.22,8.78.65.65,0,0,0,.39.66c.84,5.1,7.3,9.7,11.65,6.22,2-1.57,2.83-4.84,3.61-7.19C437,201.88,437.42,199.27,436.47,197.35Z" transform="translate(-347.61 -122.49)"/><path class="cls-4" d="M416.11,191.34a28.06,28.06,0,0,0,8-.77,42.17,42.17,0,0,0,7.77-3.11c0-.12-.05-.24-.08-.37l-.15-.71a24.35,24.35,0,0,0-2.47-6.59,14,14,0,0,1-5.86,1.1c-.67,0-1.2,0-1.49,0a43.55,43.55,0,0,1-12.6-3c-.91-.36-4.06-1.81-7-3.44a19.82,19.82,0,0,0-5.38,12.22,103.81,103.81,0,0,0,11.6,3.69A37,37,0,0,0,416.11,191.34Z" transform="translate(-347.61 -122.49)"/><path class="cls-4" d="M421.88,179.84c.57,0,4.3.27,6.78-.93A24.46,24.46,0,0,0,422.8,172a26.45,26.45,0,0,0-7.31-4l-.46-.16a34.8,34.8,0,0,0-5.59,1.6,20.77,20.77,0,0,0-6.53,4.22,73.7,73.7,0,0,0,6.65,3.25A42.59,42.59,0,0,0,421.88,179.84Z" transform="translate(-347.61 -122.49)"/><path class="cls-4" d="M432.12,194.36a19.75,19.75,0,0,0,.24-2.89,16,16,0,0,0-.31-3,43.11,43.11,0,0,1-7.69,3.05,28.84,28.84,0,0,1-8.25.81,37.32,37.32,0,0,1-7.92-1.07,104.34,104.34,0,0,1-11.43-3.6,17.6,17.6,0,0,0,3.6,11.05,22.46,22.46,0,0,0,11.19,7.69c6.42-2,10.34-5.16,13.53-7.77C427.51,196.65,429.61,194.93,432.12,194.36Z" transform="translate(-347.61 -122.49)"/><path class="cls-4" d="M429.53,178.38a3.35,3.35,0,0,0,1.29-1.9,12.27,12.27,0,0,0-.59-6.43A19.71,19.71,0,0,0,417,167.51a27.16,27.16,0,0,1,6.45,3.69A25.11,25.11,0,0,1,429.53,178.38Z" transform="translate(-347.61 -122.49)"/><path class="cls-4" d="M431.79,176.71a4.29,4.29,0,0,1-1.76,2.56,25.36,25.36,0,0,1,2.57,6.91l.15.71,0,.07,1.11-.63.3-.17A21.32,21.32,0,0,0,439.1,182a22.7,22.7,0,0,0-7.57-11A12.05,12.05,0,0,1,431.79,176.71Z" transform="translate(-347.61 -122.49)"/><path class="cls-4" d="M434.68,187l-.3.18L433,188a17.57,17.57,0,0,1,.39,3.48,21.22,21.22,0,0,1-.23,2.92,3.12,3.12,0,0,1,1.5.86,6.16,6.16,0,0,1,1.63,4.09,19.25,19.25,0,0,0,3.15-16.21A21.5,21.5,0,0,1,434.68,187Z" transform="translate(-347.61 -122.49)"/><path class="cls-4" d="M433.93,196a2.28,2.28,0,0,0-1-.59,31.08,31.08,0,0,1-2,6.46,17.27,17.27,0,0,1-2.16,3.52,21.56,21.56,0,0,0,3-1.69,19.81,19.81,0,0,0,3.38-3A5.42,5.42,0,0,0,433.93,196Z" transform="translate(-347.61 -122.49)"/><path class="cls-4" d="M431.92,195.45c-2.09.61-3.93,2.1-6.21,4a39.07,39.07,0,0,1-12.43,7.48,24.31,24.31,0,0,0,13.56-.75,19.64,19.64,0,0,0,3.17-4.72A30.33,30.33,0,0,0,431.92,195.45Z" transform="translate(-347.61 -122.49)"/><path class="cls-3" d="M434.18,186.16l-.3.17-1.11.63,0-.07-.15-.71a25.36,25.36,0,0,0-2.57-6.91,4.29,4.29,0,0,0,1.76-2.56,12.05,12.05,0,0,0-.26-5.76c-.42-.32-.85-.62-1.3-.9a12.27,12.27,0,0,1,.59,6.43,3.35,3.35,0,0,1-1.29,1.9,25.11,25.11,0,0,0-6.12-7.18,27.16,27.16,0,0,0-6.45-3.69c-.63.08-1.28.19-1.93.32l.46.16a26.45,26.45,0,0,1,7.31,4,24.46,24.46,0,0,1,5.86,6.92c-2.48,1.2-6.21,1-6.78.93a42.59,42.59,0,0,1-12.32-2.94,73.7,73.7,0,0,1-6.65-3.25c-.25.24-.49.49-.73.74,3,1.63,6.11,3.08,7,3.44a43.55,43.55,0,0,0,12.6,3c.29,0,.82,0,1.49,0a14,14,0,0,0,5.86-1.1,24.35,24.35,0,0,1,2.47,6.59l.15.71c0,.13.05.25.08.37a42.17,42.17,0,0,1-7.77,3.11,28.06,28.06,0,0,1-8,.77,37,37,0,0,1-7.71-1,103.81,103.81,0,0,1-11.6-3.69c0,.36,0,.71,0,1.06a104.34,104.34,0,0,0,11.43,3.6,37.32,37.32,0,0,0,7.92,1.07,28.84,28.84,0,0,0,8.25-.81,43.11,43.11,0,0,0,7.69-3.05,16,16,0,0,1,.31,3,19.75,19.75,0,0,1-.24,2.89c-2.51.57-4.61,2.29-7,4.28-3.19,2.61-7.11,5.81-13.53,7.77.58.18,1.15.35,1.73.49a39.07,39.07,0,0,0,12.43-7.48c2.28-1.87,4.12-3.36,6.21-4a30.33,30.33,0,0,1-1.91,6,19.64,19.64,0,0,1-3.17,4.72c.66-.24,1.3-.5,1.93-.8a17.27,17.27,0,0,0,2.16-3.52,31.08,31.08,0,0,0,2-6.46,2.28,2.28,0,0,1,1,.59,5.42,5.42,0,0,1,1.22,4.73q.59-.66,1.11-1.35a6.16,6.16,0,0,0-1.63-4.09,3.12,3.12,0,0,0-1.5-.86,21.22,21.22,0,0,0,.23-2.92A17.57,17.57,0,0,0,433,188l1.41-.79.3-.18a21.5,21.5,0,0,0,4.73-3.89c-.1-.39-.19-.78-.31-1.16A21.32,21.32,0,0,1,434.18,186.16Z" transform="translate(-347.61 -122.49)"/><path class="cls-7" d="M432.48,211a21.43,21.43,0,0,1-7.87-1.44c-.15-.05-1-.44-1.13-.44s-.29-.1-.39.3a226.09,226.09,0,0,0-4.93,23.79c-.66,4.45,1.81,7.15,5.33,9.48a.73.73,0,0,0,1-.26c2.1-4.11,2.69-8.59,3.64-13.07,1.26-5.95,3.15-11.72,4.6-17.63C432.83,211.36,432.91,211,432.48,211Z" transform="translate(-347.61 -122.49)"/><path class="cls-3" d="M387.66,385.32c1.41,3,3.56,8.73,7.27,9.47,3.09.61,3.13-4.87,2.84-6.49-.24-1.3-.54-2.57-.85-3.85-4.65-1.69-6.81-4.19-9.92-7.69C386,379.49,385.78,381.3,387.66,385.32Z" transform="translate(-347.61 -122.49)"/><path class="cls-6" d="M397.86,366.84c0-.33-2.11.52-2.5.57-1.2.15-3.55,1.9-4.25,1.87s-1.67,1.15-2.84,4.31c-.48,1.24-.92,2.26-1.27,3.17,3.23,4.71,6.86,6.83,9.92,7.69-.37-1.51-.76-3-1.09-4.53C395,376,398.29,370.8,397.86,366.84Z" transform="translate(-347.61 -122.49)"/><path class="cls-6" d="M380.61,375.59a9.08,9.08,0,0,0-.11-7.61,4,4,0,0,0-4.12-1.72.44.44,0,0,0-.71.21c-.75,2.3-2.32,3.64-3.79,5.13a37.4,37.4,0,0,0,7.61,12.61C379.18,381.49,378.72,378.93,380.61,375.59Z" transform="translate(-347.61 -122.49)"/><path class="cls-3" d="M371.88,371.6a12.37,12.37,0,0,0-2.11,2.66c-1.39,2.51.38,7.4,1,10,.77,3.17,2.39,9.17,5.84,9.17,2.66,0,2.72-1.85,3-3.71a25.75,25.75,0,0,0-.12-5.51C376.61,380.26,374.27,377.59,371.88,371.6Z" transform="translate(-347.61 -122.49)"/><path class="cls-3" d="M414.21,292.69c-.91-3.25-4.89-3.54-7.7-3.9-5-.65-10.06-.84-15.08-1.52-2.49-.34-5.84-.36-5.95,2.82a.79.79,0,0,0,.23.61c-5,3.65-6.82,10.32-7.64,16.19a34.1,34.1,0,0,0-.08,10.95c.62,3.25,3.66,9.23,1,14.83-1.75,3.65-1.34,6.25-.38,10.09,1.4,5.67-2,8.5-3.79,13.34-2.42,6.48-.46,15.49,4.81,20a.72.72,0,0,0,1.12-.15,105.17,105.17,0,0,0,7.8-14.91,32.91,32.91,0,0,0,1.29-4.18c.05,6.11-.69,9.81-1.58,15.11-.25,1.5.25,2.37,1.63,2.36,3.36,0,7.33-.72,8.75-4.3s1.79-7.32,2.38-11a108.06,108.06,0,0,1,3.28-13.88c3.87-13,8.44-25.4,10.11-38.92C414.92,301.87,415.41,297,414.21,292.69Z" transform="translate(-347.61 -122.49)"/><path class="cls-3" d="M417,230.47c-.44-1.05,2.12-2.59-.5-4.25a12.27,12.27,0,0,0-3.62-1.38c-11.13-1.62-21.34,8-28.7,15.2-2.41,2.36-5.46,5.36-5.86,8.89-.28,2.44,2,3.51,4.12,3.52-.18,2.68-.31,5.15,1.36,7.53a.5.5,0,0,0,.19.25c6.83,5.48,18.17-10.07,22.07-14.57,3.46-4,7.1-8.3,9.12-13.23C415.6,231.36,417.46,231.59,417,230.47Z" transform="translate(-347.61 -122.49)"/><path class="cls-7" d="M420.8,247.25c-3.31-6.4-8-7.07-14.66-8-15.3-2.21.32-27.72,3.51-35.48a.56.56,0,0,0-.26-.63c-3-1.93-5.95-3.92-8.92-5.89l-.1,0c-.29-.3-.89-.38-1.09.08-6,13.76-11.13,26.71-11,42,.08,8.65,1.35,17.2.77,25.86-.6,8.91-4.27,17.32-7.46,25.54a.79.79,0,0,0,.36.89c7.34,4.88,19.89,6.1,28.39,4.83,3.5-.52,6.54-1.44,8-4.87,1.22-3,1.05-6.77,1.15-9.88.14-4.83,1.3-9.39,2.37-14.09C423.28,261.1,424,253.34,420.8,247.25Z" transform="translate(-347.61 -122.49)"/><path class="cls-6" d="M417.61,198.59c-1.64-1.68-4.24.17-6.82,1.24,3.06-2.67,9.28-7.45,5.5-9.67-2.36-1.38-5.31,1.93-7.65,4.41.59-4.1,2.34-9.23,1.09-9.85-2.1-1.05-3.58,1-4.29,2.46-.83,1.66-.88,3.1-1.33,5-.41,1.74-1.63,1.87-1.63-.5,0-3.11,1-4.62-.13-7.51-.34-.89-1.46-1.63-2.15-.62-2.72,4-3.49,12.42-.84,16.88a5.48,5.48,0,0,0,.52,1.15,6.57,6.57,0,0,0,6.37,3.9,18.26,18.26,0,0,0,10.23-3.3C418,201.05,419.05,200.08,417.61,198.59Z" transform="translate(-347.61 -122.49)"/><path class="cls-6" d="M423.56,232.39c-5.8-7.41-15.42-8.26-22.39-2.23,0,0,0,0,0,.05-4.52,3.72-3.53,16.54,1.64,23.32,5.46,7.15,14.2,5.88,19.74-.39C427.31,247.7,428.14,238.22,423.56,232.39Z" transform="translate(-347.61 -122.49)"/><path class="cls-7" d="M401.75,311.18c-3.21,7.74-3,15.88-5.36,23.74-1,3.33-3.44,6-4.59,9.3a67.4,67.4,0,0,0-2.32,10.52c-.09.49.63.7.75.21,1-4,1.25-8.07,3-11.89,1.23-2.71,2.94-5.12,4-7.9,3-7.51,2.72-16,5.69-23.65.29-.76-.9-1.06-1.21-.33Z" transform="translate(-347.61 -122.49)"/><ellipse class="cls-3" cx="61.62" cy="111.35" rx="1.37" ry="1.5"/><ellipse class="cls-3" cx="71.62" cy="112.35" rx="1.37" ry="1.5"/><text class="cls-8" transform="matrix(1, -0.01, 0.01, 1, 156.93, 334.62)">©<tspan class="cls-9" x="6.77" y="0">O</tspan><tspan x="12.97" y="0">pen </tspan><tspan class="cls-10" x="28.09" y="0">D</tspan><tspan x="34.07" y="0">igital </tspan><tspan class="cls-11" x="51.97" y="0">E</tspan><tspan x="56.4" y="0">duc</tspan><tspan class="cls-12" x="68.88" y="0">a</tspan><tspan x="72.66" y="0">tion</tspan></text></svg>