<?xml version="1.0" encoding="UTF-8" standalone="no"?>
<svg
   xmlns:dc="http://purl.org/dc/elements/1.1/"
   xmlns:cc="http://creativecommons.org/ns#"
   xmlns:rdf="http://www.w3.org/1999/02/22-rdf-syntax-ns#"
   xmlns:svg="http://www.w3.org/2000/svg"
   xmlns="http://www.w3.org/2000/svg"
   xmlns:sodipodi="http://sodipodi.sourceforge.net/DTD/sodipodi-0.dtd"
   xmlns:inkscape="http://www.inkscape.org/namespaces/inkscape"
   viewBox="0 0 277.86 273.07"
   version="1.1"
   id="svg76"
   sodipodi:docname="empty-search.svg"
   inkscape:export-filename="/home/jmuller/Sites/entcore-css-lib/images/empty-search.png"
   inkscape:export-xdpi="105.46833"
   inkscape:export-ydpi="105.46833"
   inkscape:version="0.92.1 r15371">
  <metadata
     id="metadata80">
    <rdf:RDF>
      <cc:Work
         rdf:about="">
        <dc:format>image/svg+xml</dc:format>
        <dc:type
           rdf:resource="http://purl.org/dc/dcmitype/StillImage" />
      </cc:Work>
    </rdf:RDF>
  </metadata>
  <sodipodi:namedview
     pagecolor="#ffffff"
     bordercolor="#666666"
     borderopacity="1"
     objecttolerance="10"
     gridtolerance="10"
     guidetolerance="10"
     inkscape:pageopacity="0"
     inkscape:pageshadow="2"
     inkscape:window-width="1920"
     inkscape:window-height="1043"
     id="namedview78"
     showgrid="false"
     inkscape:zoom="2.4444603"
     inkscape:cx="146.5484"
     inkscape:cy="127.34045"
     inkscape:window-x="1920"
     inkscape:window-y="0"
     inkscape:window-maximized="1"
     inkscape:current-layer="svg76" />
  <defs
     id="defs4">
    <style
       id="style2">.cls-1{fill:#858fa9;}.cls-2{fill:#dcdde0;}.cls-3{fill:#2a9cc8;}.cls-4{fill:#414355;}.cls-5{fill:#ffa348;}.cls-6{fill:#fcc18b;}.cls-7{fill:none;stroke:#fcc18b;stroke-miterlimit:10;}</style>
  </defs>
  <title
     id="title6">Fichier 2</title>
  <g
     id="Calque_2"
     data-name="Calque 2">
    <g
       id="Layer_2"
       data-name="Layer 2">
      <path
         class="cls-1"
         d="M215,49.65a3.44,3.44,0,0,0-3.6-3.11h-.51c-2.09,0-3.89,1.58-3.89,3.11V70.72c0,1.91,1.14,3.41,2.64,3.49l2.51.25c2.1,0,2.85-2.21,2.85-3.74V49.65Z"
         id="path8" />
      <path
         class="cls-2"
         d="M203,43.27l-7.35-.75-14.95-1.47-2.19-9.37L188.92,26l9.22-5.3s11.52,1.19,12.09,8.76C210.89,38.15,203,43.27,203,43.27Z"
         id="path10" />
      <path
         class="cls-3"
         d="M262,26.06,202.85,43.35a15.45,15.45,0,0,0,3.56-13.49c-1.13-5.59-8.19-9.17-8.19-9.17L263.44.09s8.34-1.9,5.56,12.14C267,22.14,262,26.06,262,26.06Z"
         id="path12" />
      <path
         class="cls-4"
         d="M181.57,36c.49,3.07-.38,5.75-1.92,6-.5.08-2.08.46-2.24.28A31.73,31.73,0,0,1,176,36.86a33.69,33.69,0,0,1-.2-5.54,5.92,5.92,0,0,1,2.12-.46C179.45,30.63,181.09,32.91,181.57,36Z"
         id="path14" />
      <ellipse
         class="cls-5"
         cx="176.8"
         cy="36.75"
         rx="2.83"
         ry="5.63"
         transform="translate(-3.56 27.87) rotate(-8.92)"
         id="ellipse16" />
      <path
         class="cls-2"
         d="M210.58,55.88l-7.33-.9-14.92-1.77-2-9.41,10.51-5.48,9.33-5.11s11.5,1.42,11.91,9C218.56,50.92,210.58,55.88,210.58,55.88Z"
         id="path18" />
      <path
         class="cls-3"
         d="M269.92,39.88,210.42,56a15.44,15.44,0,0,0,3.83-13.41c-1-5.62-8-9.34-8-9.34l65.62-19.27s8.38-1.73,5.32,12.25C275,36.07,269.92,39.88,269.92,39.88Z"
         id="path20" />
      <path
         class="cls-4"
         d="M189.29,48.15c.42,3.08-.49,5.75-2,6-.51.07-2.09.41-2.24.23a30.25,30.25,0,0,1-1.33-5.42,34,34,0,0,1-.08-5.54,5.85,5.85,0,0,1,2.13-.42C187.28,42.77,188.88,45.08,189.29,48.15Z"
         id="path22" />
      <ellipse
         class="cls-5"
         cx="184.54"
         cy="48.79"
         rx="2.83"
         ry="5.63"
         transform="translate(-4.9 25.36) rotate(-7.76)"
         id="ellipse24" />
      <path
         class="cls-5"
         d="M136.08,269.13c0-1.83-2.86-3.07-3.91-3.37a12.11,12.11,0,0,1-5.42-2.75,5.36,5.36,0,0,1-1.83-2.75l-.3-1.92c-1.16.14-10.48-1.84-11.52-2.12-.52-.17-1.43-.92-1.6,1.16a42.1,42.1,0,0,0-.17,5.33c0,.2,0,.46.07.74,7.5,3.71,15.07,7.18,23.11,8.74C135.55,271.59,136.08,270.88,136.08,269.13Z"
         id="path26" />
      <path
         class="cls-6"
         d="M111.4,263.45a4.61,4.61,0,0,0,.68,2.1c1.08,1.19,3.51,2.13,4.92,2.83,3.15,1.55,6.21,3.46,9.75,4.08,2.78.49,5.11,1.16,7.58-.16l.18-.11C126.47,270.63,118.9,267.16,111.4,263.45Z"
         id="path28" />
      <path
         class="cls-5"
         d="M109.87,267.76c-.06-1.38-1.69-2.7-2.69-3A11.36,11.36,0,0,1,102,262a5.37,5.37,0,0,1-1.74-2.75l-.28-1.92c-1.11.14-10-1.84-11-2.12-.49-.17-1.36-.92-1.52,1.16a45.63,45.63,0,0,0-.16,5.26c6.51,4.58,13.82,8.92,21.15,9.21A3.87,3.87,0,0,0,109.87,267.76Z"
         id="path30" />
      <path
         class="cls-6"
         d="M87.33,261.71a6.11,6.11,0,0,0,.72,2.84c1,1.19,3.33,2.13,4.68,2.83,3,1.55,5.27,3.37,8.64,4,2.66.49,5.46.64,6.75-.25a3.44,3.44,0,0,0,.36-.28c-7.33-.29-14.64-4.63-21.15-9.21Z"
         id="path32" />
      <path
         class="cls-1"
         d="M128.58,135.9v-.45l-.44-.07c-.16,0-.89-.29-1.33-.45a9.64,9.64,0,0,0-1-.35c-2.73-.62-6.58-3.34-9.67-5.53-1.19-.85-2.32-1.65-3.27-2.25-2.83-1.79-5.6-3.64-8.28-5.43s-5.2-3.48-7.88-5.18l-1.17-.74-.33-.2-.28.26c-.23.22-5.7,5.44-8.1,10-3.46,6.6-5.38,15.64-5.74,21.67-.84,13.78.59,27.79,2,41.34.49,4.83,1,9.83,1.4,14.72.83,10.36.64,21,.45,31.22-.1,5.58-.2,11.35-.14,17,0,4.26,1.13,5.74,5,6.89a42.79,42.79,0,0,0,6.83,1.27c.1,0,.44,0,.89,0a11.74,11.74,0,0,0,3.11-.31l.31-.12,0-.33s.17-4.24.23-5.59c.18-3.84.1-7.75,0-11.53,0-2.26-.1-4.58-.1-6.87,0-4.44.09-8.94.16-13.29.08-4.71.17-9.59.17-14.41,0-9.32,0-20.92,1-31.8.33-3.78.46-7.62.59-11.32.08-2.33.16-4.73.29-7.09.07-1.33.06-3.54,0-5.25a29,29,0,0,1,1.31,5.52l.19,1.71c.39,3.58.81,7.27,1,9.86.23,3.69.58,8,1,12.5.47,5.74,1,11.67,1.25,17.16.72,13.25,1.41,27.38,1.41,41.71,0,6,.89,16.88,1,18.1l-.06.15.15.21c.51.75,9.52.83,9.48.87a31.54,31.54,0,0,0,4.4-.25l.42-.06v-.42s0-2.42.18-4c.21-2.66.29-5.61.37-8.46,0-1.07.06-2.12.09-3.1.8-22.35,1.41-38.91,2.38-62.42l.13-3.09c.32-7.79.61-14.51.37-22.56C128.08,149.66,128.58,136,128.58,135.9Z"
         id="path34" />
      <path
         class="cls-1"
         d="M151.75,70.63c-14.36,5.07-8.74-19.31-6.94-26.24,1.73-6.71,6-12.72,12.43-15.45a27.85,27.85,0,0,1,6.7-1.62c8-1.29,12.09,5,12.8,12.31a42.16,42.16,0,0,1-1.23,13.25C173.18,63.41,160.8,67.44,151.75,70.63Z"
         id="path36" />
      <path
         class="cls-1"
         d="M199.25,50.25c-1.06-1.62-3.44,2.34-4.13,1.88-.51-.34,2.16-4.5.94-4.44-2.62.13-5.95,4.73-6.75,7.25-.51,1.63-.85,3.35-1.34,5.31-.24,1-.5,1.93-.77,2.92,2.87,1.75,6.28,3.22,9.25,4.92.24-.8.47-1.6.7-2.4l.19-.66.08-.26c.22-.79.56-1.72.92-2.7.62-1.73,2-3.33,2.41-5.19.34-1.6.87-3.94-1.44-2.06C198,55.88,199.71,51,199.25,50.25Z"
         id="path38" />
      <path
         class="cls-5"
         d="M158.25,71.88c2.17-4.29-5.21-8.92-8.68-10-5.37-1.69-11.76-1.32-17.66-1.32a355.81,355.81,0,0,0-49.26,3c-11.27,1.58-19.91,6.15-29.73,11.94-5.75,3.39-12.84,4.11-19.41,3.06C28,77.65,21.68,73.45,16,74.62c-5.86,1.21-6.81,10.24-8.27,15.19,4.88,2.81,12.55,3.43,18.18,4,6.76.75,13.47,1.79,20.24,0A56.33,56.33,0,0,0,62.58,87c4.37-2.82,9.5-6.56,15-5.76S88,85.05,93.23,85.89a56.17,56.17,0,0,0,19.35-.42c12.73-2.52,20.92-16.73,35-16.59a29.9,29.9,0,0,1,11,2.7,1.15,1.15,0,0,1-.3,1"
         id="path40" />
      <path
         class="cls-4"
         d="M187.2,63.17c-1.68,6.08-4.06,12.75-7.85,17.86-2,2.66-3.48,3.75-5.18,3.75a7.52,7.52,0,0,1-4.08-1.63,52.81,52.81,0,0,1-8.89-8.39c-.78-.86-1.55-1.71-2.34-2.55l-.34-.35c-2.86-3-5.81-6.2-10.18-7a34,34,0,0,0-5.59-.59,12.32,12.32,0,0,0-1.57.09,20.88,20.88,0,0,0-9.74,4.36,44.45,44.45,0,0,0-6.33,6.08c-1.55,1.91-3.4,4.35-5.35,6.94-2.14,2.84-4.35,5.78-6.4,8.31-6.42,7.9-11.43,14-17.44,21a11.42,11.42,0,0,1-1.09,1c-1.07.92-2.29,2-2.36,3.1a1.67,1.67,0,0,0,.47,1.24,80.89,80.89,0,0,0,6.33,5.86,139.47,139.47,0,0,0,17.07,11.55,34,34,0,0,0,13,3.56l.35,0,.13-.32c1.9-4.4,5.12-8.78,8.23-13,1.2-1.64,2.34-3.19,3.39-4.73a130.07,130.07,0,0,0,7.4-12.48A95.52,95.52,0,0,1,156,95.06a26.5,26.5,0,0,1,3.07,1.72c3.8,2.32,9.54,5.83,14.19,5.83a6.83,6.83,0,0,0,3.07-.66c6.6-3.23,10.31-10.14,12.77-14.72l.2-.36c3.3-6.13,5.25-12.31,7.14-18.78C193.48,66.39,190.07,64.92,187.2,63.17Z"
         id="path42" />
      <path
         class="cls-4"
         d="M167.25,30.38c-2.4.82-5.84,4.67-6.59,10.33a24.31,24.31,0,0,1-5.58,11.92c-6.08,7.5-12.4,10.27-23.41,12-7.17,1.12-12.59-.13-19.17-.13A25.87,25.87,0,0,0,100,67.32c-8.87,4.44-17.81,9.22-28,6.07A16.22,16.22,0,0,1,60.17,59.21C59,49.64,63.58,44,72.58,41.38c5.27-1.51,13,.27,18.23-1.25,5.07-1.47,7.68-5.39,12.06-8.13a26.1,26.1,0,0,1,13.38-3.87c5.12-.13,9.77,2.46,14.56,1.76,5.53-.81,8.28-5,13.52-6.59,3.68-1.12,7.84-2.5,15-1.25,6.3,1.1,13.75,5.91,13.59,7.91A9.55,9.55,0,0,0,167.25,30.38Z"
         id="path44" />
      <path
         class="cls-7"
         d="M16.08,76.71c-2.47.11-8.78-1.27-10.16-3.5"
         id="path46" />
      <path
         class="cls-7"
         d="M18.08,74.71c-2.47.11-8.78-1.27-10.16-3.5"
         id="path48" />
      <path
         class="cls-7"
         d="M13.08,78.5c-1.48.21-3.18-.44-4.75-.75a29.35,29.35,0,0,1-4.91-1.2"
         id="path50" />
      <path
         class="cls-7"
         d="M11.79,80.67c-3.16,0-6.49.56-9.37-.79"
         id="path52" />
      <path
         class="cls-7"
         d="M10.83,83.67c-2.46.13-7.68,0-9.83-1.25"
         id="path54" />
      <path
         class="cls-7"
         d="M.08,87.92a11.69,11.69,0,0,1,4.67.13c1.46.33,2.94,1.76,4.21,1.33"
         id="path56" />
      <path
         class="cls-7"
         d="M9.33,86c-1.52.69-6.5-1.08-9-.7"
         id="path58" />
      <path
         class="cls-3"
         d="M257,256.13s-8.25,10.25-26.25,10.5-26.5-9.75-26.5-9.75l1-59.5,49.5.75Z"
         id="path60" />
      <ellipse
         class="cls-2"
         cx="229.92"
         cy="199.26"
         rx="25"
         ry="10.63"
         id="ellipse62" />
      <polygon
         class="cls-3"
         points="237.25 198.54 222.91 198.54 224.91 78.37 233.58 79.2 237.25 198.54"
         id="polygon64" />
      <path
         class="cls-1"
         d="M204.69,243.11c12.92,10.11,39.47,11.64,51.29-1.17,1.31-1.42-.81-3.55-2.12-2.12-10.8,11.7-35.87,9.92-47.05,1.17-1.51-1.18-3.64.93-2.12,2.12Z"
         id="path66" />
      <path
         class="cls-3"
         d="M245.33,34.54h-2.86c-2.76,0-4.5,1.51-4.5,4.09V74L211.5,67.44l-2.4,6.69,29,9.71s1.91.58,2.68.79a11,11,0,0,0,4.29.25c2.65-.26,3.95-1.92,3.95-3.75V38.63C249,36,248.58,34.54,245.33,34.54Z"
         id="path68" />
      <path
         class="cls-2"
         d="M241,81.54h-3V37.82a3.23,3.23,0,0,1,1.27-2.27c1.29-.88,4.44-.67,4.44-.67a9.8,9.8,0,0,0-1.9.62c-.83.42-.81,2.25-.81,2.25V81.54Z"
         id="path70" />
      <path
         class="cls-4"
         d="M189,57.05c1.06-3.22,2.05-6.61,5.38-8.19,1.28-.61.34.63.22.84-.57,1-.89,2.18-1.41,3.22-.61,1.2-1.17,2.14-.7,3.47a.5.5,0,0,0,1,0,14.48,14.48,0,0,1,2-3.92c.25-.31,2.92-2.89,3.32-1.82s-.93,2.63-1.35,3.66c-.49,1.23-.87,2.47-1.39,3.69l1.38.58c.11-.43.23-.87.38-1.29l.59-1.28a2.22,2.22,0,0,1,2.45-1.25c.14,1.25-1,3.17-1.41,4.27-1.05,2.93-2.58,5.72-3.69,8.67-.15.4.52.69.7.29,1.06-2.36,2-4.73,3.14-7.06a20.3,20.3,0,0,0,2-6.17A1.36,1.36,0,0,0,200,53.27c-1.6.44-3.11,3.4-3.85,4.73a.75.75,0,0,0,1.3.76c1.27-1.71,1.14-3.82,2-5.74a3.1,3.1,0,0,0-.21-3.42c-.74-.88-2.58.91-3.06,1.27A12.55,12.55,0,0,0,192.57,56l.91.39a30.1,30.1,0,0,1,1.68-3.3c.45-.92.67-1.93,1.11-2.85s.88-1.77,0-2.62a.62.62,0,0,0-.61-.16c-1.72.45-3.58,2.34-4.62,3.74A12.16,12.16,0,0,0,188.71,57c0,.19.27.21.32,0Z"
         id="path72" />
    </g>
  </g>
  <g
     aria-label="©OpenDigitalEducation"
     transform="matrix(0.01,1,-1,0.01,227.02524,107.65101)"
     style="font-weight:200;font-size:8px;font-family:Lato-Thin, Lato;opacity:0.5"
     id="text172">
    <path
       inkscape:connector-curvature="0"
       d="m 4.62,-1.604 q 0.02,-0.004 0.028,0 0.012,0 0.02,0.004 l 0.084,0.08 Q 4.516,-1.3 4.2,-1.164 3.884,-1.028 3.42,-1.028 3.04,-1.028 2.72,-1.152 2.4,-1.28 2.168,-1.512 1.936,-1.744 1.808,-2.072 1.68,-2.404 1.68,-2.812 q 0,-0.4 0.132,-0.728 0.132,-0.332 0.368,-0.568 0.236,-0.24 0.568,-0.368 0.332,-0.132 0.728,-0.132 0.208,0 0.376,0.028 0.168,0.028 0.312,0.084 0.144,0.052 0.272,0.132 0.128,0.076 0.256,0.18 l -0.048,0.068 q -0.016,0.028 -0.056,0.028 -0.032,0 -0.1,-0.056 Q 4.424,-4.2 4.296,-4.264 4.172,-4.332 3.972,-4.388 3.776,-4.444 3.484,-4.444 q -0.356,0 -0.652,0.116 -0.296,0.112 -0.508,0.324 -0.212,0.212 -0.332,0.516 -0.116,0.3 -0.116,0.676 0,0.384 0.116,0.684 0.116,0.3 0.324,0.508 0.208,0.208 0.488,0.32 0.284,0.108 0.62,0.108 0.224,0 0.396,-0.028 Q 3.992,-1.248 4.128,-1.3 4.268,-1.356 4.384,-1.432 4.5,-1.508 4.62,-1.604 Z M 0.516,-2.812 q 0,-0.396 0.1,-0.76 0.104,-0.368 0.292,-0.688 0.188,-0.32 0.448,-0.58 0.26,-0.26 0.58,-0.448 0.32,-0.188 0.684,-0.288 0.368,-0.104 0.764,-0.104 0.396,0 0.76,0.104 0.368,0.1 0.684,0.288 0.32,0.188 0.58,0.448 0.264,0.26 0.452,0.58 0.188,0.32 0.288,0.688 0.104,0.364 0.104,0.76 0,0.396 -0.104,0.764 -0.1,0.364 -0.288,0.684 -0.188,0.32 -0.452,0.58 -0.26,0.26 -0.58,0.448 -0.316,0.188 -0.684,0.292 -0.364,0.1 -0.76,0.1 -0.396,0 -0.764,-0.1 -0.364,-0.104 -0.684,-0.292 -0.32,-0.188 -0.58,-0.448 -0.26,-0.26 -0.448,-0.58 -0.188,-0.32 -0.292,-0.684 -0.1,-0.368 -0.1,-0.764 z m 0.152,0 q 0,0.376 0.096,0.724 0.096,0.348 0.272,0.652 0.176,0.304 0.424,0.552 0.248,0.248 0.548,0.424 0.304,0.176 0.652,0.276 0.348,0.096 0.724,0.096 0.376,0 0.724,-0.096 0.348,-0.1 0.648,-0.276 0.304,-0.176 0.552,-0.424 0.252,-0.248 0.428,-0.552 0.176,-0.304 0.272,-0.652 0.1,-0.348 0.1,-0.724 0,-0.376 -0.1,-0.724 Q 5.912,-3.888 5.736,-4.192 5.56,-4.496 5.308,-4.744 5.06,-4.996 4.756,-5.172 q -0.3,-0.176 -0.648,-0.272 -0.348,-0.1 -0.724,-0.1 -0.376,0 -0.724,0.1 -0.348,0.096 -0.652,0.272 -0.3,0.176 -0.548,0.428 -0.248,0.248 -0.424,0.552 -0.176,0.304 -0.272,0.656 -0.096,0.348 -0.096,0.724 z"
       style="font-weight:200;font-size:8px;font-family:Lato-Thin, Lato;opacity:0.5"
       id="path218" />
    <path
       inkscape:connector-curvature="0"
       d="m 12.55,-2.812 q 0,0.66 -0.192,1.192 -0.192,0.528 -0.54,0.904 -0.348,0.372 -0.832,0.572 -0.484,0.2 -1.072,0.2 -0.58,0 -1.064,-0.2 Q 8.366,-0.344 8.018,-0.716 7.67,-1.092 7.478,-1.62 7.286,-2.152 7.286,-2.812 7.286,-3.468 7.478,-4 7.67,-4.532 8.018,-4.904 8.366,-5.28 8.85,-5.484 q 0.484,-0.204 1.064,-0.204 0.588,0 1.072,0.204 0.484,0.2 0.832,0.576 0.348,0.372 0.54,0.904 0.192,0.532 0.192,1.192 z m -0.232,0 q 0,-0.628 -0.176,-1.124 Q 11.97,-4.436 11.65,-4.784 11.334,-5.132 10.89,-5.316 10.45,-5.5 9.914,-5.5 q -0.528,0 -0.972,0.184 -0.44,0.184 -0.76,0.532 -0.316,0.348 -0.496,0.848 -0.176,0.496 -0.176,1.124 0,0.628 0.176,1.128 0.18,0.496 0.496,0.84 0.32,0.344 0.76,0.528 0.444,0.184 0.972,0.184 0.536,0 0.976,-0.184 0.444,-0.184 0.76,-0.528 0.32,-0.344 0.492,-0.84 0.176,-0.5 0.176,-1.128 z"
       style="letter-spacing:-0.01em"
       id="path220" />
    <path
       inkscape:connector-curvature="0"
       d="m 13.674,1.428 v -5.372 h 0.1 q 0.076,0 0.08,0.08 l 0.024,0.688 q 0.264,-0.384 0.628,-0.608 0.368,-0.224 0.812,-0.224 0.748,0 1.152,0.496 0.408,0.496 0.408,1.516 0,0.432 -0.112,0.804 -0.108,0.372 -0.328,0.648 -0.216,0.276 -0.54,0.436 -0.32,0.156 -0.744,0.156 -0.832,0 -1.268,-0.652 v 2.032 z m 1.6,-5.268 q -0.416,0 -0.772,0.232 -0.352,0.228 -0.616,0.628 v 2.164 q 0.244,0.384 0.544,0.544 0.3,0.156 0.692,0.156 0.388,0 0.676,-0.14 0.288,-0.144 0.48,-0.396 0.192,-0.252 0.288,-0.596 0.096,-0.344 0.096,-0.748 0,-0.94 -0.356,-1.392 Q 15.95,-3.84 15.274,-3.84 Z"
       id="path222" />
    <path
       inkscape:connector-curvature="0"
       d="m 19.549,-4.008 q 0.32,0 0.596,0.112 0.28,0.112 0.488,0.332 0.208,0.216 0.324,0.536 0.12,0.32 0.12,0.732 0,0.084 -0.072,0.084 h -2.988 q -0.004,0.04 -0.004,0.08 0,0.04 0,0.08 0,0.472 0.112,0.832 0.112,0.36 0.316,0.604 0.204,0.244 0.492,0.372 0.292,0.124 0.648,0.124 0.316,0 0.548,-0.068 0.232,-0.072 0.388,-0.156 0.156,-0.084 0.24,-0.152 0.088,-0.072 0.112,-0.072 0.032,0 0.052,0.024 l 0.052,0.06 q -0.08,0.1 -0.224,0.196 -0.144,0.096 -0.332,0.172 -0.184,0.072 -0.404,0.116 -0.216,0.048 -0.444,0.048 -0.404,0 -0.732,-0.14 -0.324,-0.144 -0.556,-0.412 -0.228,-0.268 -0.352,-0.656 -0.124,-0.392 -0.124,-0.892 0,-0.432 0.116,-0.788 0.12,-0.36 0.344,-0.62 0.224,-0.26 0.548,-0.404 0.324,-0.144 0.736,-0.144 z m 0.004,0.16 q -0.336,0 -0.604,0.108 -0.264,0.108 -0.456,0.304 -0.192,0.196 -0.312,0.472 -0.116,0.276 -0.152,0.612 h 2.856 q 0,-0.356 -0.104,-0.632 -0.1,-0.28 -0.28,-0.472 -0.176,-0.192 -0.42,-0.292 -0.244,-0.1 -0.528,-0.1 z"
       id="path224" />
    <path
       inkscape:connector-curvature="0"
       d="m 22.189625,0 v -3.944 h 0.1 q 0.076,0 0.08,0.08 l 0.024,0.684 q 0.276,-0.38 0.656,-0.604 0.38,-0.224 0.836,-0.224 0.328,0 0.572,0.104 0.248,0.1 0.408,0.292 0.164,0.188 0.244,0.464 0.084,0.276 0.084,0.624 V 0 h -0.212 v -2.524 q 0,-0.308 -0.068,-0.552 -0.068,-0.244 -0.212,-0.412 -0.14,-0.172 -0.352,-0.26 -0.212,-0.092 -0.5,-0.092 -0.432,0 -0.8,0.228 -0.368,0.224 -0.648,0.624 V 0 Z"
       id="path226" />
    <path
       inkscape:connector-curvature="0"
       d="m 33.642,-2.812 q 0,0.66 -0.192,1.184 -0.192,0.52 -0.54,0.884 -0.348,0.36 -0.832,0.552 Q 31.594,0 31.01,0 h -2.028 v -5.624 h 2.028 q 0.584,0 1.068,0.192 0.484,0.192 0.832,0.556 0.348,0.36 0.54,0.884 0.192,0.52 0.192,1.18 z m -0.232,0 q 0,-0.628 -0.176,-1.116 -0.172,-0.492 -0.492,-0.828 -0.316,-0.336 -0.76,-0.512 -0.44,-0.176 -0.972,-0.176 h -1.808 v 5.264 h 1.808 q 0.532,0 0.972,-0.176 0.444,-0.176 0.76,-0.512 0.32,-0.336 0.492,-0.824 0.176,-0.492 0.176,-1.12 z"
       style="letter-spacing:-0.01em"
       id="path228" />
    <path
       inkscape:connector-curvature="0"
       d="M 35.03,-3.944 V 0 h -0.208 v -3.944 z m 0.172,-1.424 q 0,0.056 -0.024,0.104 -0.024,0.048 -0.064,0.088 -0.036,0.036 -0.088,0.06 -0.048,0.02 -0.1,0.02 -0.112,0 -0.196,-0.08 -0.08,-0.084 -0.08,-0.192 0,-0.112 0.08,-0.192 0.084,-0.084 0.196,-0.084 0.052,0 0.1,0.024 0.052,0.02 0.088,0.06 0.04,0.036 0.064,0.088 0.024,0.048 0.024,0.104 z"
       id="path230" />
    <path
       inkscape:connector-curvature="0"
       d="m 37.73675,-4.008 q 0.26,0 0.476,0.068 0.22,0.064 0.388,0.18 h 0.984 v 0.064 q 0,0.032 -0.024,0.052 -0.024,0.02 -0.06,0.024 l -0.708,0.028 q 0.148,0.164 0.228,0.376 0.08,0.212 0.08,0.464 0,0.284 -0.1,0.516 -0.096,0.232 -0.276,0.4 -0.176,0.164 -0.428,0.256 -0.252,0.088 -0.56,0.088 -0.192,0 -0.356,-0.032 -0.164,-0.036 -0.308,-0.1 -0.188,0.108 -0.304,0.264 -0.112,0.152 -0.112,0.292 0,0.188 0.124,0.288 0.124,0.1 0.324,0.148 0.2,0.048 0.456,0.064 0.26,0.012 0.528,0.024 0.272,0.012 0.528,0.044 0.26,0.032 0.46,0.116 0.2,0.084 0.324,0.24 0.124,0.156 0.124,0.416 0,0.24 -0.124,0.46 -0.12,0.224 -0.348,0.392 -0.228,0.168 -0.552,0.268 -0.32,0.104 -0.716,0.104 -0.404,0 -0.716,-0.084 -0.308,-0.084 -0.52,-0.232 -0.208,-0.144 -0.316,-0.336 -0.104,-0.192 -0.104,-0.408 0,-0.324 0.22,-0.56 0.22,-0.24 0.596,-0.368 -0.216,-0.06 -0.344,-0.184 -0.128,-0.128 -0.128,-0.356 0,-0.08 0.032,-0.168 0.036,-0.092 0.096,-0.176 0.064,-0.088 0.152,-0.168 0.088,-0.08 0.2,-0.14 -0.276,-0.16 -0.428,-0.432 -0.152,-0.272 -0.152,-0.636 0,-0.28 0.096,-0.508 0.096,-0.232 0.272,-0.396 0.18,-0.168 0.432,-0.26 0.252,-0.092 0.564,-0.092 z m 1.596,4.304 q 0,-0.208 -0.108,-0.332 -0.104,-0.128 -0.28,-0.196 -0.172,-0.072 -0.4,-0.1 -0.228,-0.028 -0.476,-0.04 -0.244,-0.016 -0.492,-0.028 -0.244,-0.012 -0.456,-0.052 -0.176,0.064 -0.324,0.152 -0.144,0.084 -0.252,0.192 -0.104,0.108 -0.164,0.24 -0.06,0.132 -0.06,0.288 0,0.192 0.1,0.36 0.1,0.168 0.288,0.288 0.192,0.124 0.464,0.196 0.272,0.072 0.616,0.072 0.312,0 0.592,-0.076 0.28,-0.076 0.492,-0.216 0.212,-0.136 0.336,-0.328 0.124,-0.192 0.124,-0.42 z m -1.596,-1.94 q 0.276,0 0.492,-0.08 0.22,-0.08 0.368,-0.224 0.152,-0.148 0.228,-0.348 0.08,-0.204 0.08,-0.452 0,-0.244 -0.08,-0.448 -0.08,-0.204 -0.232,-0.348 -0.148,-0.144 -0.368,-0.224 -0.216,-0.08 -0.488,-0.08 -0.272,0 -0.488,0.08 -0.216,0.08 -0.368,0.224 -0.148,0.144 -0.228,0.348 -0.08,0.204 -0.08,0.448 0,0.248 0.08,0.452 0.08,0.2 0.228,0.348 0.152,0.144 0.368,0.224 0.216,0.08 0.488,0.08 z"
       id="path232" />
    <path
       inkscape:connector-curvature="0"
       d="M 40.795625,-3.944 V 0 h -0.208 v -3.944 z m 0.172,-1.424 q 0,0.056 -0.024,0.104 -0.024,0.048 -0.064,0.088 -0.036,0.036 -0.088,0.06 -0.048,0.02 -0.1,0.02 -0.112,0 -0.196,-0.08 -0.08,-0.084 -0.08,-0.192 0,-0.112 0.08,-0.192 0.084,-0.084 0.196,-0.084 0.052,0 0.1,0.024 0.052,0.02 0.088,0.06 0.04,0.036 0.064,0.088 0.024,0.048 0.024,0.104 z"
       id="path234" />
    <path
       inkscape:connector-curvature="0"
       d="m 43.266375,0.064 q -0.368,0 -0.576,-0.2 -0.208,-0.204 -0.208,-0.652 v -2.844 h -0.616 q -0.076,0 -0.076,-0.06 v -0.072 l 0.692,-0.028 0.06,-1.52 q 0.004,-0.024 0.02,-0.044 0.016,-0.024 0.044,-0.024 h 0.088 v 1.588 h 1.304 v 0.16 h -1.304 v 2.836 q 0,0.184 0.048,0.316 0.048,0.128 0.128,0.212 0.08,0.084 0.188,0.124 0.112,0.036 0.24,0.036 0.156,0 0.272,-0.048 0.12,-0.048 0.204,-0.104 0.084,-0.056 0.136,-0.104 0.052,-0.048 0.076,-0.048 0.02,0 0.044,0.024 l 0.052,0.076 q -0.068,0.084 -0.16,0.152 -0.088,0.068 -0.196,0.12 -0.108,0.048 -0.224,0.076 -0.116,0.028 -0.236,0.028 z"
       id="path236" />
    <path
       inkscape:connector-curvature="0"
       d="m 47.31025,0 q -0.08,0 -0.092,-0.084 l -0.04,-0.58 q -0.164,0.168 -0.332,0.304 -0.164,0.132 -0.348,0.228 -0.18,0.092 -0.392,0.144 -0.212,0.052 -0.468,0.052 -0.188,0 -0.372,-0.056 -0.184,-0.056 -0.332,-0.176 -0.148,-0.12 -0.24,-0.308 -0.088,-0.192 -0.088,-0.46 0,-0.26 0.148,-0.472 0.152,-0.212 0.468,-0.364 0.316,-0.156 0.8,-0.244 0.484,-0.092 1.152,-0.108 v -0.468 q 0,-0.592 -0.256,-0.92 -0.256,-0.328 -0.76,-0.328 -0.3,0 -0.516,0.088 -0.216,0.084 -0.36,0.192 -0.144,0.104 -0.232,0.192 -0.084,0.084 -0.128,0.084 -0.04,0 -0.072,-0.044 l -0.036,-0.056 q 0.296,-0.304 0.62,-0.464 0.324,-0.16 0.74,-0.16 0.308,0 0.536,0.1 0.228,0.096 0.376,0.28 0.152,0.184 0.224,0.448 0.072,0.26 0.072,0.588 V 0 Z m -1.632,-0.092 q 0.256,0 0.468,-0.056 0.212,-0.06 0.392,-0.16 0.18,-0.1 0.336,-0.232 0.156,-0.136 0.3,-0.288 v -1.144 q -1.208,0.04 -1.788,0.3 -0.576,0.26 -0.576,0.728 0,0.22 0.072,0.38 0.076,0.16 0.196,0.268 0.124,0.104 0.28,0.156 0.156,0.048 0.32,0.048 z"
       id="path238" />
    <path
       inkscape:connector-curvature="0"
       d="M 48.99475,-5.784 V 0 h -0.208 v -5.784 z"
       id="path240" />
    <path
       inkscape:connector-curvature="0"
       d="m 56.182001,-5.624 v 0.188 h -3.1 v 2.492 h 2.612 v 0.184 h -2.612 v 2.572 h 3.108 L 56.182001,0 h -3.32 v -5.624 z"
       style="letter-spacing:-0.03em"
       id="path242" />
    <path
       inkscape:connector-curvature="0"
       d="m 59.972002,0 q -0.08,0 -0.084,-0.08 l -0.028,-0.704 q -0.264,0.388 -0.632,0.612 -0.364,0.22 -0.804,0.22 -0.752,0 -1.156,-0.496 -0.404,-0.496 -0.404,-1.516 0,-0.432 0.108,-0.804 0.112,-0.372 0.328,-0.648 0.22,-0.276 0.54,-0.432 0.324,-0.16 0.748,-0.16 0.824,0 1.268,0.648 v -2.424 h 0.212 V 0 Z m -1.504,-0.12 q 0.416,0 0.768,-0.228 0.356,-0.228 0.62,-0.628 v -2.168 q -0.248,-0.384 -0.548,-0.54 -0.3,-0.16 -0.688,-0.16 -0.388,0 -0.676,0.144 -0.288,0.14 -0.48,0.392 -0.192,0.252 -0.288,0.596 -0.096,0.344 -0.096,0.748 0,0.94 0.352,1.392 0.356,0.452 1.036,0.452 z"
       id="path244" />
    <path
       inkscape:connector-curvature="0"
       d="m 61.647002,-3.944 v 2.524 q 0,0.308 0.068,0.552 0.068,0.244 0.208,0.416 0.144,0.168 0.356,0.26 0.216,0.088 0.504,0.088 0.428,0 0.792,-0.224 0.368,-0.228 0.656,-0.628 v -2.988 h 0.208 V 0 h -0.096 q -0.072,0 -0.084,-0.08 l -0.02,-0.684 q -0.28,0.38 -0.66,0.604 -0.38,0.224 -0.836,0.224 -0.328,0 -0.576,-0.1 -0.244,-0.104 -0.408,-0.292 -0.16,-0.192 -0.244,-0.468 -0.08,-0.276 -0.08,-0.624 v -2.524 z"
       id="path246" />
    <path
       inkscape:connector-curvature="0"
       d="m 68.442377,-3.512 q -0.012,0.012 -0.024,0.024 -0.012,0.008 -0.032,0.008 -0.032,0 -0.1,-0.056 -0.068,-0.056 -0.188,-0.124 -0.12,-0.068 -0.304,-0.124 -0.184,-0.056 -0.444,-0.056 -0.368,0 -0.656,0.132 -0.284,0.128 -0.484,0.372 -0.196,0.244 -0.3,0.588 -0.104,0.344 -0.104,0.776 0,0.444 0.104,0.792 0.108,0.344 0.3,0.58 0.196,0.236 0.468,0.36 0.276,0.124 0.612,0.124 0.304,0 0.508,-0.068 0.208,-0.072 0.344,-0.156 0.136,-0.088 0.208,-0.156 0.072,-0.072 0.104,-0.072 0.032,0 0.052,0.024 l 0.048,0.06 q -0.072,0.1 -0.2,0.196 -0.124,0.096 -0.292,0.172 -0.164,0.072 -0.368,0.116 -0.2,0.048 -0.428,0.048 -0.38,0 -0.688,-0.136 -0.308,-0.136 -0.528,-0.396 -0.216,-0.26 -0.336,-0.636 -0.12,-0.376 -0.12,-0.852 0,-0.456 0.116,-0.832 0.12,-0.376 0.344,-0.64 0.224,-0.268 0.548,-0.416 0.324,-0.148 0.74,-0.148 0.368,0 0.656,0.12 0.288,0.116 0.496,0.308 z"
       id="path248" />
    <path
       inkscape:connector-curvature="0"
       d="m 71.963997,0 q -0.08,0 -0.092,-0.084 l -0.04,-0.58 q -0.164,0.168 -0.332,0.304 -0.164,0.132 -0.348,0.228 -0.18,0.092 -0.392,0.144 -0.212,0.052 -0.468,0.052 -0.188,0 -0.372,-0.056 -0.184,-0.056 -0.332,-0.176 -0.148,-0.12 -0.24,-0.308 -0.088,-0.192 -0.088,-0.46 0,-0.26 0.148,-0.472 0.152,-0.212 0.468,-0.364 0.316,-0.156 0.8,-0.244 0.484,-0.092 1.152,-0.108 v -0.468 q 0,-0.592 -0.256,-0.92 -0.256,-0.328 -0.76,-0.328 -0.3,0 -0.516,0.088 -0.216,0.084 -0.36,0.192 -0.144,0.104 -0.232,0.192 -0.084,0.084 -0.128,0.084 -0.04,0 -0.072,-0.044 l -0.036,-0.056 q 0.296,-0.304 0.62,-0.464 0.324,-0.16 0.74,-0.16 0.308,0 0.536,0.1 0.228,0.096 0.376,0.28 0.152,0.184 0.224,0.448 0.072,0.26 0.072,0.588 V 0 Z m -1.632,-0.092 q 0.256,0 0.468,-0.056 0.212,-0.06 0.392,-0.16 0.18,-0.1 0.336,-0.232 0.156,-0.136 0.3,-0.288 v -1.144 q -1.208,0.04 -1.788,0.3 -0.576,0.26 -0.576,0.728 0,0.22 0.072,0.38 0.076,0.16 0.196,0.268 0.124,0.104 0.28,0.156 0.156,0.048 0.32,0.048 z"
       style="letter-spacing:-0.01em"
       id="path250" />
    <path
       inkscape:connector-curvature="0"
       d="m 72.896004,0 z m 3.532,-3.792 V 0 h -0.208 v -3.632 h -2.42 v 2.836 q 0,0.184 0.048,0.316 0.048,0.128 0.128,0.212 0.08,0.084 0.188,0.124 0.112,0.036 0.24,0.036 0.156,0 0.272,-0.048 0.12,-0.048 0.204,-0.104 0.084,-0.056 0.136,-0.104 0.052,-0.048 0.076,-0.048 0.02,0 0.044,0.024 l 0.052,0.076 q -0.068,0.084 -0.16,0.152 -0.088,0.068 -0.196,0.12 -0.108,0.048 -0.224,0.076 -0.116,0.028 -0.236,0.028 -0.368,0 -0.576,-0.2 -0.208,-0.204 -0.208,-0.652 v -2.844 h -0.616 q -0.076,0 -0.076,-0.06 v -0.072 l 0.692,-0.028 0.06,-1.52 q 0.004,-0.024 0.02,-0.044 0.016,-0.024 0.044,-0.024 h 0.088 v 1.588 z m 0.18,-1.632 q 0,0.052 -0.024,0.1 -0.024,0.048 -0.064,0.088 -0.036,0.036 -0.088,0.06 -0.048,0.02 -0.1,0.02 -0.056,0 -0.108,-0.02 -0.048,-0.024 -0.088,-0.06 -0.036,-0.04 -0.06,-0.088 -0.02,-0.048 -0.02,-0.1 0,-0.112 0.08,-0.192 0.084,-0.084 0.196,-0.084 0.052,0 0.1,0.024 0.052,0.02 0.088,0.06 0.04,0.036 0.064,0.088 0.024,0.048 0.024,0.104 z"
       id="path252" />
    <path
       inkscape:connector-curvature="0"
       d="m 79.403254,-4.008 q 0.42,0 0.744,0.148 0.328,0.144 0.552,0.412 0.224,0.264 0.34,0.64 0.116,0.376 0.116,0.836 0,0.46 -0.116,0.836 -0.116,0.372 -0.34,0.636 -0.224,0.264 -0.552,0.408 -0.324,0.14 -0.744,0.14 -0.42,0 -0.748,-0.14 -0.324,-0.144 -0.548,-0.408 -0.224,-0.264 -0.34,-0.636 -0.116,-0.376 -0.116,-0.836 0,-0.46 0.116,-0.836 0.116,-0.376 0.34,-0.64 0.224,-0.268 0.548,-0.412 0.328,-0.148 0.748,-0.148 z m 0,3.888 q 0.384,0 0.672,-0.132 0.288,-0.132 0.48,-0.376 0.196,-0.244 0.292,-0.584 0.096,-0.34 0.096,-0.76 0,-0.42 -0.096,-0.764 -0.096,-0.344 -0.292,-0.588 -0.192,-0.248 -0.48,-0.38 -0.288,-0.136 -0.672,-0.136 -0.384,0 -0.672,0.136 -0.288,0.132 -0.484,0.38 -0.192,0.244 -0.288,0.588 -0.096,0.344 -0.096,0.764 0,0.42 0.096,0.76 0.096,0.34 0.288,0.584 0.196,0.244 0.484,0.376 0.288,0.132 0.672,0.132 z"
       id="path254" />
    <path
       inkscape:connector-curvature="0"
       d="m 82.317129,0 v -3.944 h 0.1 q 0.076,0 0.08,0.08 l 0.024,0.684 q 0.276,-0.38 0.656,-0.604 0.38,-0.224 0.836,-0.224 0.328,0 0.572,0.104 0.248,0.1 0.408,0.292 0.164,0.188 0.244,0.464 0.084,0.276 0.084,0.624 V 0 h -0.212 v -2.524 q 0,-0.308 -0.068,-0.552 -0.068,-0.244 -0.212,-0.412 -0.14,-0.172 -0.352,-0.26 -0.212,-0.092 -0.5,-0.092 -0.432,0 -0.8,0.228 -0.368,0.224 -0.648,0.624 V 0 Z"
       id="path256" />
  </g>
</svg>
