<?xml version="1.0" encoding="UTF-8" standalone="no"?>
<svg
   xmlns:dc="http://purl.org/dc/elements/1.1/"
   xmlns:cc="http://creativecommons.org/ns#"
   xmlns:rdf="http://www.w3.org/1999/02/22-rdf-syntax-ns#"
   xmlns:svg="http://www.w3.org/2000/svg"
   xmlns="http://www.w3.org/2000/svg"
   xmlns:sodipodi="http://sodipodi.sourceforge.net/DTD/sodipodi-0.dtd"
   xmlns:inkscape="http://www.inkscape.org/namespaces/inkscape"
   id="Calque_1"
   data-name="Calque 1"
   viewBox="0 0 97.325596 58.810948"
   version="1.1"
   sodipodi:docname="logo.svg"
   width="97.325592"
   height="58.810947"
   inkscape:version="0.92.4 (5da689c313, 2019-01-14)">
  <metadata
     id="metadata51">
    <rdf:RDF>
      <cc:Work
         rdf:about="">
        <dc:format>image/svg+xml</dc:format>
        <dc:type
           rdf:resource="http://purl.org/dc/dcmitype/StillImage" />
        <dc:title></dc:title>
      </cc:Work>
    </rdf:RDF>
  </metadata>
  <sodipodi:namedview
     pagecolor="#ffffff"
     bordercolor="#666666"
     borderopacity="1"
     objecttolerance="10"
     gridtolerance="10"
     guidetolerance="10"
     inkscape:pageopacity="0"
     inkscape:pageshadow="2"
     inkscape:window-width="1278"
     inkscape:window-height="982"
     id="namedview49"
     showgrid="false"
     fit-margin-bottom="12"
     fit-margin-top="0"
     fit-margin-left="0"
     fit-margin-right="0"
     inkscape:zoom="4.8489831"
     inkscape:cx="51.905942"
     inkscape:cy="35.400947"
     inkscape:window-x="3200"
     inkscape:window-y="0"
     inkscape:window-maximized="0"
     inkscape:current-layer="Calque_1" />
  <defs
     id="defs4">
    <style
       id="style2">
      .cls-1 {
        fill: #2e4e9d;
      }

      .cls-2 {
        fill: #e83d57;
      }

      .cls-3 {
        fill: #fff;
      }
    </style>
  </defs>
  <g
     id="g10"
     transform="translate(-0.00440601)">
    <path
       class="cls-1"
       d="m 86.64,33.94 v 0.56 c 0,1 0.34,1.63 1,1.86 a 11.27,11.27 0 0 0 2.42,0.2 v 3.88 c -0.42,0 -0.7,0 -1.12,0 Q 84,40.46 82.51,37 A 7,7 0 0 1 82,35.07 6.27,6.27 0 0 1 82,34.34 v -15 l 4.64,-0.82 z"
       transform="translate(-81.67,-7.48)"
       id="path6"
       inkscape:connector-curvature="0"
       style="fill:#2e4e9d" />
    <path
       class="cls-1"
       d="m 98.23,32.05 h -6.15 v -3.58 h 6.15 z"
       transform="translate(-81.67,-7.48)"
       id="path8"
       inkscape:connector-curvature="0"
       style="fill:#2e4e9d" />
  </g>
  <g
     id="g18"
     transform="translate(-0.00440601)">
    <path
       class="cls-1"
       d="m 139.41,18.94 h 4.83 v 21.2 h -4.83 v -0.65 a 8.93,8.93 0 0 1 -4,0.93 7.44,7.44 0 0 1 -5.45,-2.2 7.75,7.75 0 0 1 -2.22,-5.73 7.73,7.73 0 0 1 2.26,-5.76 7.6,7.6 0 0 1 5.48,-2.17 8.93,8.93 0 0 1 4,0.93 z m 0,16.14 v -5.2 a 4.72,4.72 0 0 0 -3.07,-1 3.59,3.59 0 0 0 -3.79,3.65 3.5,3.5 0 0 0 3.79,3.63 4.77,4.77 0 0 0 3.07,-1.08 z"
       transform="translate(-81.67,-7.48)"
       id="path12"
       inkscape:connector-curvature="0"
       style="fill:#2e4e9d" />
    <path
       class="cls-1"
       d="m 157.26,24.84 h 4.86 v 15.3 h -4.86 v -0.71 a 6.55,6.55 0 0 1 -3.49,1 q -3.54,0 -5.06,-1.63 c -1,-1.1 -1.49,-2.95 -1.49,-5.51 v -8.45 h 4.84 v 8.41 c 0,2 0.79,2.87 2.58,2.87 a 3.82,3.82 0 0 0 2.62,-0.93 z"
       transform="translate(-81.67,-7.48)"
       id="path14"
       inkscape:connector-curvature="0"
       style="fill:#2e4e9d" />
    <path
       class="cls-1"
       d="m 179,37.18 a 7.35,7.35 0 0 1 -6,3.21 8.39,8.39 0 0 1 -6,-2.31 7.66,7.66 0 0 1 0,-11.21 8.39,8.39 0 0 1 6,-2.31 7.51,7.51 0 0 1 6,3.15 l -3.1,2.87 a 3.24,3.24 0 0 0 -3,-1.74 3.53,3.53 0 0 0 -2.58,1.06 3.63,3.63 0 0 0 0,5.15 3.54,3.54 0 0 0 2.58,1.07 3.23,3.23 0 0 0 3,-1.75 z"
       transform="translate(-81.67,-7.48)"
       id="path16"
       inkscape:connector-curvature="0"
       style="fill:#2e4e9d" />
  </g>
  <g
     id="g42"
     transform="translate(-0.00440601)">
    <path
       class="cls-1"
       d="m 86.67,45.07 h 2.08 v 9.1 h -2.08 v -0.28 a 3.76,3.76 0 0 1 -1.7,0.4 3.19,3.19 0 0 1 -2.34,-0.94 3.67,3.67 0 0 1 0,-4.94 3.29,3.29 0 0 1 2.37,-0.93 3.89,3.89 0 0 1 1.7,0.4 z m 0,6.93 v -2.24 a 2,2 0 0 0 -1.31,-0.44 1.54,1.54 0 0 0 -1.63,1.57 1.5,1.5 0 0 0 1.63,1.55 2,2 0 0 0 1.31,-0.44 z"
       transform="translate(-81.67,-7.48)"
       id="path20"
       inkscape:connector-curvature="0"
       style="fill:#2e4e9d" />
    <path
       class="cls-1"
       d="m 96.37,51.47 h -4.5 a 1.55,1.55 0 0 0 1.53,1.14 1.9,1.9 0 0 0 1.46,-0.79 l 1.3,1.07 a 3.56,3.56 0 0 1 -3,1.39 3.3,3.3 0 0 1 -3.38,-3.39 3.31,3.31 0 0 1 1,-2.42 3.24,3.24 0 0 1 2.43,-1 2.94,2.94 0 0 1 2.34,1 3.76,3.76 0 0 1 0.83,2.53 z m -2,-1.21 a 1.1,1.1 0 0 0 -1.23,-1.16 1.39,1.39 0 0 0 -1.31,1.16 z"
       transform="translate(-81.67,-7.48)"
       id="path22"
       inkscape:connector-curvature="0"
       style="fill:#2e4e9d" />
    <path
       class="cls-1"
       d="m 107.16,45.66 h 2.15 v 8.51 h -1 l -4.71,-4.66 v 4.66 h -2.13 v -8.51 h 1 l 4.71,4.66 z"
       transform="translate(-81.67,-7.48)"
       id="path24"
       inkscape:connector-curvature="0"
       style="fill:#2e4e9d" />
    <path
       class="cls-1"
       d="m 115.11,45.55 a 4.41,4.41 0 0 1 3.21,1.28 4.25,4.25 0 0 1 0,6.18 4.44,4.44 0 0 1 -3.21,1.27 4.5,4.5 0 0 1 -3.22,-1.28 4.25,4.25 0 0 1 0,-6.18 4.47,4.47 0 0 1 3.22,-1.27 z m 0,6.76 a 2.24,2.24 0 0 0 1.67,-0.7 2.41,2.41 0 0 0 0,-3.38 2.33,2.33 0 0 0 -3.33,0 2.41,2.41 0 0 0 0,3.38 2.23,2.23 0 0 0 1.66,0.7 z"
       transform="translate(-81.67,-7.48)"
       id="path26"
       inkscape:connector-curvature="0"
       style="fill:#2e4e9d" />
    <path
       class="cls-1"
       d="m 126,54.17 -1.46,-2 h -1.48 v 2 H 121 v -8.51 h 3.91 a 3.37,3.37 0 0 1 2.62,0.91 3.2,3.2 0 0 1 0.83,2.26 3,3 0 0 1 -1.63,3 l 1.9,2.38 z m -2.94,-6.7 v 3 h 1.21 c 1.21,0 1.78,-0.63 1.78,-1.49 a 1.41,1.41 0 0 0 -1.57,-1.52 z"
       transform="translate(-81.67,-7.48)"
       id="path28"
       inkscape:connector-curvature="0"
       style="fill:#2e4e9d" />
    <path
       class="cls-1"
       d="m 137.45,45.66 h 1 v 8.51 H 136.3 V 50.3 l -2.3,3 -2.31,-3 v 3.87 h -2.13 v -8.51 h 1 l 3.44,4.47 z"
       transform="translate(-81.67,-7.48)"
       id="path30"
       inkscape:connector-curvature="0"
       style="fill:#2e4e9d" />
    <path
       class="cls-1"
       d="m 146.42,54.17 -0.68,-1.5 h -3.46 l -0.67,1.5 h -2.24 l 4.13,-8.51 h 1 l 4.14,8.51 z m -2.42,-5.38 -1,2.12 h 2 z"
       transform="translate(-81.67,-7.48)"
       id="path32"
       inkscape:connector-curvature="0"
       style="fill:#2e4e9d" />
    <path
       class="cls-1"
       d="m 155.28,45.66 h 2.15 v 8.51 h -1 l -4.71,-4.66 v 4.66 h -2.13 v -8.51 h 1 l 4.71,4.66 z"
       transform="translate(-81.67,-7.48)"
       id="path34"
       inkscape:connector-curvature="0"
       style="fill:#2e4e9d" />
    <path
       class="cls-1"
       d="m 165.72,52.9 a 3.7,3.7 0 0 1 -2.82,1.27 H 159 v -8.51 h 3.61 a 4.28,4.28 0 0 1 4.28,4.26 4.19,4.19 0 0 1 -1.17,2.98 z m -4.64,-0.66 h 1.63 a 1.89,1.89 0 0 0 1.47,-0.69 2.36,2.36 0 0 0 0.61,-1.63 2.33,2.33 0 0 0 -0.64,-1.64 2,2 0 0 0 -1.53,-0.69 h -1.54 z"
       transform="translate(-81.67,-7.48)"
       id="path36"
       inkscape:connector-curvature="0"
       style="fill:#2e4e9d" />
    <path
       class="cls-1"
       d="m 170.38,45.66 v 8.51 h -2.15 v -8.51 z"
       transform="translate(-81.67,-7.48)"
       id="path38"
       inkscape:connector-curvature="0"
       style="fill:#2e4e9d" />
    <path
       class="cls-1"
       d="m 174.09,52.36 h 4.67 v 1.81 H 172 v -8.51 h 6.49 v 1.81 h -4.41 v 1.69 h 3.67 v 1.76 h -3.67 z"
       transform="translate(-81.67,-7.48)"
       id="path40"
       inkscape:connector-curvature="0"
       style="fill:#2e4e9d" />
  </g>
  <polyline
     class="cls-2"
     points="21 8.32 33.1 3.41 29.86 0"
     id="polyline44"
     style="fill:#e83d57"
     transform="translate(-0.00440601)" />
  <path
     class="cls-3"
     d="m 42.665594,16.57 -17.07,8.88 a 8.06,8.06 0 0 0 4.73,2.85 8.45,8.45 0 0 0 9.93,-6.78 l 4.47,0.93 a 13.74,13.74 0 0 1 -7.56,9.61 12.07,12.07 0 0 1 -9.8,0.91 12.61,12.61 0 0 1 -7.35,-6.4 12.63,12.63 0 0 1 -1,-9.74 12.11,12.11 0 0 1 6.31,-7.52 11.11,11.11 0 0 1 9.43,-0.83 13.4,13.4 0 0 1 7.24,6.77 z m -18.77,5.42 12.36,-6.42 c -2,-3.13 -5.17,-4.39 -8.91,-2.44 a 7.31,7.31 0 0 0 -3.45,8.86 z"
     id="path46"
     inkscape:connector-curvature="0"
     style="fill:#ffffff" />
</svg>
